<svg width="520" height="315" viewBox="0 0 520 315" fill="none" xmlns="http://www.w3.org/2000/svg">
<g clip-path="url(#clip0_14_11)">
<path d="M414.757 52.5519C415.876 52.5519 416.783 51.6456 416.783 50.5277C416.783 49.4098 415.876 48.5035 414.757 48.5035C413.639 48.5035 412.732 49.4098 412.732 50.5277C412.732 51.6456 413.639 52.5519 414.757 52.5519Z" fill="#FF6600" fill-opacity="0.08"/>
<path d="M429.327 52.5519C430.446 52.5519 431.353 51.6456 431.353 50.5277C431.353 49.4098 430.446 48.5035 429.327 48.5035C428.208 48.5035 427.301 49.4098 427.301 50.5277C427.301 51.6456 428.208 52.5519 429.327 52.5519Z" fill="#FF6600" fill-opacity="0.08"/>
<path d="M443.878 52.5519C444.997 52.5519 445.903 51.6456 445.903 50.5277C445.903 49.4098 444.997 48.5035 443.878 48.5035C442.759 48.5035 441.852 49.4098 441.852 50.5277C441.852 51.6456 442.759 52.5519 443.878 52.5519Z" fill="#FF6600" fill-opacity="0.08"/>
<path d="M458.448 52.5519C459.567 52.5519 460.473 51.6456 460.473 50.5277C460.473 49.4098 459.567 48.5035 458.448 48.5035C457.329 48.5035 456.422 49.4098 456.422 50.5277C456.422 51.6456 457.329 52.5519 458.448 52.5519Z" fill="#FF6600" fill-opacity="0.08"/>
<path d="M414.757 64.0744C415.876 64.0744 416.783 63.1682 416.783 62.0502C416.783 60.9323 415.876 60.026 414.757 60.026C413.639 60.026 412.732 60.9323 412.732 62.0502C412.732 63.1682 413.639 64.0744 414.757 64.0744Z" fill="#FF6600" fill-opacity="0.08"/>
<path d="M429.327 64.0744C430.446 64.0744 431.353 63.1682 431.353 62.0502C431.353 60.9323 430.446 60.026 429.327 60.026C428.208 60.026 427.301 60.9323 427.301 62.0502C427.301 63.1682 428.208 64.0744 429.327 64.0744Z" fill="#FF6600" fill-opacity="0.08"/>
<path d="M443.878 64.0744C444.997 64.0744 445.903 63.1682 445.903 62.0502C445.903 60.9323 444.997 60.026 443.878 60.026C442.759 60.026 441.852 60.9323 441.852 62.0502C441.852 63.1682 442.759 64.0744 443.878 64.0744Z" fill="#FF6600" fill-opacity="0.08"/>
<path d="M458.448 64.0744C459.567 64.0744 460.473 63.1682 460.473 62.0502C460.473 60.9323 459.567 60.026 458.448 60.026C457.329 60.026 456.422 60.9323 456.422 62.0502C456.422 63.1682 457.329 64.0744 458.448 64.0744Z" fill="#FF6600" fill-opacity="0.08"/>
<path d="M416.783 73.5727C416.783 74.7016 415.868 75.5969 414.757 75.5969C413.628 75.5969 412.732 74.6821 412.732 73.5727C412.732 72.4438 413.647 71.5485 414.757 71.5485C415.868 71.529 416.783 72.4438 416.783 73.5727Z" fill="#FF6600" fill-opacity="0.08"/>
<path d="M431.353 73.5727C431.353 74.7016 430.438 75.5969 429.327 75.5969C428.198 75.5969 427.301 74.6821 427.301 73.5727C427.301 72.4438 428.217 71.5485 429.327 71.5485C430.438 71.529 431.353 72.4438 431.353 73.5727Z" fill="#FF6600" fill-opacity="0.08"/>
<path d="M445.923 73.5727C445.923 74.7016 445.008 75.5969 443.897 75.5969C442.767 75.5969 441.872 74.6821 441.872 73.5727C441.872 72.4438 442.787 71.5485 443.897 71.5485C445.008 71.529 445.923 72.4438 445.923 73.5727Z" fill="#FF6600" fill-opacity="0.08"/>
<path d="M460.493 73.5727C460.493 74.7016 459.577 75.5969 458.467 75.5969C457.357 75.5969 456.441 74.6821 456.441 73.5727C456.441 72.4438 457.357 71.5485 458.467 71.5485C459.577 71.5485 460.493 72.4438 460.493 73.5727Z" fill="#FF6600" fill-opacity="0.08"/>
<path d="M414.757 87.1194C415.876 87.1194 416.783 86.2132 416.783 85.0952C416.783 83.9773 415.876 83.071 414.757 83.071C413.639 83.071 412.732 83.9773 412.732 85.0952C412.732 86.2132 413.639 87.1194 414.757 87.1194Z" fill="#FF6600" fill-opacity="0.08"/>
<path d="M429.327 87.1194C430.446 87.1194 431.353 86.2132 431.353 85.0952C431.353 83.9773 430.446 83.071 429.327 83.071C428.208 83.071 427.301 83.9773 427.301 85.0952C427.301 86.2132 428.208 87.1194 429.327 87.1194Z" fill="#FF6600" fill-opacity="0.08"/>
<path d="M443.878 87.1194C444.997 87.1194 445.903 86.2132 445.903 85.0952C445.903 83.9773 444.997 83.071 443.878 83.071C442.759 83.071 441.852 83.9773 441.852 85.0952C441.852 86.2132 442.759 87.1194 443.878 87.1194Z" fill="#FF6600" fill-opacity="0.08"/>
<path d="M458.448 87.1194C459.567 87.1194 460.473 86.2132 460.473 85.0952C460.473 83.9773 459.567 83.071 458.448 83.071C457.329 83.071 456.422 83.9773 456.422 85.0952C456.422 86.2132 457.329 87.1194 458.448 87.1194Z" fill="#FF6600" fill-opacity="0.08"/>
<path d="M402.583 157.228H127.02C126.474 157.228 126.046 156.799 126.046 156.254V0.973183C126.046 0.428201 126.474 0 127.02 0H402.583C403.129 0 403.557 0.428201 403.557 0.973183V156.254C403.557 156.799 403.109 157.228 402.583 157.228ZM127.994 155.281H401.609V1.94637H127.994V155.281Z" fill="#FF6600" fill-opacity="0.08"/>
<path d="M404.628 165.071H124.975C122.267 165.071 120.066 162.872 120.066 160.167C120.066 157.461 122.267 155.262 124.975 155.262H404.609C407.317 155.262 409.518 157.461 409.518 160.167C409.518 162.872 407.316 165.071 404.628 165.071ZM124.975 157.227C123.338 157.227 122.014 158.551 122.014 160.186C122.014 161.821 123.338 163.144 124.975 163.144H404.609C406.245 163.144 407.57 161.821 407.57 160.186C407.57 158.551 406.245 157.227 404.609 157.227H124.975Z" fill="#FF6600" fill-opacity="0.08"/>
<path d="M150.667 38.6159C156.277 31.9204 164.516 28.0861 173.262 28.0861C177.898 28.0861 182.514 29.1955 186.624 31.2781L173.437 57.1453C173.398 57.1258 173.359 57.1064 173.262 57.1064C173.203 57.1064 173.067 57.1064 172.931 57.2621L150.667 38.6159Z" fill="#FF6600" fill-opacity="0.08"/>
<path d="M143.791 57.5346H172.833C172.833 57.7682 173.009 57.885 173.067 57.9239L159.783 83.7327C149.927 78.6527 143.791 68.6094 143.791 57.5346Z" fill="#FF6600" fill-opacity="0.08"/>
<path d="M173.262 86.9831V57.9628C173.437 57.9433 173.69 57.8266 173.69 57.5346C173.69 57.4373 173.671 57.3789 173.632 57.301L197.552 40.8348C200.96 45.7591 202.752 51.5398 202.752 57.5346C202.752 72.58 191.474 85.1535 176.515 86.808C175.424 86.9247 174.333 86.9831 173.262 86.9831Z" fill="#FF6600" fill-opacity="0.08"/>
<path d="M182.534 96.3062H154.855C154.309 96.3062 153.881 95.878 153.881 95.333C153.881 94.7881 154.309 94.3599 154.855 94.3599H182.514C183.06 94.3599 183.488 94.7881 183.488 95.333C183.508 95.878 183.06 96.3062 182.534 96.3062Z" fill="#FF6600" fill-opacity="0.08"/>
<path d="M193.305 103.936H154.855C154.309 103.936 153.881 103.508 153.881 102.963C153.881 102.418 154.309 101.99 154.855 101.99H193.305C193.851 101.99 194.279 102.418 194.279 102.963C194.279 103.508 193.851 103.936 193.305 103.936Z" fill="#FF6600" fill-opacity="0.08"/>
<path d="M179.709 111.566H154.855C154.309 111.566 153.881 111.138 153.881 110.593C153.881 110.048 154.309 109.619 154.855 109.619H179.709C180.255 109.619 180.683 110.048 180.683 110.593C180.683 111.118 180.255 111.566 179.709 111.566Z" fill="#FF6600" fill-opacity="0.08"/>
<path d="M289.646 120.305C289.646 121.453 288.711 122.388 287.562 122.388C286.413 122.388 285.478 121.453 285.478 120.305C285.478 119.157 286.413 118.222 287.562 118.222C288.731 118.222 289.646 119.157 289.646 120.305Z" fill="#FF6600" fill-opacity="0.08"/>
<path d="M333.726 120.305C333.726 121.453 332.791 122.388 331.642 122.388C330.493 122.388 329.558 121.453 329.558 120.305C329.558 119.157 330.493 118.222 331.642 118.222C332.791 118.222 333.726 119.157 333.726 120.305Z" fill="#FF6600" fill-opacity="0.08"/>
<path d="M367.639 95.2358H273.966C273.752 95.2358 273.577 95.0606 273.577 94.8465C273.577 94.6324 273.752 94.4572 273.966 94.4572H367.639C367.853 94.4572 368.028 94.6324 368.028 94.8465C368.028 95.0606 367.853 95.2358 367.639 95.2358Z" fill="#FF6600" fill-opacity="0.08"/>
<path d="M367.639 79.1393H273.966C273.752 79.1393 273.577 78.9641 273.577 78.75C273.577 78.5359 273.752 78.3607 273.966 78.3607H367.639C367.853 78.3607 368.028 78.5359 368.028 78.75C368.028 78.9641 367.853 79.1393 367.639 79.1393Z" fill="#FF6600" fill-opacity="0.08"/>
<path d="M367.639 64.1717H273.966C273.752 64.1717 273.577 63.9966 273.577 63.7825C273.577 63.5684 273.752 63.3932 273.966 63.3932H367.639C367.853 63.3932 368.028 63.5684 368.028 63.7825C368.028 63.9966 367.853 64.1717 367.639 64.1717Z" fill="#FF6600" fill-opacity="0.08"/>
<path d="M367.639 50.6639H273.966C273.752 50.6639 273.577 50.4888 273.577 50.2747C273.577 50.0606 273.752 49.8854 273.966 49.8854H367.639C367.853 49.8854 368.028 50.0606 368.028 50.2747C368.028 50.4888 367.853 50.6639 367.639 50.6639Z" fill="#FF6600" fill-opacity="0.08"/>
<path d="M367.639 34.5675H273.966C273.752 34.5675 273.577 34.3923 273.577 34.1782C273.577 33.9641 273.752 33.7889 273.966 33.7889H367.639C367.853 33.7889 368.028 33.9641 368.028 34.1782C368.028 34.3923 367.853 34.5675 367.639 34.5675Z" fill="#FF6600" fill-opacity="0.08"/>
<path d="M287.562 63.6851H279.206V108.841H287.562V63.6851Z" fill="#FF6600" fill-opacity="0.08"/>
<path d="M301.665 56.4641H293.308V108.841H301.665V56.4641Z" fill="#FF6600" fill-opacity="0.08"/>
<path d="M315.767 45.8759H307.411V108.841H315.767V45.8759Z" fill="#FF6600" fill-opacity="0.08"/>
<path d="M329.87 76.8231H321.513V108.841H329.87V76.8231Z" fill="#FF6600" fill-opacity="0.08"/>
<path d="M343.972 47.433H335.616V108.841H343.972V47.433Z" fill="#FF6600" fill-opacity="0.08"/>
<path d="M358.075 80.2487H349.718V108.841H358.075V80.2487Z" fill="#FF6600" fill-opacity="0.08"/>
<path d="M367.639 109.23H273.966C273.752 109.23 273.577 109.055 273.577 108.841C273.577 108.627 273.752 108.452 273.966 108.452H367.639C367.853 108.452 368.028 108.627 368.028 108.841C368.028 109.055 367.853 109.23 367.639 109.23Z" fill="#FF6600" fill-opacity="0.08"/>
<path d="M315.845 121.278H293.308C292.763 121.278 292.334 120.85 292.334 120.305C292.334 119.76 292.763 119.332 293.308 119.332H315.845C316.39 119.332 316.819 119.76 316.819 120.305C316.819 120.83 316.39 121.278 315.845 121.278Z" fill="#FF6600" fill-opacity="0.08"/>
<path d="M359.419 121.278H336.882C336.337 121.278 335.908 120.85 335.908 120.305C335.908 119.76 336.337 119.332 336.882 119.332H359.419C359.964 119.332 360.393 119.76 360.393 120.305C360.393 120.83 359.964 121.278 359.419 121.278Z" fill="#FF6600" fill-opacity="0.08"/>
<path d="M245.625 308.071V302.855H255.578V305.074V308.071L252.072 310.095H248.956L245.625 308.071Z" fill="#FFCEC8"/>
<path d="M245.625 308.071V312.256L270.908 312.197V311.847C270.908 310.952 270.343 310.154 269.486 309.842L255.578 305.054L253.455 307.546C253.455 307.546 250.163 309.94 245.625 308.071Z" fill="#1D2937"/>
<path d="M270.908 312.197V313.735H245.625V312.275L270.908 312.197Z" fill="#1D2937"/>
<path d="M197.532 140.82L198.194 215.755L202.168 302.894H217.089L222.971 168.283C223.03 167.154 223.906 166.259 224.978 166.259C225.99 166.259 226.847 167.057 226.984 168.108L243.268 302.874H257.526V140.82H197.532Z" fill="#1D2937"/>
<path d="M230.685 72.4049C230.685 72.4049 236.684 73.0277 237.307 67.753C237.931 62.4784 238.145 55.0238 238.145 55.0238H215.472V76.6479H230.685V72.4049Z" fill="#FFCEC8"/>
<path d="M232.185 63.6851C232.185 63.6851 228.542 64.9308 228.308 60.7266C228.308 60.7266 228.854 58.2353 231.561 59.481C231.561 59.481 231.211 55.6272 238.067 57.0091C238.632 57.1259 239.47 54.7318 239.547 54.4204C240.658 49.9243 237.716 45.1946 233.509 43.6181C231.113 42.7227 228.211 42.3335 225.659 42.7227C224.607 42.8785 223.556 43.1704 222.621 43.6765C222.017 43.9879 220.147 45.1168 220.147 45.9148V43.0342C216.582 43.0342 213.699 45.9148 213.699 49.4766V68.8041H223.945C226.497 68.8041 228.912 67.6557 230.529 65.6899L232.185 63.6851Z" fill="#384B61"/>
<path d="M191.104 79.295C194.026 76.317 198.097 74.7405 202.285 74.9546L251.722 77.5822L286.179 80.5601L300.924 52.2405L311.521 56.2111L298.548 88.8711C296.873 93.0752 293.581 96.423 289.393 98.1553C287.367 98.9922 285.186 99.4204 283.004 99.4204H258.5L259.162 150.98H195.701V127.584C190.851 127.584 186.916 123.653 186.916 118.806V89.4939C186.916 85.679 188.416 82.0199 191.104 79.295Z" fill="#F1971F"/>
<path d="M195.701 127.584V90.9927L193.675 127.331L195.701 127.584Z" fill="#FF361C"/>
<path d="M215.453 75.6553V74.0009L230.685 74.8378V76.6479L215.453 75.6553Z" fill="#F1971F"/>
<path d="M214.771 302.894H204.642V306.845H214.771V302.894Z" fill="#FFCEC8"/>
<path d="M216.797 311.321H203.006L204.097 306.845H215.141L216.797 311.321Z" fill="#1D2937"/>
<path d="M217.731 313.735H202.09V312.003C202.09 311.321 202.636 310.776 203.317 310.776H216.524C217.206 310.776 217.751 311.321 217.751 312.003V313.735H217.731Z" fill="#1D2937"/>
<path d="M217.731 312.197V313.735H202.09V312.275L217.731 312.197Z" fill="#1D2937"/>
<path d="M309.144 55.3352L309.67 53.1553L312.729 47.2967C313.118 46.9074 313.04 46.2651 312.67 45.9927C312.339 45.7396 311.813 45.798 311.501 46.1678C311.755 45.5839 311.56 44.9611 311.131 44.6886C310.683 44.4161 310.157 44.6497 310.118 44.6691C310.313 44.0074 310.488 43.3651 310.683 42.7033C310.703 42.6254 310.742 42.2362 310.488 41.9053C310.235 41.5939 309.807 41.4576 309.378 41.5549C310.099 40.0757 310.8 38.5965 311.521 37.1172C311.696 36.8447 311.638 36.4749 311.385 36.2608C311.131 36.0467 310.742 36.0662 310.508 36.2997C308.852 38.9663 307.197 41.6523 305.541 44.3188L304.236 46.1678L303.418 49.9243L301.879 52.6882L309.144 55.3352Z" fill="#FFCEC8"/>
<path d="M308.268 44.1241C308.229 44.1241 308.21 44.1241 308.171 44.1047C308.073 44.0463 308.034 43.9295 308.093 43.8516L309.203 41.6912C309.242 41.5938 309.378 41.5549 309.456 41.6133C309.554 41.6717 309.592 41.7885 309.534 41.8663L308.424 44.0268C308.404 44.0852 308.326 44.1241 308.268 44.1241Z" fill="#FFABA1"/>
<path d="M230.685 72.4049C230.685 72.4049 229.263 73.0472 225.737 70.1082C225.737 70.1082 226.906 73.5143 230.685 73.8646V72.4049Z" fill="#FF9B8F"/>
<path d="M197.61 150.98H257.507L197.63 153.393L197.61 150.98Z" fill="#2453FF"/>
<path d="M390.838 118.748C390.838 118.748 385.403 122.738 385.462 129.842C385.52 136.927 386.046 138.095 380.806 140.138C375.547 142.182 373.95 146.523 374.359 149.306C374.768 152.089 375.956 155.437 384.546 154.95C384.546 154.95 385.15 149.753 386.611 148.274C388.072 146.814 391.071 144.109 398.337 142.279L398.785 136.654C398.785 136.654 393.214 136.752 391.675 131.944L390.838 118.748Z" fill="#FDA74C"/>
<path d="M391.344 129.823C391.149 122.894 390.721 117.191 390.721 117.191C390.721 117.191 406.557 112.87 410.199 123.478C410.199 123.478 413.589 123.127 413.511 126.261C413.433 129.375 410.141 129.628 410.141 129.628L411.037 140.878C411.037 140.878 409.732 146.192 403.09 146.639C403.09 146.639 395.902 146.639 397.032 142.455L398.356 142.299L398.804 136.674C398.785 136.674 391.539 136.732 391.344 129.823Z" fill="#FFCEC8"/>
<path d="M410.199 123.478C410.199 123.478 400.596 128.499 395.805 117.891C395.805 117.891 393.876 121.998 390.76 121.998C390.76 121.998 390.565 115.089 390.565 115.05C390.467 111.546 394.032 109.639 396.915 108.88C400.577 107.907 405.524 108.121 408.602 110.593C411.329 112.792 412.537 116.432 413.063 119.76C413.063 119.76 419.491 119.799 420.581 126.65L420.99 132.353C420.99 132.353 434.372 130.251 436.749 138.854C438.209 144.128 437.216 150.415 431.567 150.882L430.535 148.372C429.619 146.153 427.847 143.895 425.724 142.727C423.601 141.54 421.438 140.936 419.315 140.878H411.017L410.121 129.628C410.121 129.628 413.121 129.317 413.491 126.261C413.53 126.241 413.316 123.244 410.199 123.478Z" fill="#FDA74C"/>
<path d="M398.785 136.674C398.785 136.674 403.012 136.985 404.94 133.404C404.94 133.404 404.102 138.212 398.61 138.932L398.785 136.674Z" fill="#FF9B8F"/>
<path d="M422.646 308.752C422.646 311.419 424.808 313.579 427.477 313.579C430.145 313.579 432.307 311.419 432.307 308.752C432.307 306.086 430.145 303.925 427.477 303.925C424.808 303.925 422.646 306.086 422.646 308.752Z" fill="#1D2937"/>
<path d="M428.022 305.599H388.442C387.896 305.599 387.468 305.171 387.468 304.626C387.468 304.081 387.896 303.653 388.442 303.653H428.022C428.568 303.653 428.996 304.081 428.996 304.626C428.996 305.171 428.548 305.599 428.022 305.599Z" fill="#1D2937"/>
<path d="M408.232 304.879C407.687 304.879 407.258 304.451 407.258 303.906V223.054C407.258 222.509 407.687 222.08 408.232 222.08C408.777 222.08 409.206 222.509 409.206 223.054V303.906C409.206 304.451 408.758 304.879 408.232 304.879Z" fill="#1D2937"/>
<path d="M383.747 308.752C383.747 311.419 385.91 313.579 388.578 313.579C391.247 313.579 393.409 311.419 393.409 308.752C393.409 306.086 391.247 303.925 388.578 303.925C385.91 303.925 383.747 306.086 383.747 308.752Z" fill="#1D2937"/>
<path d="M436.398 236.094H376.91V229.905H438.034L436.398 236.094Z" fill="#3661FF"/>
<path d="M437.995 230.099L458.954 159.563H393.487L407.375 230.099H437.995Z" fill="#1D2937"/>
<path d="M381.683 229.905H376.053L366.489 305.852L352.075 307.448L356.516 303.984L352.854 235.004C352.815 234.362 352.835 233.72 352.776 233.077C351.549 217.37 364.951 207.658 364.951 207.658C364.951 207.658 383.221 204.446 381.683 229.905Z" fill="#FFC1BA"/>
<path d="M367.483 298.592L368.846 303.789C369.177 305.074 368.437 306.397 367.191 306.728L345.959 312.587C344.81 312.898 343.953 311.477 344.79 310.601L357.14 301.512L367.483 298.592Z" fill="#FF5640"/>
<path d="M367.483 298.592L364.814 301.356C364.814 301.356 360.334 306.825 352.543 304.918L357.12 301.531L367.483 298.592Z" fill="#FFC1BA"/>
<path d="M405.856 185.508L396.564 189.946L387.682 194.267L408.446 194.442L405.856 185.508Z" fill="#FFCEC8"/>
<path d="M429.912 200.651C429.912 200.651 438.735 221.088 426.542 229.905H387.682C387.682 229.905 386.806 206.743 364.951 207.677L376.794 200.651H429.912Z" fill="#F1971F"/>
<path d="M387.682 229.905H382.053L372.489 305.852L357.412 308.752L361.62 304.159L358.776 235.9C358.464 231.404 359.165 226.907 360.782 222.762C361.815 220.095 363.334 217.623 365.067 215.346L370.56 208.106C370.541 208.106 386.669 209.273 387.682 229.905Z" fill="#FFCEC8"/>
<path d="M426.62 189.557L428.626 194.831L410.784 194.442L426.62 189.557Z" fill="#384B61"/>
<path d="M319.955 202.617H473.446C475.589 202.617 477.342 200.865 477.342 198.724C477.342 196.583 475.589 194.831 473.446 194.831H319.955C317.812 194.831 316.059 196.583 316.059 198.724C316.059 200.865 317.793 202.617 319.955 202.617Z" fill="#FDA74C"/>
<path d="M321.455 312.684C321.396 312.684 321.338 312.684 321.299 312.664C320.773 312.567 320.403 312.08 320.5 311.535L338.888 203.006C338.986 202.481 339.473 202.111 340.018 202.208C340.544 202.305 340.914 202.792 340.817 203.337L322.429 311.866C322.331 312.353 321.922 312.684 321.455 312.684Z" fill="#1D2937"/>
<path d="M474.128 312.684C473.66 312.684 473.251 312.353 473.174 311.866L454.786 203.337C454.688 202.811 455.058 202.305 455.584 202.208C456.11 202.111 456.617 202.481 456.714 203.006L475.102 311.535C475.199 312.061 474.829 312.567 474.303 312.664C474.225 312.684 474.167 312.684 474.128 312.684Z" fill="#1D2937"/>
<path d="M411.076 141.073H419.763C423.64 141.073 427.321 142.727 429.892 145.627C431.178 147.087 432.152 148.8 432.717 150.649L440.118 174.803C441.209 178.346 440.469 182.199 438.151 185.08C436.593 187.026 434.411 188.389 431.976 188.973L408.466 194.462L403.849 186.481L396.564 189.965L388.169 194.033L386.806 184.574L384.312 194.209H356.536L356.283 192.068L373.541 186.326L378.663 155.846C379.073 153.374 380.105 151.019 381.624 149.033C384.293 145.549 388.286 143.369 392.649 143.019L396.681 142.688C396.681 142.688 400.265 145.18 404.219 144.635C404.239 144.635 409.245 144.226 411.076 141.073Z" fill="#384B61"/>
<path d="M403.849 187.065C403.635 187.065 403.421 186.949 403.323 186.734C403.187 186.442 403.304 186.092 403.596 185.956L422.88 176.769L416.725 156.741C416.627 156.429 416.803 156.099 417.114 156.001C417.426 155.904 417.757 156.079 417.835 156.391L424.146 176.905C424.224 177.178 424.107 177.47 423.834 177.606L404.083 187.007C404.025 187.046 403.927 187.065 403.849 187.065Z" fill="#212B38"/>
<path d="M386.806 185.158C386.533 185.158 386.28 184.963 386.241 184.671L384.429 174.511C384.371 174.2 384.585 173.888 384.897 173.83C385.208 173.772 385.52 173.986 385.578 174.297L387.39 184.457C387.448 184.769 387.234 185.08 386.922 185.138C386.883 185.158 386.844 185.158 386.806 185.158Z" fill="#212B38"/>
<path d="M388.617 176.341C387.195 176.341 385.793 175.854 384.663 174.901C382.968 173.499 382.131 171.339 382.423 169.178L384.604 152.751C384.643 152.42 384.936 152.225 385.267 152.245C385.578 152.284 385.812 152.576 385.773 152.907L383.592 169.334C383.358 171.105 384.04 172.857 385.423 174.005C386.767 175.115 388.539 175.465 390.175 174.939L390.448 175.465L390.623 176.029L390.448 175.465L390.545 176.049C389.903 176.224 389.26 176.341 388.617 176.341Z" fill="#212B38"/>
<path d="M409.284 194.831C409.011 194.831 408.777 194.656 408.719 194.384C408.641 194.072 408.836 193.761 409.147 193.683L426.094 189.712C426.405 189.635 426.717 189.829 426.795 190.141C426.873 190.452 426.678 190.763 426.367 190.841L409.42 194.812C409.362 194.831 409.323 194.831 409.284 194.831Z" fill="#212B38"/>
<path d="M401.356 194.831H382.949V191.328H397.85C399.778 191.308 401.356 192.885 401.356 194.831Z" fill="#293545"/>
<path d="M385.169 194.831H332.051L323.617 168.224C322.857 165.85 324.63 163.436 327.123 163.436H372.528C374.125 163.436 375.547 164.468 376.034 166.006L385.169 194.831Z" fill="#293545"/>
<path d="M348.491 180.467C349.309 181.907 351.023 182.452 352.309 181.713C353.595 180.973 353.965 179.221 353.127 177.781C352.289 176.341 350.595 175.796 349.309 176.535C348.043 177.275 347.673 179.046 348.491 180.467Z" fill="#526985"/>
<path d="M373.404 299.896L374.534 305.171C374.865 306.455 374.125 307.779 372.878 308.11L351.647 313.968C350.497 314.28 349.64 312.84 350.478 311.983L361.912 303.069L373.404 299.896Z" fill="#F1971F"/>
<path d="M373.151 299.955L370.482 302.718C370.482 302.718 365.671 308.11 357.88 306.202L361.892 303.088L373.151 299.955Z" fill="#FFCEC8"/>
<path d="M101.074 218.285C95.2113 239.617 103.607 264.433 107.541 286.856L119.91 285.474C119.91 285.474 122.209 209.877 121.488 207.58C114.573 210.091 107.463 209.526 100.334 211.161C100.354 211.181 101.055 218.266 101.074 218.285Z" fill="#FFCEC8"/>
<path d="M61.5328 282.554L53.8583 301.94L45.8721 299.818L49.7873 280.004C49.7873 280.004 56.4684 281.133 61.5328 282.554Z" fill="#FFCEC8"/>
<path d="M45.9889 298.378L44.119 302.971C43.6515 304.1 44.1384 305.404 45.1903 305.871L62.9742 313.91C63.9482 314.338 64.8636 313.131 64.2598 312.236L55.436 302.64L45.9889 298.378Z" fill="#384B61"/>
<path d="M45.9889 298.378L47.9562 301.239C47.9562 301.239 51.4624 306.786 58.5136 306.008L54.1699 300.597L45.9889 298.378Z" fill="#FFCEC8"/>
<path d="M119.93 284.812L120.28 306.125L112.119 307.448L107.541 286.856C107.541 286.856 114.729 285.59 119.93 284.812Z" fill="#FFCEC8"/>
<path d="M111.671 306.086L111.749 311.068C111.768 312.295 112.703 313.287 113.852 313.307L133.292 313.404C134.344 313.404 134.714 311.925 133.818 311.341L121.994 306.144L111.671 306.086Z" fill="#384B61"/>
<path d="M111.671 306.086L114.592 307.896C114.592 307.896 119.969 311.555 126.124 307.954L120.027 304.762L111.671 306.086Z" fill="#FFCEC8"/>
<path d="M100.685 153.997L105.749 160.108L85.0824 226.615L71.7201 222.548L62.1951 219.647C65.6623 192.535 66.4219 174.278 69.8696 158.317C71.6032 150.279 76.9988 143.681 84.3227 140.683L89.2313 138.679L100.685 153.997Z" fill="#FFCEC8"/>
<path d="M85.0824 226.615L61.1432 283.488L49.7872 280.004C54.501 260.249 58.0851 242.751 63.9092 219.239H75.3236L85.0824 226.615Z" fill="#FFCEC8"/>
<path d="M120.417 189.537C122.053 195.24 123.26 201.079 123.708 207.016C124.176 213.283 124.195 220.154 121.644 226.012C116.462 221.788 94.5685 216.942 88.9002 219.609C81.771 222.976 73.9406 224.358 66.1103 223.229C56.3125 221.808 48.0341 218.246 42.288 209.76C38.5676 204.271 35.1004 195.96 35.5679 189.206C37.4962 189.849 39.1909 190.588 41.3335 189.751C45.2682 188.214 47.7225 184.146 51.0338 181.713C56.819 177.45 60.0719 170.638 62.6625 163.962C65.2532 157.266 67.4932 150.279 71.9733 144.673C72.8693 143.545 73.9017 142.455 75.2262 141.91C77.7584 140.859 80.6218 139.535 83.193 140.45C89.3871 142.649 95.0554 135.993 99.3797 141.501C101.756 144.518 103.392 148.021 104.989 151.486C106.606 154.989 108.651 158.356 110.093 161.899C113.521 170.385 117.125 178.813 119.813 187.591C120.027 188.194 120.222 188.875 120.417 189.537Z" fill="#F1971F"/>
<path d="M107.444 71.3538C105.243 70.6141 104.269 67.0328 104.269 67.0328C104.522 63.7435 103.801 61.6803 102.964 60.4152L86.5822 59.7534L86.1537 71.9571L84.4201 87.7422L98.0356 88.2093L97.3928 80.9494C97.3928 80.9494 97.4902 80.9688 97.6266 80.9883L102.126 81.5722L103.081 81.7668C103.529 81.8057 103.977 81.7279 104.366 81.5333C105.963 80.8326 105.885 74.6431 105.885 74.6431L106.002 73.5337C107.911 72.7941 107.444 71.3538 107.444 71.3538Z" fill="#FFCEC8"/>
<path d="M97.4123 80.9493L91.1987 79.5285L97.4708 82.5259L97.4123 80.9493Z" fill="#FF897A"/>
<path d="M93.3413 68.8235C93.3413 68.8235 96.2241 67.8503 98.172 64.8724C99.6134 62.673 99.516 60.7655 99.516 60.7655C99.516 60.7655 103.1 61.2521 104.269 66.663C104.269 66.663 106.041 61.4078 102.048 57.4373C99.0096 54.4204 83.1735 51.8901 79.2583 64.8334C76.8819 72.6968 86.0174 77.913 85.2772 79.8594C85.2772 79.8594 91.4519 78.9057 90.0105 73.4169L93.3413 68.8235Z" fill="#5C403A"/>
<path d="M99.516 60.7656C99.516 60.7656 100.841 70.0887 93.3023 73.2223C93.3023 73.2223 93.3413 69.6799 89.952 68.3953L99.516 60.7656Z" fill="#5C403A"/>
<path d="M93.7504 74.9157C92.1142 76.064 90.439 76.4727 89.0755 74.5264C87.712 72.58 87.1861 68.9987 88.8028 67.8503C90.439 66.702 92.8543 67.3637 94.2179 69.3101C95.6008 71.2759 95.3866 73.7868 93.7504 74.9157Z" fill="#FFCEC8"/>
<path d="M87.3224 76.2392C87.1471 80.4044 83.641 83.6548 79.4725 83.4797C75.3041 83.3045 72.0512 79.801 72.2265 75.6358C72.4018 71.4706 75.908 68.2201 80.0764 68.3953C84.2448 68.5705 87.4977 72.0739 87.3224 76.2392Z" fill="#5C403A"/>
<path d="M84.8292 70.6336C84.7512 70.6336 84.6539 70.5947 84.5954 70.5363C82.3359 68.1034 79.3167 68.7067 79.2972 68.7067C79.1219 68.7457 78.9661 68.6289 78.9272 68.4537C78.8882 68.2785 79.0051 68.1228 79.1804 68.0839C79.3167 68.045 82.5696 67.4027 85.0824 70.0887C85.1993 70.2249 85.1993 70.4195 85.0629 70.5363C84.985 70.6142 84.9071 70.6336 84.8292 70.6336Z" fill="white"/>
<path d="M106.08 113.22L125.364 158.317L120.475 161.548L98.5421 138.795L106.08 113.22Z" fill="#FFCEC8"/>
<path d="M121.137 153.997L118.001 158.882L129.766 172.117C130.058 172.351 130.448 172.351 130.721 172.156C131.071 171.942 131.149 171.475 130.954 171.105C131.714 171.923 132.454 172.701 133.214 173.519C133.214 173.538 133.701 173.791 134.149 173.577C134.519 173.363 134.733 172.857 134.558 172.39C134.831 172.701 135.103 173.013 135.357 173.324C135.824 173.558 136.389 173.519 136.779 173.168C137.168 172.837 137.207 172.39 137.012 171.884C136.603 171.436 136.214 170.969 135.824 170.541L133.253 167.621L136.428 169.723C136.915 170.035 137.402 170.074 137.772 169.626C138.123 169.178 138.006 168.653 137.597 168.224C135.435 166.239 133.545 164.001 131.383 161.977L133.039 162.677C133.389 162.852 133.798 162.93 134.207 162.872C134.772 162.794 135.259 162.483 135.551 162.054L132.162 160.05L128.792 158.103C128.091 157.695 127.273 157.558 126.494 157.714L124.955 158.006L121.137 153.997Z" fill="#FFCEC8"/>
<path d="M81.4009 91.3235L76.1612 142.552L99.3797 141.442C99.1459 136.83 104.775 117.522 104.775 117.522L109.061 112.558C109.664 111.429 110.015 110.242 110.132 109.016C110.405 106.096 108.885 103.372 106.528 101.62C103.568 99.4399 101.639 92.8806 98.3473 88.6375C85.5499 88.1899 84.6149 85.4066 84.6149 85.4066C83.0566 89.6107 81.4009 91.3235 81.4009 91.3235Z" fill="#384B61"/>
<path d="M87.8678 87.2946C87.8678 87.2946 90.1273 89.9611 94.4905 93.4645C95.9904 94.6518 99.5939 97.4935 102.009 96.968L103.022 96.8512C102.107 94.7491 99.964 90.0389 98.0356 88.2094L87.8678 87.2946Z" fill="#FFCEC8"/>
<path d="M99.4053 163.957L68.0706 158.277L63.6688 182.521L95.0036 188.202L99.4053 163.957Z" fill="white"/>
<path d="M89.991 188.486L50.9365 181.401C50.1573 181.265 49.6509 180.525 49.7872 179.747L54.1115 155.982C54.2478 155.203 54.988 154.697 55.7672 154.833L94.8217 161.918C95.6008 162.054 96.1073 162.794 95.9709 163.573L91.6467 187.357C91.4909 188.116 90.7701 188.622 89.991 188.486Z" fill="#384B61"/>
<path d="M89.7962 90.1362C89.3287 89.8637 88.8807 89.6302 88.4522 89.455C86.6796 88.6959 84.2253 88.3845 82.4528 89.3382C80.7581 90.2335 79.4531 92.141 78.6934 93.8538C77.5637 96.4035 77.3299 99.2257 76.9014 101.951C76.1028 106.953 75.3041 111.955 74.525 116.957C74.0185 120.091 73.5316 123.224 73.0251 126.358C73.0251 126.378 73.0251 126.416 73.0057 126.436L68.3308 173.382L75.3626 174.141C75.3626 174.141 84.9655 145.705 87.7315 137.511C88.2184 136.051 88.5885 134.572 88.8612 133.073C89.7183 128.032 90.5948 122.991 91.4519 117.95C92.3674 112.636 93.2829 107.323 94.1789 101.99C94.6464 99.2647 94.8022 96.676 93.7504 94.0679C93.0686 92.4913 91.4129 91.0705 89.7962 90.1362Z" fill="#FFCEC8"/>
<path d="M92.9712 114.31C93.6725 110.242 94.3737 106.155 95.0554 102.087C95.5619 99.0895 95.7372 96.2284 94.588 93.3867C93.8867 91.6544 92.0752 90.0973 90.2832 89.0463C89.7767 88.7543 89.2703 88.5013 88.8028 88.2872C86.8355 87.4503 84.1669 87.1194 82.1996 88.1509C80.3491 89.1436 78.9077 91.2262 78.0701 93.1142C76.8235 95.9169 76.5897 99.0117 76.1028 102.009C75.46 106.096 74.7977 110.203 74.1549 114.291H92.9712V114.31Z" fill="#384B61"/>
<path d="M69.0516 171.027L68.4282 173.129L65.0195 178.384C64.8442 178.462 64.1819 180.564 63.7339 182.044C63.4807 182.861 63.7729 183.932 64.4546 184.457L66.5778 185.547C67.1037 185.761 67.6686 185.8 68.2334 185.664L70.9215 185.002L68.5841 184.165C69.0905 183.698 69.6164 183.231 70.1229 182.764L72.2071 180.701L72.5577 181.012L72.285 182.881C72.1876 183.484 72.246 184.107 72.4603 184.691C72.7135 185.372 73.4342 185.761 74.1549 185.586L74.0186 183.056C74.0186 183.056 74.525 180.097 74.5445 179.98C74.564 179.883 75.2652 175.329 75.2652 175.329L76.0638 172L69.0516 171.027Z" fill="#FFCEC8"/>
<path d="M93.2244 113.337C93.1855 113.337 93.166 113.337 93.1271 113.337C92.8933 113.298 92.7375 113.064 92.7764 112.811C92.7959 112.675 95.4839 99.5177 95.0554 96.4425C95.0165 96.2089 95.1918 95.9753 95.4255 95.9364C95.6787 95.8975 95.893 96.0726 95.932 96.3062C96.3994 99.5372 93.7698 112.422 93.653 112.967C93.614 113.201 93.4192 113.337 93.2244 113.337Z" fill="#384B61"/>
<path d="M519.026 315H0.973929C0.428529 315 0 314.572 0 314.027C0 313.482 0.428529 313.054 0.973929 313.054H519.026C519.571 313.054 520 313.482 520 314.027C520 314.572 519.571 315 519.026 315Z" fill="#FF6600" fill-opacity="0.08"/>
</g>
<defs>
<clipPath id="clip0_14_11">
<rect width="520" height="315" fill="white"/>
</clipPath>
</defs>
</svg>
