<svg width="635" height="235" viewBox="0 0 635 235" fill="none" xmlns="http://www.w3.org/2000/svg">
<g clip-path="url(#clip0_14_1175)">
<path d="M61.2311 94.0426C60.3767 93.0793 59.3916 92.2358 58.3086 91.5337C56.8555 90.5922 55.2283 89.9065 53.4758 89.5473C52.5398 89.3568 51.5656 89.2534 50.5697 89.2534H27.5325H14.2588C6.38377 89.2534 -3.05176e-05 95.6372 -3.05176e-05 103.512V115.317V140.177V144.661C-3.05176e-05 145.314 0.04895 145.967 0.136027 146.61C0.331949 148.041 0.745562 149.429 1.3551 150.724C2.08436 152.281 3.09663 153.706 4.35924 154.925L16.4846 166.61L21.0725 171.029L22.5201 172.428C28.0441 177.75 36.7898 177.75 42.3083 172.428L60.4637 154.925C63.2502 152.237 64.8285 148.531 64.8285 144.661V129.603V120.84V103.512C64.8285 99.8768 63.4679 96.5624 61.2311 94.0426ZM59.925 134.245V144.656C59.925 147.181 58.88 149.636 57.0623 151.393L38.9069 168.896C37.1544 170.583 34.8469 171.514 32.4142 171.514C29.9815 171.514 27.674 170.583 25.9216 168.896L24.6372 167.655L20.0493 163.236L7.76611 151.393C6.53071 150.207 5.66539 148.694 5.23 147.056C5.0232 146.278 4.90347 145.472 4.90347 144.661V142.098V135.535V110.674V103.512C4.90347 98.3529 9.09947 94.1569 14.2588 94.1569H22.3514H48.6104H50.5697C52.0064 94.1569 53.3616 94.4889 54.5752 95.0712C55.7616 95.6372 56.812 96.4372 57.6555 97.4223C59.0651 99.0604 59.925 101.183 59.925 103.512V125.488V134.245Z" fill="#B53330"/>
<path d="M33.6115 124.394C34.749 124.394 35.6633 124.062 36.3599 123.404C37.051 122.745 37.3993 121.76 37.3993 120.459C37.3993 119.186 37.0619 118.217 36.4034 117.542C36.3871 117.526 36.3762 117.504 36.3599 117.488C35.6687 116.808 34.749 116.47 33.6115 116.47H31.9679H28.4413V119.812V124.4H29.1652H33.6115V124.394Z" fill="#FB7676"/>
<path d="M57.661 97.4221C56.812 96.4371 55.7616 95.6316 54.5806 95.071C53.367 94.4887 52.0119 94.1567 50.5751 94.1567H48.6159H22.3514H14.2588C9.09947 94.1567 4.90347 98.3527 4.90347 103.512V110.674V135.534V142.092V144.656C4.90347 145.472 5.0232 146.272 5.23001 147.05C5.66539 148.688 6.53072 150.201 7.76611 151.388L20.0493 163.23L24.6372 167.649L25.9216 168.89C27.674 170.577 29.9815 171.508 32.4142 171.508C34.8469 171.508 37.1544 170.577 38.9069 168.89L57.0623 151.388C58.88 149.635 59.925 147.181 59.925 144.65V134.245V125.483V103.512C59.925 101.188 59.0705 99.0602 57.661 97.4221ZM43.3314 143.714C41.9926 144.928 40.2783 145.701 38.1939 146.06C37.7857 146.131 37.3667 146.19 36.9313 146.229V147.257V151.687H32.4142V151.535V146.299H30.0632V151.687H25.5461V146.299H20.5446V132.557V127.289V120.726V109.694H25.5461V104.307H30.0632V109.694H32.1965H32.4142V109.493V104.307H36.9313V105.215V109.858C37.5027 109.945 38.0524 110.065 38.5749 110.217C39.9354 110.614 41.1273 111.246 42.1505 112.105C42.2702 112.203 42.3899 112.301 42.4988 112.405C44.4525 114.212 45.4322 116.508 45.4322 119.289C45.4322 123.425 43.2933 126.223 39.0157 127.681C41.1981 128.03 42.9396 129.053 44.2349 130.756C45.5301 132.46 46.1723 134.457 46.1723 136.753C46.1723 137.417 46.1179 138.049 46.0199 138.653C45.6825 140.694 44.7954 142.386 43.3314 143.714Z" fill="#FB7676"/>
<path d="M34.4932 131.175H28.4413V139.518H34.3952C35.4728 139.518 36.3653 139.154 37.0728 138.424C37.7803 137.695 38.1341 136.688 38.1341 135.399C38.1341 134.114 37.7966 133.086 37.1163 132.324C36.4469 131.556 35.5653 131.175 34.4932 131.175Z" fill="#FB7676"/>
<path d="M44.2348 130.756C42.9396 129.053 41.2035 128.03 39.0157 127.681C43.2933 126.223 45.4322 123.425 45.4322 119.289C45.4322 116.508 44.4525 114.217 42.4988 112.405C42.3845 112.301 42.2647 112.203 42.1505 112.105C41.1273 111.251 39.9409 110.614 38.5749 110.217C38.0524 110.065 37.5027 109.945 36.9313 109.858V105.216V104.307H32.4142V109.493V109.695H32.1965H30.0631V104.307H25.546V109.695H20.5446V120.726V127.284V132.552V146.288H25.546V151.676H30.0631V146.288H32.4142V151.524V151.676H36.9313V147.246V146.218C37.3667 146.18 37.7857 146.12 38.1939 146.049C40.2729 145.695 41.9926 144.917 43.3314 143.703C44.79 142.375 45.6825 140.688 46.0145 138.647C46.1124 138.043 46.1669 137.412 46.1669 136.748C46.1723 134.457 45.5247 132.46 44.2348 130.756ZM28.4413 124.394V119.806V116.465H31.9679H33.6115C34.7489 116.465 35.6632 116.802 36.3599 117.482C36.3762 117.499 36.3871 117.521 36.4034 117.537C37.0619 118.212 37.3993 119.18 37.3993 120.454C37.3993 121.755 37.051 122.74 36.3599 123.398C35.6687 124.057 34.7489 124.389 33.6115 124.389H29.1652H28.4413V124.394ZM37.0782 138.419C36.3707 139.148 35.4782 139.513 34.4006 139.513H28.4413V131.175H34.4877C35.5653 131.175 36.4415 131.556 37.1218 132.324C37.7966 133.091 38.1395 134.114 38.1395 135.398C38.1395 136.683 37.7857 137.69 37.0782 138.419Z" fill="#FFCBCB"/>
</g>
<g clip-path="url(#clip1_14_1175)">
<path d="M126.228 108.639L126.402 108.987L126.554 108.846L126.228 108.639Z" fill="white"/>
<path d="M168.193 69.4277C167.328 68.4753 166.332 67.6426 165.238 66.9569C163.769 66.0317 162.114 65.3623 160.351 65.0249C159.475 64.8562 158.571 64.7637 157.646 64.7637H134.364H121.335C113.46 64.7637 107.077 71.1475 107.077 79.0225V90.5928V115.453V120.166C107.077 120.754 107.115 121.331 107.185 121.908C107.365 123.355 107.762 124.754 108.355 126.071C109.09 127.693 110.13 129.179 111.436 130.436L123.436 142.001L128.024 146.42L129.597 147.933C135.121 153.255 143.866 153.255 149.385 147.933L167.54 130.43C170.327 127.742 171.905 124.036 171.905 120.166V104.884V96.1221V79.0225C171.905 75.3271 170.501 71.9584 168.193 69.4277ZM167.002 109.521V120.166C167.002 122.691 165.957 125.146 164.139 126.904L145.983 144.406C144.231 146.093 141.923 147.024 139.491 147.024C137.058 147.024 134.751 146.093 132.998 144.406L131.589 143.051L127.001 138.632L114.837 126.909C113.558 125.674 112.671 124.09 112.252 122.387C112.078 121.668 111.975 120.928 111.975 120.177V117.38V110.811V85.9505V79.0225C111.975 73.8632 116.171 69.6672 121.33 69.6672H129.178H155.437H157.641C159.012 69.6672 160.307 69.9719 161.483 70.4998C162.686 71.0441 163.747 71.8332 164.612 72.8074C166.087 74.4618 166.996 76.6333 166.996 79.0225V100.764V109.521H167.002Z" fill="#B57019"/>
<path d="M164.623 72.8072C163.758 71.833 162.691 71.0439 161.494 70.4997C160.318 69.9663 159.023 69.667 157.652 69.667H155.448H129.183H121.335C116.176 69.667 111.98 73.863 111.98 79.0223V85.9503V110.811V117.369V120.166C111.98 120.917 112.083 121.657 112.258 122.376C112.677 124.084 113.564 125.668 114.843 126.898L127.006 138.621L131.594 143.04L133.004 144.395C134.756 146.082 137.064 147.013 139.496 147.013C141.929 147.013 144.236 146.082 145.989 144.395L164.144 126.893C165.962 125.14 167.007 122.686 167.007 120.155V109.521V100.759V79.0223C167.002 76.6331 166.098 74.4616 164.623 72.8072ZM132.204 91.6647L139.491 77.444L142.016 82.3747L144.28 86.7939L146.103 90.3422L153.325 104.438L139.491 113.064L129.009 106.522L125.662 104.432L125.678 104.405L132.204 91.6647ZM139.491 134.528L136.824 129.331L126.402 108.987L126.222 108.639L126.549 108.846L139.485 116.917L152.748 108.639L147.17 119.529L139.491 134.528Z" fill="#FBAE56"/>
<path d="M139.491 113.064L153.325 104.438L146.103 90.3426L144.28 86.7942L142.016 82.375L139.491 77.4443L132.204 91.665L125.673 104.405L125.662 104.438L129.009 106.522L139.491 113.064Z" fill="#FFE1BE"/>
<path d="M126.554 108.846L126.402 108.988L136.829 129.331L139.491 134.529L147.175 119.535L152.759 108.64L139.491 116.917L126.554 108.846Z" fill="#FFE1BE"/>
</g>
<g clip-path="url(#clip2_14_1175)">
<path d="M278.341 91.8169C277.481 90.859 276.496 90.0209 275.407 89.3243C273.949 88.3883 272.311 87.7134 270.553 87.3597C269.638 87.1746 268.691 87.0767 267.723 87.0767H244.588H231.412C223.537 87.0767 217.153 93.4605 217.153 101.335V113.047V137.908V142.485C217.153 143.11 217.197 143.736 217.278 144.351C217.469 145.788 217.877 147.181 218.481 148.487C219.216 150.071 220.233 151.519 221.518 152.754L233.594 164.39L238.182 168.809L239.679 170.251C245.203 175.574 253.948 175.574 259.467 170.251L277.622 152.749C280.409 150.06 281.987 146.354 281.987 142.485V127.333V118.571V101.335C281.982 97.6782 280.605 94.3421 278.341 91.8169ZM277.078 131.976V142.479C277.078 145.004 276.033 147.459 274.215 149.217L256.06 166.719C254.308 168.406 252 169.337 249.567 169.337C247.135 169.337 244.827 168.406 243.075 166.719L241.741 165.435L237.153 161.016L224.919 149.222C223.667 148.014 222.797 146.474 222.367 144.808C222.171 144.052 222.057 143.274 222.057 142.485V139.829V133.265V108.405V101.335C222.057 96.1762 226.253 91.9802 231.412 91.9802H239.407H265.666H267.723C269.132 91.9802 270.466 92.3013 271.663 92.8618C272.855 93.4169 273.911 94.2169 274.765 95.1965C276.202 96.8401 277.078 98.9844 277.078 101.335V123.213V131.976Z" fill="#224588"/>
<path d="M274.771 95.1964C273.916 94.2168 272.86 93.4167 271.668 92.8616C270.471 92.3011 269.138 91.98 267.728 91.98H265.671H239.407H231.412C226.253 91.98 222.057 96.176 222.057 101.335V108.405V133.265V139.823V142.479C222.057 143.268 222.171 144.046 222.367 144.803C222.797 146.468 223.667 148.008 224.919 149.216L237.153 161.01L241.741 165.429L243.075 166.713C244.827 168.401 247.135 169.331 249.567 169.331C252 169.331 254.308 168.401 256.06 166.713L274.215 149.211C276.033 147.459 277.078 145.004 277.078 142.473V131.975V123.213V101.335C277.078 98.9842 276.202 96.8399 274.771 95.1964ZM267.195 141.336C266.852 141.859 266.455 142.354 265.992 142.805C265.448 143.339 264.855 143.774 264.229 144.144C261.361 145.831 257.807 145.804 254.993 144.128C254.21 143.66 253.486 143.072 252.849 142.354C250.525 139.736 249.986 136.144 251.151 133.086C251.51 132.149 251.341 131.094 250.678 130.343C250.046 129.635 249.088 129.314 248.163 129.505C247.178 129.706 246.416 130.451 246.139 131.42C245.241 134.571 242.661 137.124 239.232 137.831C236.462 138.403 233.73 137.635 231.689 135.986C230.699 135.181 229.866 134.174 229.278 132.998C228.87 132.182 228.576 131.29 228.429 130.332C228.261 129.26 228.304 128.188 228.511 127.164C229.186 123.888 231.651 121.091 235.015 120.176C235.385 120.073 235.76 120.008 236.13 119.953C238.187 119.659 240.201 120.084 241.899 121.053C242.862 121.602 243.728 122.326 244.441 123.197C244.555 123.333 244.68 123.458 244.811 123.567C245.431 124.095 246.253 124.34 247.069 124.171C247.994 123.981 248.751 123.311 249.05 122.413C249.333 121.57 249.154 120.661 248.626 119.964C248.555 119.872 248.484 119.785 248.408 119.703C247.575 118.843 246.922 117.825 246.487 116.721C245.73 114.805 245.611 112.623 246.313 110.516C246.345 110.413 246.394 110.315 246.433 110.212C247.45 107.485 249.643 105.515 252.245 104.709C254.286 104.078 256.572 104.154 258.727 105.134C258.738 105.139 258.743 105.139 258.754 105.145C259.957 105.7 260.991 106.505 261.818 107.474C263.576 109.531 264.387 112.34 263.842 115.099C263.064 119.039 259.968 121.76 256.381 122.342C255.385 122.506 254.542 123.175 254.22 124.133C253.921 125.031 254.128 126.021 254.754 126.729C255.423 127.485 256.463 127.768 257.442 127.524C260.789 126.691 264.49 127.801 266.798 130.745C267.14 131.181 267.434 131.649 267.685 132.128C269.192 135.028 268.996 138.599 267.195 141.336Z" fill="#69A4FB"/>
<path d="M267.679 132.111C267.429 131.632 267.135 131.164 266.792 130.729C264.485 127.785 260.784 126.675 257.437 127.507C256.457 127.752 255.418 127.469 254.748 126.713C254.117 126.005 253.916 125.015 254.215 124.117C254.536 123.159 255.374 122.489 256.376 122.326C259.962 121.738 263.059 119.023 263.837 115.082C264.381 112.329 263.565 109.52 261.812 107.458C260.985 106.489 259.951 105.678 258.748 105.129C258.738 105.123 258.732 105.123 258.721 105.118C256.566 104.138 254.28 104.062 252.239 104.693C249.638 105.499 247.439 107.469 246.427 110.195C246.389 110.299 246.34 110.397 246.307 110.5C245.605 112.606 245.725 114.789 246.482 116.704C246.922 117.809 247.57 118.827 248.403 119.687C248.484 119.768 248.555 119.855 248.62 119.948C249.148 120.644 249.328 121.553 249.045 122.397C248.746 123.295 247.989 123.964 247.064 124.155C246.248 124.323 245.431 124.079 244.805 123.551C244.675 123.436 244.544 123.317 244.435 123.181C243.728 122.31 242.862 121.591 241.894 121.036C240.196 120.068 238.182 119.643 236.125 119.937C235.755 119.991 235.385 120.062 235.009 120.16C231.646 121.069 229.181 123.866 228.506 127.148C228.293 128.171 228.255 129.243 228.424 130.315C228.571 131.273 228.865 132.166 229.273 132.982C229.861 134.158 230.693 135.17 231.684 135.97C233.725 137.619 236.451 138.386 239.227 137.815C242.656 137.107 245.235 134.555 246.133 131.404C246.411 130.441 247.173 129.69 248.158 129.488C249.083 129.298 250.046 129.619 250.672 130.326C251.341 131.077 251.505 132.133 251.146 133.069C249.981 136.133 250.514 139.72 252.844 142.337C253.48 143.056 254.204 143.644 254.988 144.112C257.801 145.788 261.355 145.815 264.223 144.128C264.849 143.763 265.442 143.322 265.987 142.789C266.449 142.337 266.847 141.842 267.189 141.32C268.996 138.599 269.192 135.028 267.679 132.111Z" fill="#C6DBFF"/>
</g>
<g clip-path="url(#clip3_14_1175)">
<path d="M392.646 62.1509C391.813 61.1768 390.85 60.3115 389.783 59.5876C388.363 58.6243 386.763 57.9168 385.037 57.5196C384.003 57.2747 382.915 57.144 381.799 57.144H359.181H345.488C337.613 57.144 331.23 63.5278 331.23 71.4028V83.6044V108.465V112.552C331.23 113.325 331.295 114.092 331.42 114.849C331.649 116.258 332.089 117.619 332.721 118.887C333.439 120.34 334.408 121.668 335.594 122.816L347.927 134.702L352.514 139.121L353.755 140.318C359.279 145.641 368.025 145.641 373.543 140.318L391.699 122.816C394.485 120.128 396.064 116.421 396.064 112.552V97.8904V89.1283V71.4028C396.058 67.8708 394.774 64.6435 392.646 62.1509ZM391.155 102.533V112.547C391.155 115.072 390.11 117.526 388.292 119.284L370.136 136.786C368.384 138.474 366.077 139.404 363.644 139.404C361.211 139.404 358.904 138.474 357.151 136.786L356.074 135.747L351.486 131.328L338.996 119.289C337.842 118.179 337.004 116.786 336.541 115.268C336.275 114.391 336.133 113.477 336.133 112.552V110.386V103.823V78.9622V71.4028C336.133 66.2435 340.329 62.0475 345.488 62.0475H354H380.259H381.799C383.345 62.0475 384.798 62.4285 386.082 63.0925C387.242 63.6911 388.259 64.5238 389.076 65.5306C390.376 67.1361 391.155 69.1769 391.155 71.3974V93.7652V102.533Z" fill="#4647B9"/>
<path d="M389.076 65.5304C388.259 64.5236 387.242 63.6909 386.082 63.0923C384.798 62.4283 383.345 62.0474 381.799 62.0474H380.259H354H345.488C340.329 62.0474 336.133 66.2434 336.133 71.4027V78.962V103.822V110.38V112.546C336.133 113.472 336.275 114.386 336.541 115.262C337.004 116.775 337.842 118.168 338.996 119.284L351.486 131.322L356.074 135.741L357.151 136.781C358.904 138.468 361.211 139.399 363.644 139.399C366.077 139.399 368.384 138.468 370.136 136.781L388.292 119.278C390.11 117.526 391.155 115.072 391.155 112.541V102.533V93.7704V71.4027C391.155 69.1822 390.376 67.1413 389.076 65.5304ZM379.987 106.816L376.02 115.921H367.758H353.935C350.109 115.921 347.589 111.926 349.244 108.475L353.576 99.4195L353.211 99.4848L347.301 100.53V99.8059V94.1405L354.664 92.8344L356.912 92.4371L358.425 89.2751L364.161 77.2858L365.891 73.6666H367.981H374.909H375.981L372.259 81.4437L367.932 90.4887L376.009 89.0574V95.4467L364.591 97.4657L360.128 106.816H377.375H379.987Z" fill="#9497FF"/>
<path d="M377.375 106.816H360.128L364.602 97.4661L376.02 95.447V89.0578L367.943 90.4891L372.27 81.444L375.992 73.667H374.92H367.987H365.897L364.166 77.2861L358.43 89.2755L356.917 92.4374L354.67 92.8347L347.306 94.1409V99.8063V100.53L353.216 99.4852L353.581 99.4199L349.244 108.476C347.589 111.926 350.109 115.921 353.935 115.921H367.758H376.02L379.987 106.816H377.375Z" fill="#D6D7FF"/>
</g>
<g clip-path="url(#clip4_14_1175)">
<path d="M588.393 13.3132L567.517 4.77246L565.955 8.58281C527.226 7.3638 485.291 39.2649 464.819 89.1597C444.346 139.058 451.813 191.165 480.266 217.435L478.703 221.245L499.579 229.786C543.302 247.672 598.627 213.717 623.153 153.936C647.679 94.1623 632.116 31.1995 588.393 13.3132Z" fill="#CF931D"/>
<path d="M602.265 145.402C626.79 85.6263 611.228 22.6682 567.507 4.78081C523.787 -13.1066 468.462 20.8504 443.937 80.6259C419.412 140.401 434.974 203.359 478.695 221.247C522.416 239.134 577.74 205.177 602.265 145.402Z" fill="#FBC03D"/>
<path d="M504.83 216.872C496.888 217.075 489.264 215.706 482.162 212.801C463.786 205.283 450.446 188.114 444.6 164.454C438.496 139.756 441.264 111.213 452.396 84.0807C461.414 62.1041 474.988 43.2862 491.648 29.6663C507.322 16.8553 524.984 9.56808 541.379 9.14642C549.322 8.94325 556.945 10.3118 564.047 13.2174C582.423 20.7346 595.763 37.9042 601.609 61.5636C607.713 86.2618 604.945 114.805 593.813 141.937C584.796 163.914 571.222 182.732 554.561 196.352C538.892 209.167 521.229 216.454 504.83 216.872Z" fill="#FBC03D"/>
<path d="M451.421 167.065C445.333 142.428 448.097 113.946 459.206 86.8674C470.316 59.7887 488.358 37.5591 510.009 24.2689C529.479 12.3165 549.629 9.05816 567.168 14.9308C566.108 14.4133 565.034 13.9303 563.94 13.4818C545.652 5.99915 524.174 8.87799 503.464 21.5894C481.817 34.8796 463.775 57.113 452.665 84.1917C441.556 111.27 438.792 139.752 444.88 164.389C450.703 187.957 463.986 205.057 482.274 212.54C483.368 212.988 484.473 213.395 485.59 213.77C468.968 205.659 456.899 189.222 451.421 167.065Z" fill="#CF931D"/>
<path d="M558.838 137.176C557.402 130.338 553.821 125.251 548.143 121.908C562.143 121.598 572.001 114.763 577.483 101.396C581.168 92.4143 581.352 84.0883 578.066 76.4753C575.844 71.3348 572.197 67.2906 567.156 64.3389L573.951 47.775L566.504 44.7275L552.174 41.4423L544.101 38.1418L543.467 38.9123L538.561 37.4863L532.323 52.6932L521.252 49.3045L475.594 160.606L486.204 165.11L479.966 180.317L492.865 186.009L499.179 170.618L506.465 173.712L500.108 189.206L513.502 195.117L520.108 179.013C526.965 180.8 533.333 180.436 539.187 177.863C546.792 174.521 552.561 168.115 556.439 158.662C559.487 151.233 560.285 144.061 558.838 137.176ZM533.617 76.7321L547.686 81.336C550.83 82.3633 552.938 84.2646 553.989 87.04C555.045 89.823 554.727 93.2845 553.034 97.413C551.341 101.542 549.099 104.317 546.32 105.735C543.548 107.15 540.604 107.303 537.487 106.203L523.544 101.289L533.617 76.7321ZM553.46 59.1639L551.667 58.6157L554.189 57.3891L553.46 59.1639ZM528.807 153.94C525.928 155.477 523.034 155.657 520.128 154.488L504.32 148.136L514.926 122.288L531.141 128.356C534.078 129.456 535.986 131.564 536.857 134.685C537.728 137.816 537.329 141.424 535.655 145.502C533.978 149.585 531.694 152.399 528.807 153.94Z" fill="#CF931D"/>
<path d="M551.943 134.355C550.396 127.47 546.673 122.322 540.811 118.911C555.168 118.746 565.203 111.984 570.688 98.6206C574.373 89.6391 574.477 81.2786 571.022 73.5965C568.688 68.41 564.903 64.3122 559.705 61.2915L566.5 44.7276L551.959 40.4534L545.602 55.9478L537.782 53.5328L544.097 38.1419L530.097 34.0249L523.859 49.2318L512.469 45.7128L466.815 157.014L477.744 161.648L471.506 176.855L484.796 182.709L491.11 167.318L498.615 170.5L492.258 185.994L506.059 192.07L512.665 175.966C519.713 177.833 526.243 177.53 532.22 175.012C539.986 171.734 545.836 165.359 549.713 155.91C552.761 148.481 553.502 141.286 551.943 134.355ZM525.441 73.3857L539.917 78.1544C543.153 79.22 545.333 81.152 546.439 83.9504C547.548 86.7564 547.26 90.2294 545.567 94.3579C543.874 98.4864 541.606 101.25 538.769 102.646C535.943 104.037 532.922 104.16 529.713 103.025L515.364 97.9459L525.441 73.3857ZM521.322 150.877C518.385 152.391 515.417 152.54 512.423 151.337L496.143 144.793L506.75 118.945L523.444 125.209C526.469 126.343 528.446 128.482 529.375 131.622C530.3 134.773 529.928 138.395 528.258 142.474C526.581 146.56 524.266 149.359 521.322 150.877Z" fill="#FDD77E"/>
<g opacity="0.52">
<path d="M588.393 13.3133L567.517 4.7726C555.966 0.0460879 543.606 -1.05792 531.218 0.973758L469.947 38.092C459.567 50.0099 450.611 64.3581 443.94 80.6192C440.316 89.4474 437.575 98.3484 435.663 107.161L589.667 13.8615C589.245 13.6775 588.822 13.4896 588.393 13.3133Z" fill="#FFEBC2"/>
<path d="M432.327 136.897L610.838 28.7502C609.11 26.937 607.298 25.2273 605.398 23.625L432.642 128.287C432.446 131.181 432.343 134.056 432.327 136.897Z" fill="#FFEBC2"/>
<path d="M450.247 198.629L634.393 87.0668C633.836 79.7796 632.661 72.7569 630.895 66.1099L440.592 181.405C443.214 187.661 446.442 193.442 450.247 198.629Z" fill="#FFEBC2"/>
<path d="M478.7 221.249L489.951 225.853L627.306 142.639C628.811 138.016 630.082 133.389 631.126 128.789L478.584 221.2C478.623 221.215 478.661 221.234 478.7 221.249Z" fill="#FFEBC2"/>
</g>
</g>
<defs>
<clipPath id="clip0_14_1175">
<rect width="64.8285" height="87.1636" fill="white" transform="translate(-3.05176e-05 89.2534)"/>
</clipPath>
<clipPath id="clip1_14_1175">
<rect width="64.8285" height="87.1636" fill="white" transform="translate(107.077 64.7637)"/>
</clipPath>
<clipPath id="clip2_14_1175">
<rect width="64.8285" height="87.1636" fill="white" transform="translate(217.153 87.0767)"/>
</clipPath>
<clipPath id="clip3_14_1175">
<rect width="64.8285" height="87.1636" fill="white" transform="translate(331.23 57.144)"/>
</clipPath>
<clipPath id="clip4_14_1175">
<rect width="202.453" height="234.562" fill="white" transform="translate(432.32)"/>
</clipPath>
</defs>
</svg>
