<svg id="Layer_1" data-name="Layer 1" xmlns="http://www.w3.org/2000/svg" viewBox="0 0 228 232.33"><defs><style>.cls-1{fill:#1e2938;}.cls-2{fill:#ed8721;}</style></defs><path class="cls-1" d="M117.14,87.05c-43,45.75-56.77,5.1-87.6,5.69a23.78,23.78,0,1,0,0,47.56c30.83.59,44.58-40.07,87.6,5.68,0,0,9.82,10.41,27.9,10.41a39.87,39.87,0,1,0,0-79.74h0C127,76.65,117.14,87.05,117.14,87.05Z"/><path class="cls-2" d="M210.53,162.33a26.44,26.44,0,0,0-15-4.63,28.06,28.06,0,0,0-17.11,5.92,56.86,56.86,0,0,1-35.17,12c-1,0-2.08,0-3.14-.09A57.49,57.49,0,1,1,178.7,72.89a27.24,27.24,0,0,0,16.64,5.74,26.94,26.94,0,0,0,26.88-26.07A26.18,26.18,0,0,0,212.3,31,111,111,0,0,0,32.15,113.82v.07c-.07,2-.09,4-.06,6.16a111.21,111.21,0,0,0,180,85.44,26.52,26.52,0,0,0,10.13-21.84A26.79,26.79,0,0,0,210.53,162.33ZM207.81,200A104.24,104.24,0,0,1,39.05,120.27v-6.16A104.27,104.27,0,0,1,208,36.41a19.3,19.3,0,0,1,7.32,15.93A20,20,0,0,1,183,67.43a64.66,64.66,0,0,0-39.75-13.72,63.78,63.78,0,0,0-37,11.65,65.24,65.24,0,0,0-9.44,8.12,64,64,0,0,0-18,46.52v.71a64.16,64.16,0,0,0,18.52,42.63c.38.38.77.76,1.15,1.11a64,64,0,0,0,41.21,18c1.16.07,2.34.1,3.5.1a63.77,63.77,0,0,0,39.42-13.48,21.23,21.23,0,0,1,12.86-4.47,19.52,19.52,0,0,1,11.1,3.47A19.86,19.86,0,0,1,207.81,200Z"/><path class="cls-2" d="M39.05,120.31v-6.16a104.93,104.93,0,0,1,2.57-19.57,39.34,39.34,0,0,0-6.76-1.53,111.83,111.83,0,0,0-2.74,20.77v.07c-.07,2-.09,4-.06,6.16a112,112,0,0,0,2.16,20A38.83,38.83,0,0,0,41,138.62,102.39,102.39,0,0,1,39.05,120.31Z"/><path class="cls-1" d="M79.53,108.82A65.32,65.32,0,0,0,78.87,120v.71c0,1.18.13,2.35.24,3.52a29,29,0,0,1,7.07.69c-.18-1.47-.31-3-.37-4.47A58.37,58.37,0,0,1,86.67,108,29.64,29.64,0,0,1,79.53,108.82Z"/></svg>