<svg width="54" height="54" viewBox="0 0 54 54" fill="none" xmlns="http://www.w3.org/2000/svg">
<path fill-rule="evenodd" clip-rule="evenodd" d="M8.93706 17.8741C8.04822 17.8741 7.19577 18.2272 6.56726 18.8557C5.93876 19.4843 5.58566 20.3367 5.58566 21.2255V48.0367C5.58566 48.9256 5.93876 49.778 6.56726 50.4065C7.19577 51.035 8.04822 51.3881 8.93706 51.3881H42.451C43.3399 51.3881 44.1923 51.035 44.8208 50.4065C45.4494 49.778 45.8024 48.9256 45.8024 48.0367V40.2168H43.5682V48.0367C43.5682 48.333 43.4505 48.6172 43.241 48.8267C43.0315 49.0362 42.7473 49.1539 42.451 49.1539H8.93706C8.64078 49.1539 8.35663 49.0362 8.14713 48.8267C7.93763 48.6172 7.81993 48.333 7.81993 48.0367V24.5769H42.451C42.7473 24.5769 43.0315 24.6946 43.241 24.9041C43.4505 25.1136 43.5682 25.3978 43.5682 25.6941V33.514H45.8024V25.6941C45.8024 24.8052 45.4494 23.9528 44.8208 23.3243C44.1923 22.6958 43.3399 22.3427 42.451 22.3427H41.3339V21.2255C41.3339 20.3367 40.9808 19.4843 40.3523 18.8557C39.7238 18.2272 38.8714 17.8741 37.9825 17.8741H8.93706ZM39.0997 22.3427V21.2255C39.0997 20.9293 38.982 20.6451 38.7724 20.4356C38.5629 20.2261 38.2788 20.1084 37.9825 20.1084H8.93706C8.64078 20.1084 8.35663 20.2261 8.14713 20.4356C7.93763 20.6451 7.81993 20.9293 7.81993 21.2255V22.3427H39.0997Z" fill="#F1971F"/>
<path fill-rule="evenodd" clip-rule="evenodd" d="M35.7483 35.7482C35.7483 34.8594 36.1014 34.007 36.7299 33.3785C37.3584 32.7499 38.2108 32.3969 39.0997 32.3969H45.8025C46.6913 32.3969 47.5437 32.7499 48.1723 33.3785C48.8008 34.007 49.1539 34.8594 49.1539 35.7482V37.9825C49.1539 38.8714 48.8008 39.7238 48.1723 40.3523C47.5437 40.9808 46.6913 41.3339 45.8025 41.3339H39.0997C38.2108 41.3339 37.3584 40.9808 36.7299 40.3523C36.1014 39.7238 35.7483 38.8714 35.7483 37.9825V35.7482ZM39.0997 34.6311C38.8034 34.6311 38.5192 34.7488 38.3097 34.9583C38.1002 35.1678 37.9825 35.452 37.9825 35.7482V37.9825C37.9825 38.2788 38.1002 38.5629 38.3097 38.7724C38.5192 38.982 38.8034 39.0996 39.0997 39.0996H45.8025C46.0987 39.0996 46.3829 38.982 46.5924 38.7724C46.8019 38.5629 46.9196 38.2788 46.9196 37.9825V35.7482C46.9196 35.452 46.8019 35.1678 46.5924 34.9583C46.3829 34.7488 46.0987 34.6311 45.8025 34.6311H39.0997Z" fill="#F1971F"/>
<path d="M7.81992 43.5681C7.52364 43.5681 7.23949 43.4504 7.02999 43.2409C6.82049 43.0314 6.70279 42.7473 6.70279 42.451C6.70279 42.1547 6.82049 41.8706 7.02999 41.6611C7.23949 41.4516 7.52364 41.3339 7.81992 41.3339H20.1084C20.4047 41.3339 20.6888 41.4516 20.8983 41.6611C21.1078 41.8706 21.2255 42.1547 21.2255 42.451C21.2255 42.7473 21.1078 43.0314 20.8983 43.2409C20.6888 43.4504 20.4047 43.5681 20.1084 43.5681H7.81992Z" fill="#F1971F"/>
<path fill-rule="evenodd" clip-rule="evenodd" d="M16.757 35.7482C16.9664 35.9577 17.0841 36.2418 17.0841 36.538C17.0841 36.8343 16.9664 37.1184 16.757 37.3279L15.4086 38.6762C14.7802 39.3048 13.9279 39.658 13.0392 39.6582H7.81992V37.4239H13.0392C13.3354 37.4239 13.6195 37.3061 13.829 37.0966L15.1774 35.7482C15.3868 35.5388 15.6709 35.4211 15.9672 35.4211C16.2634 35.4211 16.5475 35.5388 16.757 35.7482ZM22.3426 41.3339C22.0464 41.3339 21.7622 41.4516 21.5527 41.6611C21.3432 41.8706 21.2255 42.1547 21.2255 42.451C21.2255 42.7473 21.3432 43.0315 21.5527 43.241C21.7622 43.4505 22.0464 43.5682 22.3426 43.5682C22.6389 43.5682 22.9231 43.4505 23.1326 43.241C23.3421 43.0315 23.4598 42.7473 23.4598 42.451C23.4598 42.1547 23.3421 41.8706 23.1326 41.6611C22.9231 41.4516 22.6389 41.3339 22.3426 41.3339ZM18.9912 42.451C18.9912 41.5622 19.3443 40.7097 19.9728 40.0812C20.6014 39.4527 21.4538 39.0996 22.3426 39.0996C23.2315 39.0996 24.0839 39.4527 24.7124 40.0812C25.341 40.7097 25.694 41.5622 25.694 42.451C25.694 43.3399 25.341 44.1923 24.7124 44.8208C24.0839 45.4493 23.2315 45.8024 22.3426 45.8024C21.4538 45.8024 20.6014 45.4493 19.9728 44.8208C19.3443 44.1923 18.9912 43.3399 18.9912 42.451Z" fill="#F1971F"/>
<path opacity="0.15" d="M20.1084 8.93701H10.0542C9.46162 8.93701 8.89332 9.17241 8.47432 9.59141C8.05531 10.0104 7.81992 10.5787 7.81992 11.1713V24.5769H20.1084V8.93701Z" fill="#F1971F"/>
<path fill-rule="evenodd" clip-rule="evenodd" d="M37.9825 22.3427V5.58571C37.9825 4.99314 37.7471 4.42485 37.3281 4.00584C36.9091 3.58684 36.3408 3.35144 35.7483 3.35144H15.6399C15.0473 3.35144 14.479 3.58684 14.06 4.00584C13.641 4.42485 13.4056 4.99314 13.4056 5.58571V22.3427H37.9825Z" fill="#F1971F"/>
<path opacity="0.2" fill-rule="evenodd" clip-rule="evenodd" d="M34.6311 22.3426V8.93702C34.6311 8.34446 34.3957 7.77617 33.9767 7.35716C33.5577 6.93815 32.9894 6.70276 32.3969 6.70276H13.4056V22.3426H34.6311Z" fill="#FFDFB4"/>
<path fill-rule="evenodd" clip-rule="evenodd" d="M39.0996 5.58565C39.0996 4.69681 38.7465 3.84436 38.118 3.21586C37.4895 2.58735 36.6371 2.23425 35.7482 2.23425H15.6399C14.751 2.23425 13.8986 2.58735 13.2701 3.21586C12.6415 3.84436 12.2885 4.69681 12.2885 5.58565V22.3426H14.5227V5.58565C14.5227 5.28937 14.6404 5.00522 14.8499 4.79572C15.0594 4.58622 15.3436 4.46852 15.6399 4.46852H35.7482C36.0445 4.46852 36.3287 4.58622 36.5382 4.79572C36.7477 5.00522 36.8654 5.28937 36.8654 5.58565V22.3426H39.0996V5.58565Z" fill="#F1971F"/>
<path d="M29.0454 17.8741C28.7492 17.8741 28.465 17.7564 28.2555 17.5469C28.046 17.3374 27.9283 17.0532 27.9283 16.7569V10.0541C27.9283 9.75786 28.046 9.47372 28.2555 9.26421C28.465 9.05471 28.7492 8.93701 29.0454 8.93701C29.3417 8.93701 29.6259 9.05471 29.8354 9.26421C30.0449 9.47372 30.1626 9.75786 30.1626 10.0541V16.7569C30.1626 17.0532 30.0449 17.3374 29.8354 17.5469C29.6259 17.7564 29.3417 17.8741 29.0454 17.8741ZM24.5769 20.1083C24.2806 20.1083 23.9965 19.9906 23.787 19.7811C23.5775 19.5716 23.4598 19.2875 23.4598 18.9912V12.2884C23.4598 11.9921 23.5775 11.708 23.787 11.4985C23.9965 11.289 24.2806 11.1713 24.5769 11.1713C24.8732 11.1713 25.1573 11.289 25.3668 11.4985C25.5763 11.708 25.694 11.9921 25.694 12.2884V18.9912C25.694 19.2875 25.5763 19.5716 25.3668 19.7811C25.1573 19.9906 24.8732 20.1083 24.5769 20.1083Z" fill="#F1971F"/>
</svg>
