<svg width="54" height="54" viewBox="0 0 54 54" fill="none" xmlns="http://www.w3.org/2000/svg">
<path d="M10.0542 21.2256H16.757V42.4511H10.0542V21.2256ZM23.4598 21.2256H30.1626V42.4511H23.4598V21.2256ZM36.8654 21.2256H43.5682V42.4511H36.8654V21.2256Z" fill="#F1971F"/>
<path d="M10.0542 21.2256H16.757V42.4511H10.0542V21.2256Z" fill="#ED8721"/>
<path fill-rule="evenodd" clip-rule="evenodd" d="M8.93707 20.1084H17.8741V43.5682H8.93707V20.1084ZM11.1713 22.3427V41.3339H15.6399V22.3427H11.1713Z" fill="#F1971F"/>
<path d="M36.8654 21.2256H43.5682V42.4511H36.8654V21.2256Z" fill="#ED8721"/>
<path fill-rule="evenodd" clip-rule="evenodd" d="M35.7482 20.1084H44.6853V43.5682H35.7482V20.1084ZM37.9825 22.3427V41.3339H42.451V22.3427H37.9825Z" fill="#F1971F"/>
<path d="M23.4598 21.2256H30.1626V42.4511H23.4598V21.2256Z" fill="#ED8721"/>
<path fill-rule="evenodd" clip-rule="evenodd" d="M22.3427 20.1084H31.2797V43.5682H22.3427V20.1084ZM24.5769 22.3427V41.3339H29.0454V22.3427H24.5769Z" fill="#F1971F"/>
<path fill-rule="evenodd" clip-rule="evenodd" d="M8.93705 41.3339C8.0482 41.3339 7.19576 41.687 6.56725 42.3155C5.93874 42.944 5.58565 43.7964 5.58565 44.6853V45.8024C4.69681 45.8024 3.84436 46.1555 3.21586 46.784C2.58735 47.4125 2.23425 48.2649 2.23425 49.1538V51.3881H4.46852V49.1538C4.46852 48.8575 4.58622 48.5734 4.79572 48.3639C5.00522 48.1544 5.28937 48.0367 5.58565 48.0367H48.0367C48.333 48.0367 48.6171 48.1544 48.8266 48.3639C49.0361 48.5734 49.1538 48.8575 49.1538 49.1538V51.3881H51.3881V49.1538C51.3881 48.2649 51.035 47.4125 50.4065 46.784C49.778 46.1555 48.9255 45.8024 48.0367 45.8024V44.6853C48.0367 43.7964 47.6836 42.944 47.0551 42.3155C46.4266 41.687 45.5742 41.3339 44.6853 41.3339H8.93705ZM45.8024 45.8024V44.6853C45.8024 44.389 45.6847 44.1048 45.4752 43.8953C45.2657 43.6858 44.9816 43.5681 44.6853 43.5681H8.93705C8.64077 43.5681 8.35662 43.6858 8.14712 43.8953C7.93762 44.1048 7.81992 44.389 7.81992 44.6853V45.8024H45.8024Z" fill="#F1971F"/>
<path opacity="0.15" d="M8.93707 21.2256H17.8741V24.577H8.93707V21.2256ZM22.3427 21.2256H31.2797V24.577H22.3427V21.2256ZM35.7483 21.2256H44.6853V24.577H35.7483V21.2256Z" fill="#F1971F"/>
<path fill-rule="evenodd" clip-rule="evenodd" d="M24.8395 3.40385C25.4124 2.987 26.1027 2.76245 26.8112 2.76245C27.5197 2.76245 28.21 2.987 28.7829 3.40385L49.2656 18.3019C51.0161 19.5743 50.1146 22.3426 47.9518 22.3426H5.66945C3.50557 22.3426 2.60516 19.5743 4.35571 18.3019L24.8395 3.40385ZM27.4681 5.21025C27.2772 5.07147 27.0472 4.99672 26.8112 4.99672C26.5752 4.99672 26.3452 5.07147 26.1543 5.21025L5.66945 20.1083H47.9529L27.4681 5.21025Z" fill="#F1971F"/>
</svg>
