<svg width="54" height="54" viewBox="0 0 54 54" fill="none" xmlns="http://www.w3.org/2000/svg">
<path opacity="0.15" d="M17.8741 21.2255C17.8741 20.6329 18.1095 20.0646 18.5285 19.6456C18.9475 19.2266 19.5158 18.9912 20.1084 18.9912H40.2168C40.8094 18.9912 41.3776 19.2266 41.7967 19.6456C42.2157 20.0646 42.4511 20.6329 42.4511 21.2255V40.2167C42.4511 40.8093 42.2157 41.3776 41.7967 41.7966C41.3776 42.2156 40.8094 42.451 40.2168 42.451H20.1084C19.5158 42.451 18.9475 42.2156 18.5285 41.7966C18.1095 41.3776 17.8741 40.8093 17.8741 40.2167V21.2255Z" fill="#F1971F"/>
<path d="M14.5227 16.757C14.5227 16.1644 14.7581 15.5961 15.1771 15.1771C15.5961 14.7581 16.1644 14.5227 16.757 14.5227H36.8654C37.458 14.5227 38.0262 14.7581 38.4453 15.1771C38.8643 15.5961 39.0997 16.1644 39.0997 16.757V36.8654C39.0997 37.4579 38.8643 38.0262 38.4453 38.4452C38.0262 38.8642 37.458 39.0996 36.8654 39.0996H16.757C16.1644 39.0996 15.5961 38.8642 15.1771 38.4452C14.7581 38.0262 14.5227 37.4579 14.5227 36.8654V16.757Z" fill="#F1971F"/>
<path opacity="0.2" d="M17.8741 20.1084C17.8741 19.5158 18.1095 18.9476 18.5285 18.5285C18.9475 18.1095 19.5158 17.8741 20.1084 17.8741H39.0997V36.8654C39.0997 37.458 38.8643 38.0263 38.4453 38.4453C38.0262 38.8643 37.458 39.0997 36.8654 39.0997H17.8741V20.1084Z" fill="#F1971F"/>
<path fill-rule="evenodd" clip-rule="evenodd" d="M20.1084 23.4598C20.1084 22.571 20.4615 21.7185 21.09 21.09C21.7185 20.4615 22.5709 20.1084 23.4598 20.1084H30.1626C30.4589 20.1084 30.743 20.2261 30.9525 20.4356C31.162 20.6451 31.2797 20.9292 31.2797 21.2255C31.2797 21.5218 31.162 21.806 30.9525 22.0155C30.743 22.225 30.4589 22.3427 30.1626 22.3427H23.4598C23.1635 22.3427 22.8794 22.4604 22.6699 22.6699C22.4604 22.8794 22.3427 23.1635 22.3427 23.4598V26.8112C22.3427 27.1075 22.225 27.3916 22.0155 27.6011C21.806 27.8106 21.5218 27.9283 21.2255 27.9283C20.9292 27.9283 20.6451 27.8106 20.4356 27.6011C20.2261 27.3916 20.1084 27.1075 20.1084 26.8112V23.4598Z" fill="#F1971F"/>
<path fill-rule="evenodd" clip-rule="evenodd" d="M13.4056 16.757C13.4056 15.8682 13.7587 15.0158 14.3872 14.3872C15.0157 13.7587 15.8681 13.4056 16.757 13.4056H36.8654C37.7542 13.4056 38.6067 13.7587 39.2352 14.3872C39.8637 15.0158 40.2168 15.8682 40.2168 16.757V36.8654C40.2168 37.7543 39.8637 38.6067 39.2352 39.2352C38.6067 39.8637 37.7542 40.2168 36.8654 40.2168H16.757C15.8681 40.2168 15.0157 39.8637 14.3872 39.2352C13.7587 38.6067 13.4056 37.7543 13.4056 36.8654V16.757ZM16.757 15.6399C16.4607 15.6399 16.1766 15.7576 15.9671 15.9671C15.7576 16.1766 15.6399 16.4608 15.6399 16.757V36.8654C15.6399 37.1617 15.7576 37.4459 15.9671 37.6554C16.1766 37.8649 16.4607 37.9826 16.757 37.9826H36.8654C37.1617 37.9826 37.4458 37.8649 37.6553 37.6554C37.8648 37.4459 37.9825 37.1617 37.9825 36.8654V16.757C37.9825 16.4608 37.8648 16.1766 37.6553 15.9671C37.4458 15.7576 37.1617 15.6399 36.8654 15.6399H16.757Z" fill="#F1971F"/>
<path d="M22.3427 32.3968C22.3427 32.1005 22.4604 31.8164 22.6699 31.6069C22.8794 31.3974 23.1635 31.2797 23.4598 31.2797H30.1626C30.4589 31.2797 30.743 31.3974 30.9525 31.6069C31.162 31.8164 31.2797 32.1005 31.2797 32.3968C31.2797 32.6931 31.162 32.9772 30.9525 33.1867C30.743 33.3962 30.4589 33.5139 30.1626 33.5139H23.4598C23.1635 33.5139 22.8794 33.3962 22.6699 33.1867C22.4604 32.9772 22.3427 32.6931 22.3427 32.3968Z" fill="#F1971F"/>
<path fill-rule="evenodd" clip-rule="evenodd" d="M22.3427 2.23425C22.6389 2.23425 22.9231 2.35195 23.1326 2.56145C23.3421 2.77096 23.4598 3.0551 23.4598 3.35139V5.58565H25.6941V4.46852C25.6941 4.17224 25.8118 3.88809 26.0213 3.67859C26.2308 3.46908 26.5149 3.35139 26.8112 3.35139C27.1075 3.35139 27.3916 3.46908 27.6011 3.67859C27.8106 3.88809 27.9283 4.17224 27.9283 4.46852V5.58565H30.1626V3.35139C30.1626 3.0551 30.2803 2.77096 30.4898 2.56145C30.6993 2.35195 30.9834 2.23425 31.2797 2.23425C31.576 2.23425 31.8602 2.35195 32.0697 2.56145C32.2792 2.77096 32.3969 3.0551 32.3969 3.35139V5.58565H34.6311V4.46852C34.6311 4.17224 34.7488 3.88809 34.9583 3.67859C35.1678 3.46908 35.452 3.35139 35.7483 3.35139C36.0445 3.35139 36.3287 3.46908 36.5382 3.67859C36.7477 3.88809 36.8654 4.17224 36.8654 4.46852V5.58565H39.0997V3.35139C39.0997 3.0551 39.2174 2.77096 39.4269 2.56145C39.6364 2.35195 39.9205 2.23425 40.2168 2.23425C40.5131 2.23425 40.7972 2.35195 41.0067 2.56145C41.2162 2.77096 41.3339 3.0551 41.3339 3.35139V5.58565H44.6853C45.5742 5.58565 46.4266 5.93874 47.0551 6.56725C47.6836 7.19576 48.0367 8.0482 48.0367 8.93705V12.2884H50.271C50.5673 12.2884 50.8514 12.4061 51.0609 12.6157C51.2704 12.8252 51.3881 13.1093 51.3881 13.4056C51.3881 13.7019 51.2704 13.986 51.0609 14.1955C50.8514 14.405 50.5673 14.5227 50.271 14.5227H48.0367V16.757H49.1539C49.4501 16.757 49.7343 16.8747 49.9438 17.0842C50.1533 17.2937 50.271 17.5778 50.271 17.8741C50.271 18.1704 50.1533 18.4545 49.9438 18.664C49.7343 18.8736 49.4501 18.9912 49.1539 18.9912H48.0367V21.2255H50.271C50.5673 21.2255 50.8514 21.3432 51.0609 21.5527C51.2704 21.7622 51.3881 22.0464 51.3881 22.3426C51.3881 22.6389 51.2704 22.9231 51.0609 23.1326C50.8514 23.3421 50.5673 23.4598 50.271 23.4598H48.0367V25.694H49.1539C49.4501 25.694 49.7343 25.8117 49.9438 26.0212C50.1533 26.2307 50.271 26.5149 50.271 26.8112C50.271 27.1075 50.1533 27.3916 49.9438 27.6011C49.7343 27.8106 49.4501 27.9283 49.1539 27.9283H48.0367V30.1626H50.271C50.5673 30.1626 50.8514 30.2803 51.0609 30.4898C51.2704 30.6993 51.3881 30.9834 51.3881 31.2797C51.3881 31.576 51.2704 31.8601 51.0609 32.0696C50.8514 32.2791 50.5673 32.3968 50.271 32.3968H48.0367V34.6311H49.1539C49.4501 34.6311 49.7343 34.7488 49.9438 34.9583C50.1533 35.1678 50.271 35.452 50.271 35.7482C50.271 36.0445 50.1533 36.3287 49.9438 36.5382C49.7343 36.7477 49.4501 36.8654 49.1539 36.8654H48.0367V39.0996H50.271C50.5673 39.0996 50.8514 39.2173 51.0609 39.4268C51.2704 39.6363 51.3881 39.9205 51.3881 40.2168C51.3881 40.5131 51.2704 40.7972 51.0609 41.0067C50.8514 41.2162 50.5673 41.3339 50.271 41.3339H48.0367V44.6853C48.0367 45.5742 47.6836 46.4266 47.0551 47.0551C46.4266 47.6836 45.5742 48.0367 44.6853 48.0367H41.3339V50.271C41.3339 50.5672 41.2162 50.8514 41.0067 51.0609C40.7972 51.2704 40.5131 51.3881 40.2168 51.3881C39.9205 51.3881 39.6364 51.2704 39.4269 51.0609C39.2174 50.8514 39.0997 50.5672 39.0997 50.271V48.0367H36.8654V49.1538C36.8654 49.4501 36.7477 49.7343 36.5382 49.9438C36.3287 50.1533 36.0445 50.271 35.7483 50.271C35.452 50.271 35.1678 50.1533 34.9583 49.9438C34.7488 49.7343 34.6311 49.4501 34.6311 49.1538V48.0367H32.3969V50.271C32.3969 50.5672 32.2792 50.8514 32.0697 51.0609C31.8602 51.2704 31.576 51.3881 31.2797 51.3881C30.9834 51.3881 30.6993 51.2704 30.4898 51.0609C30.2803 50.8514 30.1626 50.5672 30.1626 50.271V48.0367H27.9283V49.1538C27.9283 49.4501 27.8106 49.7343 27.6011 49.9438C27.3916 50.1533 27.1075 50.271 26.8112 50.271C26.5149 50.271 26.2308 50.1533 26.0213 49.9438C25.8118 49.7343 25.6941 49.4501 25.6941 49.1538V48.0367H23.4598V50.271C23.4598 50.5672 23.3421 50.8514 23.1326 51.0609C22.9231 51.2704 22.6389 51.3881 22.3427 51.3881C22.0464 51.3881 21.7622 51.2704 21.5527 51.0609C21.3432 50.8514 21.2255 50.5672 21.2255 50.271V48.0367H18.9913V49.1538C18.9913 49.4501 18.8736 49.7343 18.6641 49.9438C18.4546 50.1533 18.1704 50.271 17.8741 50.271C17.5778 50.271 17.2937 50.1533 17.0842 49.9438C16.8747 49.7343 16.757 49.4501 16.757 49.1538V48.0367H14.5227V50.271C14.5227 50.5672 14.405 50.8514 14.1955 51.0609C13.986 51.2704 13.7019 51.3881 13.4056 51.3881C13.1093 51.3881 12.8252 51.2704 12.6157 51.0609C12.4062 50.8514 12.2885 50.5672 12.2885 50.271V48.0367H8.93707C8.04822 48.0367 7.19578 47.6836 6.56727 47.0551C5.93876 46.4266 5.58567 45.5742 5.58567 44.6853V41.3339H3.3514C3.05512 41.3339 2.77097 41.2162 2.56147 41.0067C2.35197 40.7972 2.23427 40.5131 2.23427 40.2168C2.23427 39.9205 2.35197 39.6363 2.56147 39.4268C2.77097 39.2173 3.05512 39.0996 3.3514 39.0996H5.58567V36.8654H4.46853C4.17225 36.8654 3.8881 36.7477 3.6786 36.5382C3.4691 36.3287 3.3514 36.0445 3.3514 35.7482C3.3514 35.452 3.4691 35.1678 3.6786 34.9583C3.8881 34.7488 4.17225 34.6311 4.46853 34.6311H5.58567V32.3968H3.3514C3.05512 32.3968 2.77097 32.2791 2.56147 32.0696C2.35197 31.8601 2.23427 31.576 2.23427 31.2797C2.23427 30.9834 2.35197 30.6993 2.56147 30.4898C2.77097 30.2803 3.05512 30.1626 3.3514 30.1626H5.58567V27.9283H4.46853C4.17225 27.9283 3.8881 27.8106 3.6786 27.6011C3.4691 27.3916 3.3514 27.1075 3.3514 26.8112C3.3514 26.5149 3.4691 26.2307 3.6786 26.0212C3.8881 25.8117 4.17225 25.694 4.46853 25.694H5.58567V23.4598H3.3514C3.05512 23.4598 2.77097 23.3421 2.56147 23.1326C2.35197 22.9231 2.23427 22.6389 2.23427 22.3426C2.23427 22.0464 2.35197 21.7622 2.56147 21.5527C2.77097 21.3432 3.05512 21.2255 3.3514 21.2255H5.58567V18.9912H4.46853C4.17225 18.9912 3.8881 18.8736 3.6786 18.664C3.4691 18.4545 3.3514 18.1704 3.3514 17.8741C3.3514 17.5778 3.4691 17.2937 3.6786 17.0842C3.8881 16.8747 4.17225 16.757 4.46853 16.757H5.58567V14.5227H3.3514C3.05512 14.5227 2.77097 14.405 2.56147 14.1955C2.35197 13.986 2.23427 13.7019 2.23427 13.4056C2.23427 13.1093 2.35197 12.8252 2.56147 12.6157C2.77097 12.4061 3.05512 12.2884 3.3514 12.2884H5.58567V8.93705C5.58567 8.0482 5.93876 7.19576 6.56727 6.56725C7.19578 5.93874 8.04822 5.58565 8.93707 5.58565H12.2885V3.35139C12.2885 3.0551 12.4062 2.77096 12.6157 2.56145C12.8252 2.35195 13.1093 2.23425 13.4056 2.23425C13.7019 2.23425 13.986 2.35195 14.1955 2.56145C14.405 2.77096 14.5227 3.0551 14.5227 3.35139V5.58565H16.757V4.46852C16.757 4.17224 16.8747 3.88809 17.0842 3.67859C17.2937 3.46908 17.5778 3.35139 17.8741 3.35139C18.1704 3.35139 18.4546 3.46908 18.6641 3.67859C18.8736 3.88809 18.9913 4.17224 18.9913 4.46852V5.58565H21.2255V3.35139C21.2255 3.0551 21.3432 2.77096 21.5527 2.56145C21.7622 2.35195 22.0464 2.23425 22.3427 2.23425ZM8.93707 7.81992C8.64078 7.81992 8.35664 7.93762 8.14713 8.14712C7.93763 8.35662 7.81993 8.64077 7.81993 8.93705V44.6853C7.81993 44.9816 7.93763 45.2657 8.14713 45.4752C8.35664 45.6847 8.64078 45.8024 8.93707 45.8024H44.6853C44.9816 45.8024 45.2657 45.6847 45.4753 45.4752C45.6848 45.2657 45.8025 44.9816 45.8025 44.6853V8.93705C45.8025 8.64077 45.6848 8.35662 45.4753 8.14712C45.2657 7.93762 44.9816 7.81992 44.6853 7.81992H8.93707Z" fill="#F1971F"/>
<path d="M32.3969 24.5769C32.6931 24.5769 32.9773 24.6946 33.1868 24.9041C33.3963 25.1136 33.514 25.3978 33.514 25.694V27.9283C33.514 28.2246 33.3963 28.5087 33.1868 28.7182C32.9773 28.9277 32.6931 29.0454 32.3969 29.0454C32.1006 29.0454 31.8164 28.9277 31.6069 28.7182C31.3974 28.5087 31.2797 28.2246 31.2797 27.9283V25.694C31.2797 25.3978 31.3974 25.1136 31.6069 24.9041C31.8164 24.6946 32.1006 24.5769 32.3969 24.5769Z" fill="#F1971F"/>
</svg>
