<svg width="54" height="55" viewBox="0 0 54 55" fill="none" xmlns="http://www.w3.org/2000/svg">
<g clip-path="url(#clip0_14_568)">
<path fill-rule="evenodd" clip-rule="evenodd" d="M11.3546 26.5682C11.3546 25.6793 11.7076 24.8269 12.3362 24.1984C12.9647 23.5699 13.8171 23.2168 14.706 23.2168H50.4542C51.3431 23.2168 52.1955 23.5699 52.824 24.1984C53.4525 24.8269 53.8056 25.6793 53.8056 26.5682V44.4423C53.8056 45.3312 53.4525 46.1836 52.824 46.8121C52.1955 47.4406 51.3431 47.7937 50.4542 47.7937H14.706C13.8171 47.7937 12.9647 47.4406 12.3362 46.8121C11.7076 46.1836 11.3546 45.3312 11.3546 44.4423V26.5682ZM14.706 25.4511C14.4097 25.4511 14.1255 25.5688 13.916 25.7783C13.7065 25.9878 13.5888 26.2719 13.5888 26.5682V44.4423C13.5888 44.7386 13.7065 45.0228 13.916 45.2323C14.1255 45.4418 14.4097 45.5595 14.706 45.5595H50.4542C50.7505 45.5595 51.0346 45.4418 51.2441 45.2323C51.4536 45.0228 51.5713 44.7386 51.5713 44.4423V26.5682C51.5713 26.2719 51.4536 25.9878 51.2441 25.7783C51.0346 25.5688 50.7505 25.4511 50.4542 25.4511H14.706Z" fill="#F1971F"/>
<path fill-rule="evenodd" clip-rule="evenodd" d="M32.5801 38.8566C33.4689 38.8566 34.3214 38.5035 34.9499 37.875C35.5784 37.2465 35.9315 36.3941 35.9315 35.5052C35.9315 34.6164 35.5784 33.7639 34.9499 33.1354C34.3214 32.5069 33.4689 32.1538 32.5801 32.1538C31.6912 32.1538 30.8388 32.5069 30.2103 33.1354C29.5818 33.7639 29.2287 34.6164 29.2287 35.5052C29.2287 36.3941 29.5818 37.2465 30.2103 37.875C30.8388 38.5035 31.6912 38.8566 32.5801 38.8566ZM32.5801 41.0909C34.0615 41.0909 35.4822 40.5024 36.5297 39.4549C37.5773 38.4074 38.1657 36.9866 38.1657 35.5052C38.1657 34.0238 37.5773 32.6031 36.5297 31.5556C35.4822 30.508 34.0615 29.9196 32.5801 29.9196C31.0987 29.9196 29.6779 30.508 28.6304 31.5556C27.5829 32.6031 26.9944 34.0238 26.9944 35.5052C26.9944 36.9866 27.5829 38.4074 28.6304 39.4549C29.6779 40.5024 31.0987 41.0909 32.5801 41.0909Z" fill="#F1971F"/>
<path opacity="0.15" d="M11.3546 20.9826C11.3546 20.39 11.5899 19.8217 12.009 19.4027C12.428 18.9837 12.9963 18.7483 13.5888 18.7483H44.8685C45.4611 18.7483 46.0294 18.9837 46.4484 19.4027C46.8674 19.8217 47.1028 20.39 47.1028 20.9826V35.5053C47.1028 36.0978 46.8674 36.6661 46.4484 37.0852C46.0294 37.5042 45.4611 37.7395 44.8685 37.7395H11.3546V20.9826Z" fill="#F1971F"/>
<path d="M1.80035 10.9284C1.80035 10.4684 1.98307 10.0273 2.30831 9.70205C2.63355 9.37681 3.07466 9.19409 3.53462 9.19409H39.2829C39.7428 9.19409 40.1839 9.37681 40.5092 9.70205C40.8344 10.0273 41.0171 10.4684 41.0171 10.9284V28.8025C41.0171 29.2624 40.8344 29.7036 40.5092 30.0288C40.1839 30.354 39.7428 30.5368 39.2829 30.5368H3.53462C3.07467 30.5368 2.63355 30.354 2.30831 30.0288C1.98307 29.7036 1.80035 29.2624 1.80035 28.8025V10.9284Z" stroke="black"/>
<path fill-rule="evenodd" clip-rule="evenodd" d="M0.183228 10.9283C0.183228 10.0395 0.53632 9.18702 1.16483 8.55851C1.79334 7.93 2.64578 7.5769 3.53463 7.5769H39.2829C40.1717 7.5769 41.0242 7.93 41.6527 8.55851C42.2812 9.18702 42.6343 10.0395 42.6343 10.9283V28.8024C42.6343 29.6913 42.2812 30.5437 41.6527 31.1722C41.0242 31.8007 40.1717 32.1538 39.2829 32.1538H3.53463C2.64578 32.1538 1.79334 31.8007 1.16483 31.1722C0.53632 30.5437 0.183228 29.6913 0.183228 28.8024L0.183228 10.9283ZM3.53463 9.81117C3.23834 9.81117 2.9542 9.92887 2.74469 10.1384C2.53519 10.3479 2.41749 10.632 2.41749 10.9283V28.8024C2.41749 29.0987 2.53519 29.3829 2.74469 29.5924C2.9542 29.8019 3.23834 29.9196 3.53463 29.9196H39.2829C39.5792 29.9196 39.8633 29.8019 40.0728 29.5924C40.2823 29.3829 40.4 29.0987 40.4 28.8024V10.9283C40.4 10.632 40.2823 10.3479 40.0728 10.1384C39.8633 9.92887 39.5792 9.81117 39.2829 9.81117H3.53463Z" fill="#F1971F"/>
<path d="M25.8773 19.8654C25.8773 21.0505 25.4065 22.1871 24.5685 23.0251C23.7305 23.8631 22.5939 24.3339 21.4087 24.3339C20.2236 24.3339 19.087 23.8631 18.249 23.0251C17.411 22.1871 16.9402 21.0505 16.9402 19.8654C16.9402 18.6803 17.411 17.5437 18.249 16.7057C19.087 15.8676 20.2236 15.3969 21.4087 15.3969C22.5939 15.3969 23.7305 15.8676 24.5685 16.7057C25.4065 17.5437 25.8773 18.6803 25.8773 19.8654Z" fill="#F1971F"/>
<path fill-rule="evenodd" clip-rule="evenodd" d="M21.4088 16.5141C20.5199 16.5141 19.6675 16.8671 19.039 17.4957C18.4104 18.1242 18.0574 18.9766 18.0574 19.8654C18.0574 20.7543 18.4104 21.6067 19.039 22.2352C19.6675 22.8638 20.5199 23.2168 21.4088 23.2168C22.2976 23.2168 23.15 22.8638 23.7786 22.2352C24.4071 21.6067 24.7602 20.7543 24.7602 19.8654C24.7602 18.9766 24.4071 18.1242 23.7786 17.4957C23.15 16.8671 22.2976 16.5141 21.4088 16.5141ZM15.8231 19.8654C15.8231 18.384 16.4116 16.9633 17.4591 15.9158C18.5066 14.8683 19.9273 14.2798 21.4088 14.2798C22.8902 14.2798 24.3109 14.8683 25.3584 15.9158C26.4059 16.9633 26.9944 18.384 26.9944 19.8654C26.9944 21.3469 26.4059 22.7676 25.3584 23.8151C24.3109 24.8626 22.8902 25.4511 21.4088 25.4511C19.9273 25.4511 18.5066 24.8626 17.4591 23.8151C16.4116 22.7676 15.8231 21.3469 15.8231 19.8654Z" fill="#F1971F" fill-opacity="0.5"/>
</g>
<defs>
<clipPath id="clip0_14_568">
<rect width="53.6224" height="53.6224" fill="white" transform="translate(0.183228 0.874146)"/>
</clipPath>
</defs>
</svg>
