<svg width="295" height="364" viewBox="0 0 295 364" fill="none" xmlns="http://www.w3.org/2000/svg">
<g opacity="0.1">
<g filter="url(#filter0_b_14_1111)">
<path d="M139.984 -88.3796C142.571 -88.3997 144.429 -88.4132 145.892 -88.3149C147.338 -88.2176 148.277 -88.0163 149.043 -87.6692C150.88 -86.8362 152.356 -85.3723 153.203 -83.5409C153.556 -82.7779 153.765 -81.841 153.873 -80.395C153.983 -78.9335 153.984 -77.0757 153.984 -74.4884L153.984 170.351C153.984 172.939 153.983 174.797 153.873 176.26C153.765 177.707 153.556 178.648 153.203 179.416C152.356 181.261 150.88 182.747 149.043 183.609C148.277 183.968 147.338 184.184 145.892 184.304C144.429 184.425 142.571 184.44 139.984 184.46L-202.135 187.117C-204.722 187.137 -206.58 187.151 -208.042 187.052C-209.489 186.955 -210.428 186.754 -211.193 186.407C-213.031 185.574 -214.507 184.11 -215.354 182.278C-215.707 181.515 -215.915 180.579 -216.024 179.132C-216.134 177.671 -216.135 175.813 -216.135 173.226L-216.135 -71.6138C-216.135 -74.2012 -216.134 -76.059 -216.024 -77.5222C-215.915 -78.9699 -215.707 -79.91 -215.354 -80.6785C-214.507 -82.5231 -213.031 -84.0098 -211.193 -84.8714C-210.428 -85.2304 -209.489 -85.4463 -208.042 -85.5661C-206.58 -85.6871 -204.722 -85.7025 -202.135 -85.7226L139.984 -88.3796Z" stroke="#FF6600" stroke-width="3"/>
</g>
<g filter="url(#filter1_b_14_1111)">
<path d="M183.651 -22.3074C186.238 -22.3275 188.096 -22.3409 189.558 -22.2426C191.005 -22.1454 191.944 -21.944 192.709 -21.5969C194.547 -20.7639 196.022 -19.3 196.87 -17.4686C197.223 -16.7056 197.431 -15.7688 197.54 -14.3227C197.65 -12.8612 197.651 -11.0034 197.651 -8.41609L197.651 236.424C197.651 239.011 197.65 240.869 197.54 242.332C197.431 243.78 197.223 244.72 196.87 245.488C196.022 247.333 194.547 248.82 192.709 249.681C191.944 250.04 191.005 250.256 189.558 250.376C188.096 250.497 186.238 250.512 183.651 250.532L-158.468 253.189C-161.056 253.21 -162.913 253.223 -164.376 253.125C-165.822 253.027 -166.761 252.826 -167.527 252.479C-169.365 251.646 -170.84 250.182 -171.687 248.351C-172.04 247.588 -172.249 246.651 -172.357 245.205C-172.467 243.743 -172.468 241.885 -172.468 239.298L-172.468 -5.54158C-172.468 -8.1289 -172.467 -9.98673 -172.357 -11.4499C-172.249 -12.8977 -172.04 -13.8378 -171.687 -14.6062C-170.84 -16.4508 -169.365 -17.9376 -167.527 -18.7992C-166.761 -19.1581 -165.822 -19.3741 -164.376 -19.4938C-162.913 -19.6148 -161.056 -19.6302 -158.468 -19.6503L183.651 -22.3074Z" stroke="#FF6600" stroke-width="3"/>
</g>
<g filter="url(#filter2_b_14_1111)">
<path d="M226.94 43.803C229.527 43.7829 231.385 43.7695 232.847 43.8677C234.294 43.965 235.233 44.1664 235.998 44.5134C237.836 45.3465 239.312 46.8103 240.159 48.6417C240.512 49.4047 240.721 50.3416 240.829 51.7877C240.939 53.2491 240.94 55.1069 240.94 57.6943L240.94 302.534C240.94 305.121 240.939 306.979 240.829 308.442C240.721 309.89 240.512 310.83 240.159 311.599C239.312 313.443 237.836 314.93 235.998 315.792C235.233 316.151 234.294 316.366 232.847 316.486C231.385 316.607 229.527 316.623 226.94 316.643L-115.179 319.3C-117.766 319.32 -119.624 319.333 -121.086 319.235C-122.533 319.138 -123.472 318.936 -124.238 318.589C-126.075 317.756 -127.551 316.292 -128.398 314.461C-128.751 313.698 -128.96 312.761 -129.068 311.315C-129.178 309.854 -129.179 307.996 -129.179 305.408L-129.179 60.5688C-129.179 57.9815 -129.178 56.1236 -129.068 54.6604C-128.96 53.2127 -128.751 52.2726 -128.398 51.5041C-127.551 49.6596 -126.075 48.1728 -124.237 47.3112C-123.472 46.9522 -122.533 46.7363 -121.086 46.6165C-119.624 46.4956 -117.766 46.4801 -115.179 46.46L226.94 43.803Z" stroke="#FF6600" stroke-width="3"/>
</g>
<g filter="url(#filter3_b_14_1111)">
<path d="M278.887 86.8142C281.474 86.7941 283.332 86.7807 284.794 86.879C286.241 86.9762 287.179 87.1776 287.945 87.5247C289.783 88.3577 291.258 89.8216 292.106 91.653C292.459 92.4159 292.667 93.3528 292.776 94.7989C292.885 96.2604 292.886 98.1182 292.886 100.705L292.886 345.545C292.886 348.133 292.885 349.99 292.776 351.454C292.667 352.901 292.459 353.841 292.106 354.61C291.258 356.454 289.783 357.941 287.945 358.803C287.179 359.162 286.241 359.378 284.794 359.497C283.332 359.618 281.474 359.634 278.887 359.654L-63.2325 362.311C-65.8198 362.331 -67.6776 362.345 -69.1398 362.246C-70.5867 362.149 -71.5251 361.948 -72.2908 361.601C-74.1288 360.768 -75.6041 359.304 -76.4513 357.472C-76.8043 356.709 -77.013 355.772 -77.1215 354.326C-77.2311 352.865 -77.2321 351.007 -77.2321 348.42L-77.2321 103.58C-77.2321 100.993 -77.2311 99.1349 -77.1215 97.6717C-77.013 96.2239 -76.8043 95.2838 -76.4513 94.5153C-75.6041 92.6708 -74.1288 91.184 -72.2908 90.3224C-71.5251 89.9635 -70.5867 89.7475 -69.1398 89.6278C-67.6775 89.5068 -65.8198 89.4914 -63.2325 89.4713L278.887 86.8142Z" stroke="#FF6600" stroke-width="3"/>
</g>
</g>
<defs>
<filter id="filter0_b_14_1111" x="-248.271" y="-120.53" width="434.39" height="339.797" filterUnits="userSpaceOnUse" color-interpolation-filters="sRGB">
<feFlood flood-opacity="0" result="BackgroundImageFix"/>
<feGaussianBlur in="BackgroundImageFix" stdDeviation="15.318"/>
<feComposite in2="SourceAlpha" operator="in" result="effect1_backgroundBlur_14_1111"/>
<feBlend mode="normal" in="SourceGraphic" in2="effect1_backgroundBlur_14_1111" result="shape"/>
</filter>
<filter id="filter1_b_14_1111" x="-204.604" y="-54.4578" width="434.39" height="339.797" filterUnits="userSpaceOnUse" color-interpolation-filters="sRGB">
<feFlood flood-opacity="0" result="BackgroundImageFix"/>
<feGaussianBlur in="BackgroundImageFix" stdDeviation="15.318"/>
<feComposite in2="SourceAlpha" operator="in" result="effect1_backgroundBlur_14_1111"/>
<feBlend mode="normal" in="SourceGraphic" in2="effect1_backgroundBlur_14_1111" result="shape"/>
</filter>
<filter id="filter2_b_14_1111" x="-161.315" y="11.6526" width="434.39" height="339.797" filterUnits="userSpaceOnUse" color-interpolation-filters="sRGB">
<feFlood flood-opacity="0" result="BackgroundImageFix"/>
<feGaussianBlur in="BackgroundImageFix" stdDeviation="15.318"/>
<feComposite in2="SourceAlpha" operator="in" result="effect1_backgroundBlur_14_1111"/>
<feBlend mode="normal" in="SourceGraphic" in2="effect1_backgroundBlur_14_1111" result="shape"/>
</filter>
<filter id="filter3_b_14_1111" x="-109.368" y="54.6638" width="434.39" height="339.797" filterUnits="userSpaceOnUse" color-interpolation-filters="sRGB">
<feFlood flood-opacity="0" result="BackgroundImageFix"/>
<feGaussianBlur in="BackgroundImageFix" stdDeviation="15.318"/>
<feComposite in2="SourceAlpha" operator="in" result="effect1_backgroundBlur_14_1111"/>
<feBlend mode="normal" in="SourceGraphic" in2="effect1_backgroundBlur_14_1111" result="shape"/>
</filter>
</defs>
</svg>
