<svg width="290" height="364" viewBox="0 0 290 364" fill="none" xmlns="http://www.w3.org/2000/svg">
<g opacity="0.1">
<g filter="url(#filter0_b_14_1116)">
<path d="M154.629 -88.3796C152.042 -88.3997 150.184 -88.4132 148.722 -88.3149C147.275 -88.2176 146.337 -88.0163 145.571 -87.6692C143.733 -86.8362 142.258 -85.3723 141.41 -83.5409C141.057 -82.7779 140.849 -81.841 140.74 -80.395C140.631 -78.9335 140.63 -77.0757 140.63 -74.4884L140.63 170.351C140.63 172.939 140.631 174.797 140.74 176.26C140.849 177.707 141.057 178.648 141.41 179.416C142.258 181.261 143.733 182.747 145.571 183.609C146.337 183.968 147.275 184.184 148.722 184.304C150.184 184.425 152.042 184.44 154.629 184.46L496.749 187.117C499.336 187.137 501.194 187.151 502.656 187.052C504.103 186.955 505.041 186.754 505.807 186.407C507.645 185.574 509.12 184.11 509.967 182.278C510.32 181.515 510.529 180.579 510.637 179.132C510.747 177.671 510.748 175.813 510.748 173.226L510.748 -71.6138C510.748 -74.2012 510.747 -76.059 510.637 -77.5222C510.529 -78.9699 510.32 -79.91 509.967 -80.6785C509.12 -82.5231 507.645 -84.0098 505.807 -84.8714C505.041 -85.2304 504.103 -85.4463 502.656 -85.5661C501.194 -85.6871 499.336 -85.7025 496.749 -85.7226L154.629 -88.3796Z" stroke="#FF6600" stroke-width="3"/>
</g>
<g filter="url(#filter1_b_14_1116)">
<path d="M110.962 -22.3074C108.375 -22.3275 106.517 -22.3409 105.055 -22.2426C103.608 -22.1454 102.67 -21.944 101.904 -21.5969C100.066 -20.7639 98.591 -19.3 97.7437 -17.4686C97.3907 -16.7056 97.182 -15.7688 97.0735 -14.3227C96.9639 -12.8612 96.9629 -11.0034 96.9629 -8.41609L96.9629 236.424C96.9629 239.011 96.9639 240.869 97.0735 242.332C97.182 243.78 97.3907 244.72 97.7437 245.488C98.591 247.333 100.066 248.82 101.904 249.681C102.67 250.04 103.608 250.256 105.055 250.376C106.517 250.497 108.375 250.512 110.962 250.532L453.082 253.189C455.669 253.21 457.527 253.223 458.989 253.125C460.436 253.027 461.374 252.826 462.14 252.479C463.978 251.646 465.453 250.182 466.301 248.351C466.654 247.588 466.862 246.651 466.971 245.205C467.08 243.743 467.081 241.885 467.081 239.298L467.081 -5.54158C467.081 -8.1289 467.08 -9.98673 466.971 -11.4499C466.862 -12.8977 466.653 -13.8378 466.301 -14.6062C465.453 -16.4508 463.978 -17.9376 462.14 -18.7992C461.374 -19.1581 460.436 -19.3741 458.989 -19.4938C457.527 -19.6148 455.669 -19.6302 453.082 -19.6503L110.962 -22.3074Z" stroke="#FF6600" stroke-width="3"/>
</g>
<g filter="url(#filter2_b_14_1116)">
<path d="M67.6734 43.803C65.0862 43.7829 63.2284 43.7695 61.7661 43.8677C60.3193 43.965 59.3808 44.1664 58.6151 44.5134C56.7772 45.3465 55.3019 46.8103 54.4546 48.6417C54.1016 49.4047 53.8929 50.3416 53.7845 51.7877C53.6748 53.2491 53.6738 55.1069 53.6738 57.6943L53.6739 302.534C53.6739 305.121 53.6748 306.979 53.7845 308.442C53.893 309.89 54.1016 310.83 54.4546 311.599C55.3019 313.443 56.7772 314.93 58.6151 315.792C59.3808 316.151 60.3193 316.366 61.7661 316.486C63.2284 316.607 65.0862 316.623 67.6734 316.643L409.793 319.3C412.38 319.32 414.238 319.333 415.7 319.235C417.147 319.138 418.085 318.936 418.851 318.589C420.689 317.756 422.164 316.292 423.011 314.461C423.364 313.698 423.573 312.761 423.682 311.315C423.791 309.854 423.792 307.996 423.792 305.408L423.792 60.5688C423.792 57.9815 423.791 56.1236 423.682 54.6604C423.573 53.2127 423.364 52.2726 423.011 51.5041C422.164 49.6596 420.689 48.1728 418.851 47.3112C418.085 46.9522 417.147 46.7363 415.7 46.6165C414.238 46.4956 412.38 46.4801 409.793 46.46L67.6734 43.803Z" stroke="#FF6600" stroke-width="3"/>
</g>
<g filter="url(#filter3_b_14_1116)">
<path d="M15.7268 86.8142C13.1395 86.7941 11.2818 86.7807 9.81948 86.879C8.37261 86.9762 7.43414 87.1776 6.66843 87.5247C4.83052 88.3577 3.35524 89.8216 2.50795 91.653C2.15495 92.4159 1.94629 93.3528 1.83781 94.7989C1.72817 96.2604 1.72719 98.1182 1.72719 100.705L1.7272 345.545C1.7272 348.133 1.72818 349.99 1.83781 351.454C1.9463 352.901 2.15496 353.841 2.50795 354.61C3.35525 356.454 4.83053 357.941 6.66843 358.803C7.43415 359.162 8.37261 359.378 9.81949 359.497C11.2818 359.618 13.1395 359.634 15.7268 359.654L357.846 362.311C360.433 362.331 362.291 362.345 363.753 362.246C365.2 362.149 366.139 361.948 366.904 361.601C368.742 360.768 370.218 359.304 371.065 357.472C371.418 356.709 371.626 355.772 371.735 354.326C371.845 352.865 371.846 351.007 371.846 348.42L371.846 103.58C371.846 100.993 371.845 99.1349 371.735 97.6717C371.626 96.2239 371.418 95.2838 371.065 94.5153C370.218 92.6708 368.742 91.184 366.904 90.3224C366.139 89.9635 365.2 89.7475 363.753 89.6278C362.291 89.5068 360.433 89.4914 357.846 89.4713L15.7268 86.8142Z" stroke="#FF6600" stroke-width="3"/>
</g>
</g>
<defs>
<filter id="filter0_b_14_1116" x="108.494" y="-120.53" width="434.39" height="339.797" filterUnits="userSpaceOnUse" color-interpolation-filters="sRGB">
<feFlood flood-opacity="0" result="BackgroundImageFix"/>
<feGaussianBlur in="BackgroundImageFix" stdDeviation="15.318"/>
<feComposite in2="SourceAlpha" operator="in" result="effect1_backgroundBlur_14_1116"/>
<feBlend mode="normal" in="SourceGraphic" in2="effect1_backgroundBlur_14_1116" result="shape"/>
</filter>
<filter id="filter1_b_14_1116" x="64.827" y="-54.4578" width="434.39" height="339.797" filterUnits="userSpaceOnUse" color-interpolation-filters="sRGB">
<feFlood flood-opacity="0" result="BackgroundImageFix"/>
<feGaussianBlur in="BackgroundImageFix" stdDeviation="15.318"/>
<feComposite in2="SourceAlpha" operator="in" result="effect1_backgroundBlur_14_1116"/>
<feBlend mode="normal" in="SourceGraphic" in2="effect1_backgroundBlur_14_1116" result="shape"/>
</filter>
<filter id="filter2_b_14_1116" x="21.5379" y="11.6526" width="434.39" height="339.797" filterUnits="userSpaceOnUse" color-interpolation-filters="sRGB">
<feFlood flood-opacity="0" result="BackgroundImageFix"/>
<feGaussianBlur in="BackgroundImageFix" stdDeviation="15.318"/>
<feComposite in2="SourceAlpha" operator="in" result="effect1_backgroundBlur_14_1116"/>
<feBlend mode="normal" in="SourceGraphic" in2="effect1_backgroundBlur_14_1116" result="shape"/>
</filter>
<filter id="filter3_b_14_1116" x="-30.4088" y="54.6638" width="434.39" height="339.797" filterUnits="userSpaceOnUse" color-interpolation-filters="sRGB">
<feFlood flood-opacity="0" result="BackgroundImageFix"/>
<feGaussianBlur in="BackgroundImageFix" stdDeviation="15.318"/>
<feComposite in2="SourceAlpha" operator="in" result="effect1_backgroundBlur_14_1116"/>
<feBlend mode="normal" in="SourceGraphic" in2="effect1_backgroundBlur_14_1116" result="shape"/>
</filter>
</defs>
</svg>
