<svg width="584" height="400" viewBox="0 0 584 400" fill="none" xmlns="http://www.w3.org/2000/svg">
<path d="M370.039 162.82C371.404 162.82 372.511 161.714 372.511 160.349C372.511 158.984 371.404 157.878 370.039 157.878C368.675 157.878 367.568 158.984 367.568 160.349C367.568 161.714 368.675 162.82 370.039 162.82Z" fill="#DEE5FF"/>
<path d="M390.284 160.349C390.284 161.727 389.167 162.82 387.813 162.82C386.434 162.82 385.341 161.703 385.341 160.349C385.341 158.994 386.458 157.878 387.813 157.878C389.191 157.878 390.284 158.994 390.284 160.349Z" fill="#DEE5FF"/>
<path d="M405.585 162.82C406.95 162.82 408.057 161.714 408.057 160.349C408.057 158.984 406.95 157.878 405.585 157.878C404.221 157.878 403.114 158.984 403.114 160.349C403.114 161.714 404.221 162.82 405.585 162.82Z" fill="#DEE5FF"/>
<path d="M425.83 160.349C425.83 161.727 424.713 162.82 423.359 162.82C421.981 162.82 420.888 161.703 420.888 160.349C420.888 158.994 422.004 157.878 423.359 157.878C424.737 157.878 425.83 158.994 425.83 160.349Z" fill="#DEE5FF"/>
<path d="M370.039 176.887C371.404 176.887 372.511 175.781 372.511 174.416C372.511 173.051 371.404 171.945 370.039 171.945C368.675 171.945 367.568 173.051 367.568 174.416C367.568 175.781 368.675 176.887 370.039 176.887Z" fill="#DEE5FF"/>
<path d="M390.284 174.416C390.284 175.795 389.167 176.888 387.813 176.888C386.434 176.888 385.341 175.771 385.341 174.416C385.341 173.062 386.458 171.945 387.813 171.945C389.191 171.945 390.284 173.062 390.284 174.416Z" fill="#DEE5FF"/>
<path d="M405.586 176.888C406.95 176.888 408.057 175.781 408.057 174.416C408.057 173.052 406.95 171.945 405.586 171.945C404.221 171.945 403.114 173.052 403.114 174.416C403.114 175.781 404.221 176.888 405.586 176.888Z" fill="#DEE5FF"/>
<path d="M425.83 174.416C425.83 175.795 424.713 176.888 423.359 176.888C421.981 176.888 420.888 175.771 420.888 174.416C420.888 173.062 422.004 171.945 423.359 171.945C424.737 171.945 425.83 173.062 425.83 174.416Z" fill="#DEE5FF"/>
<path d="M370.039 190.953C371.404 190.953 372.51 189.847 372.51 188.482C372.51 187.117 371.404 186.011 370.039 186.011C368.675 186.011 367.568 187.117 367.568 188.482C367.568 189.847 368.675 190.953 370.039 190.953Z" fill="#DEE5FF"/>
<path d="M390.284 188.482C390.284 189.86 389.167 190.953 387.813 190.953C386.434 190.953 385.341 189.836 385.341 188.482C385.341 187.128 386.458 186.011 387.813 186.011C389.191 186.011 390.284 187.128 390.284 188.482Z" fill="#DEE5FF"/>
<path d="M405.586 190.953C406.95 190.953 408.057 189.847 408.057 188.482C408.057 187.117 406.95 186.011 405.586 186.011C404.221 186.011 403.114 187.117 403.114 188.482C403.114 189.847 404.221 190.953 405.586 190.953Z" fill="#DEE5FF"/>
<path d="M425.83 188.482C425.83 189.86 424.713 190.953 423.359 190.953C421.98 190.953 420.887 189.836 420.887 188.482C420.887 187.128 422.004 186.011 423.359 186.011C424.737 186.011 425.83 187.128 425.83 188.482Z" fill="#DEE5FF"/>
<path d="M370.039 205.019C371.404 205.019 372.511 203.913 372.511 202.548C372.511 201.183 371.404 200.077 370.039 200.077C368.675 200.077 367.568 201.183 367.568 202.548C367.568 203.913 368.675 205.019 370.039 205.019Z" fill="#DEE5FF"/>
<path d="M390.284 202.548C390.284 203.926 389.167 205.019 387.813 205.019C386.434 205.019 385.341 203.903 385.341 202.548C385.341 201.17 386.458 200.077 387.813 200.077C389.191 200.077 390.284 201.17 390.284 202.548Z" fill="#DEE5FF"/>
<path d="M405.586 205.019C406.95 205.019 408.057 203.913 408.057 202.548C408.057 201.184 406.95 200.077 405.586 200.077C404.221 200.077 403.114 201.184 403.114 202.548C403.114 203.913 404.221 205.019 405.586 205.019Z" fill="#DEE5FF"/>
<path d="M425.83 202.548C425.83 203.926 424.713 205.019 423.359 205.019C421.981 205.019 420.888 203.903 420.888 202.548C420.888 201.17 422.004 200.077 423.359 200.077C424.737 200.077 425.83 201.17 425.83 202.548Z" fill="#DEE5FF"/>
<path d="M332.711 61.1C332.259 61.1 331.808 60.8387 331.618 60.3872L313.227 19.0196L297.687 22.2748C297.022 22.4174 296.404 21.9897 296.286 21.3482C296.143 20.7066 296.571 20.0651 297.212 19.9463L313.702 16.501C314.249 16.3822 314.795 16.6673 315.033 17.19L333.424 58.5576L385.436 47.6989L390.378 7.66193C390.45 7.02039 391.044 6.54518 391.709 6.61646C392.351 6.68774 392.826 7.28176 392.731 7.94706L387.693 48.8394C387.622 49.3384 387.266 49.7424 386.767 49.8612L332.972 61.0763C332.877 61.0763 332.806 61.1 332.711 61.1Z" fill="#F1971F"/>
<path d="M327.84 48.958L334.684 64.355L327.84 48.958Z" fill="white"/>
<path d="M334.683 65.5432C334.232 65.5432 333.804 65.2818 333.59 64.8304L326.747 49.4333C326.486 48.8393 326.747 48.1265 327.341 47.8651C327.935 47.6038 328.648 47.8651 328.909 48.4591L335.752 63.8562C336.014 64.4502 335.752 65.163 335.158 65.4244C335.016 65.4957 334.85 65.5432 334.683 65.5432Z" fill="#F1971F"/>
<path d="M347.133 70.6991C348.155 75.5464 345.042 80.2985 340.171 81.3202C335.324 82.342 330.572 79.2293 329.55 74.3583C328.529 69.5111 331.641 64.7589 336.512 63.7372C341.359 62.7393 346.112 65.8519 347.133 70.6991Z" fill="white"/>
<path d="M338.342 82.6986C333.637 82.6986 329.408 79.3958 328.41 74.6199C327.863 71.9587 328.362 69.25 329.859 66.9689C331.356 64.6879 333.637 63.1434 336.275 62.5969C338.936 62.0504 341.645 62.5494 343.926 64.0464C346.207 65.5433 347.751 67.8243 348.298 70.4618C348.844 73.123 348.345 75.8317 346.848 78.1128C345.351 80.3938 343.07 81.9383 340.433 82.4848C339.72 82.6273 339.031 82.6986 338.342 82.6986ZM338.366 64.7592C337.843 64.7592 337.296 64.8067 336.75 64.9255C334.706 65.3532 332.972 66.5412 331.831 68.2758C330.691 70.0103 330.311 72.1013 330.715 74.1209C331.594 78.3266 335.728 81.0354 339.934 80.1562C341.977 79.7285 343.712 78.5405 344.852 76.8059C345.993 75.0714 346.373 72.9804 345.969 70.9608C345.541 68.9173 344.353 67.1828 342.619 66.0423C341.336 65.1869 339.863 64.7592 338.366 64.7592Z" fill="#F1971F"/>
<path d="M395.107 60.6962C396.129 65.5434 393.016 70.2956 388.145 71.3173C383.298 72.339 378.546 69.2264 377.524 64.3554C376.502 59.5082 379.615 54.756 384.486 53.7343C389.357 52.7363 394.109 55.849 395.107 60.6962Z" fill="white"/>
<path d="M386.339 72.6949C381.634 72.6949 377.381 69.3922 376.383 64.6163C375.243 59.1275 378.759 53.7338 384.248 52.5933C386.909 52.0468 389.618 52.5458 391.899 54.0427C394.18 55.5396 395.724 57.8207 396.271 60.4581C396.817 63.1193 396.318 65.8281 394.821 68.1091C393.325 70.3901 391.043 71.9346 388.406 72.4811C387.717 72.6237 387.028 72.6949 386.339 72.6949ZM386.363 54.7318C385.84 54.7318 385.293 54.7793 384.747 54.8981C380.541 55.7772 377.832 59.9116 378.712 64.1173C379.591 68.323 383.725 71.0079 387.931 70.1525C389.974 69.7248 391.709 68.5368 392.849 66.8023C393.99 65.0677 394.37 62.9768 393.966 60.9571C393.538 58.9137 392.35 57.1791 390.616 56.0386C389.309 55.1595 387.836 54.7318 386.363 54.7318Z" fill="#F1971F"/>
<path d="M347.133 70.6989L377.547 64.3547L347.133 70.6989Z" fill="white"/>
<path d="M347.133 71.887C346.587 71.887 346.088 71.5068 345.969 70.9366C345.827 70.295 346.254 69.6535 346.896 69.5347L377.31 63.1906C377.951 63.048 378.593 63.4757 378.712 64.1172C378.854 64.7588 378.426 65.4003 377.785 65.5191L347.371 71.8633C347.3 71.887 347.205 71.887 347.133 71.887Z" fill="#F1971F"/>
<path d="M390.758 14.1248L319.333 29.0228L390.758 14.1248Z" fill="white"/>
<path d="M319.333 30.2102C318.787 30.2102 318.288 29.83 318.169 29.2598C318.027 28.6182 318.454 27.9767 319.096 27.8579L390.521 12.9598C391.162 12.8173 391.804 13.245 391.923 13.8865C392.065 14.5281 391.638 15.1696 390.996 15.2884L319.571 30.1864C319.5 30.2102 319.428 30.2102 319.333 30.2102Z" fill="#F1971F"/>
<path d="M133.5 212.718H238.286C240.852 212.718 242.943 210.627 242.943 208.06V45.1561C242.943 42.59 240.852 40.499 238.286 40.499H133.5C130.934 40.499 128.843 42.59 128.843 45.1561V208.084C128.843 210.65 130.91 212.718 133.5 212.718Z" fill="white"/>
<path d="M238.286 213.906H133.5C130.269 213.906 127.655 211.292 127.655 208.061V45.1564C127.655 41.925 130.269 39.3113 133.5 39.3113H238.286C241.517 39.3113 244.131 41.925 244.131 45.1564V208.084C244.131 211.292 241.493 213.906 238.286 213.906ZM133.5 41.6874C131.599 41.6874 130.031 43.2318 130.031 45.1564V208.084C130.031 210.009 131.599 211.554 133.5 211.554H238.286C240.186 211.554 241.755 210.009 241.755 208.084V45.1564C241.755 43.2318 240.186 41.6874 238.286 41.6874H133.5Z" fill="#C9D5FF"/>
<path d="M184.158 140.128C169.996 139.985 158.425 151.343 158.259 165.481C158.116 179.642 169.474 191.214 183.611 191.38C197.773 191.523 209.344 180.165 209.511 166.027C209.677 151.866 198.319 140.271 184.158 140.128Z" fill="#F1971F"/>
<path d="M183.113 167.145L183.445 135.994C200.363 136.493 213.859 150.441 213.693 167.453L183.113 167.145Z" fill="#F1971F"/>
<path d="M182.139 168.095L182.495 135.02L183.469 135.043C200.838 135.542 214.81 150.084 214.643 167.477V168.427L182.139 168.095ZM184.063 166.217L212.695 166.526C212.386 150.916 199.935 137.966 184.372 137.015L184.063 166.217Z" fill="white"/>
<path d="M204.479 115.434H222.942V79.6268H204.479V115.434Z" fill="#F1971F"/>
<path d="M204.545 107.315H186.083V115.417H204.545V107.315Z" fill="#FFEDE0"/>
<path d="M162.292 115.436H180.754V83.9292H162.292V115.436Z" fill="#F1971F"/>
<path d="M162.37 97.0029H143.908V115.441H162.37V97.0029Z" fill="#FF6600" fill-opacity="0.12"/>
<path d="M238.024 117.413H133.975V115.037H238.024V116.225V117.413Z" fill="#FF6600" fill-opacity="0.12"/>
<path d="M261.405 390.52V384.366H250.071V386.98V390.52L254.062 392.896H257.603L261.405 390.52Z" fill="#FFCEC8"/>
<path d="M261.405 390.52V395.439L232.607 395.367V394.963C232.607 393.894 233.248 392.968 234.222 392.611L250.071 386.956L252.495 389.879C252.495 389.902 256.225 392.706 261.405 390.52Z" fill="#293545"/>
<path d="M232.607 395.367V397.173H261.405V395.438L232.607 395.367Z" fill="#293545"/>
<path d="M319.337 389.04H330.885V384.383H319.337V389.04Z" fill="#FFCEC8"/>
<path d="M317.029 394.298H332.735L331.499 389.023H318.906L317.029 394.298Z" fill="#293545"/>
<path d="M315.983 397.149H333.804V395.082C333.804 394.298 333.163 393.68 332.402 393.68H317.409C316.625 393.68 316.007 394.322 316.007 395.082V397.149H315.983Z" fill="#293545"/>
<path d="M315.983 395.32V397.126L333.78 397.15V395.415L315.983 395.32Z" fill="#293545"/>
<path d="M324.608 197.035L334.588 384.366H316.506L298.733 233.104C298.543 231.299 297.07 229.944 295.311 229.944C293.648 229.944 292.222 231.18 291.937 232.867L264.446 384.366H247.457L266.656 197.035H324.608Z" fill="#293545"/>
<path d="M294.195 100.091C300.634 100.091 305.862 94.8638 305.862 88.4246V77.4946H282.505V88.4246C282.528 94.8638 287.756 100.091 294.195 100.091Z" fill="#FFCEC8"/>
<path d="M304.53 88.8049C304.53 90.4919 304.839 91.87 306.479 91.87C308.118 91.87 310.47 90.4919 310.47 88.8049C310.47 87.1179 309.14 85.7397 307.5 85.7397C305.861 85.7397 304.53 87.1179 304.53 88.8049Z" fill="#FFCEC8"/>
<path d="M284.429 88.8049C284.429 90.4919 284.12 91.87 282.481 91.87C280.841 91.87 278.489 90.4919 278.489 88.8049C278.489 87.1179 279.819 85.7397 281.459 85.7397C283.098 85.7397 284.429 87.1179 284.429 88.8049Z" fill="#FFCEC8"/>
<path d="M303.628 95.2681L305.457 107.457C305.457 107.457 301.727 113.635 293.102 113.493C284.477 113.326 283.859 107.457 283.859 107.457L284.405 94.8167L303.628 95.2681Z" fill="#FFCEC8"/>
<path d="M303.628 95.2681C303.628 95.2681 301.703 99.9965 294.67 100.092C287.637 100.187 284.429 94.8167 284.429 94.8167C284.429 94.8167 286.377 100.163 292.27 101.398C293.957 101.755 295.715 101.612 297.379 101.137C299.802 100.424 303.058 98.8322 303.628 95.2681Z" fill="#FFBDB5"/>
<path d="M305.861 86.2628V78.7544C305.861 78.7544 301.489 78.0653 297.901 81.7482C294.29 85.4312 282.528 81.2017 282.528 81.2017V85.9539C282.528 85.9539 279.962 85.2648 278.916 87.2132C278.916 87.2132 279.415 85.051 277.467 83.1976C275.519 81.3205 276.897 75.0477 282.528 74.2873C282.528 74.2873 280.199 66.375 287.304 66.0661C294.432 65.7572 297.616 70.7232 297.616 70.7232C297.616 70.7232 300.871 65.0919 304.531 67.3492C308.213 69.6064 312.039 73.0518 309.972 79.7048L308.546 85.9539C308.57 85.9539 306.764 85.3124 305.861 86.2628Z" fill="#384B61"/>
<path d="M264.565 186.628L263.377 210.793L239.687 174.368C237.24 168.618 237.477 162.083 240.329 156.5L259.48 115.845L266.299 154.931L257.294 166.503L264.565 186.628Z" fill="#F1971F"/>
<path d="M304.079 102.895L333.091 115.369L326.105 224.051H318.193C309.782 224.051 303.034 217.09 303.319 208.678L306.574 106.388L304.079 102.895Z" fill="#F1971F"/>
<path d="M284.714 102.895L282.504 106.388L286.449 208.583C286.781 217.018 280.009 224.051 271.574 224.051H263.472L259.456 115.821L284.714 102.895Z" fill="#F1971F"/>
<path d="M284.714 102.895H304.079L294.456 113.231L284.714 102.895Z" fill="#384B61"/>
<path d="M284.714 102.895L294.599 109.025L304.079 102.895L306.55 106.388L303.818 202.334H285.855L282.504 106.388L284.714 102.895Z" fill="#FDA74C"/>
<path d="M304.079 102.895L304.483 104.725L294.599 109.026L284.572 104.273L284.714 102.895H304.079Z" fill="#FFCEC8"/>
<path d="M284.239 98.3093L294.694 109.596L289.443 117.817L281.887 108.123L279.796 105.152L284.239 98.3093Z" fill="#F1971F"/>
<path d="M304.222 98.4282L294.527 109.596L299.779 117.817L307.334 108.123L309.497 104.962L304.222 98.4282Z" fill="#F1971F"/>
<path d="M262.426 160.823C261.927 160.823 261.523 160.443 261.476 159.944L259.385 129.031C259.361 128.509 259.741 128.057 260.264 128.01C260.834 127.938 261.238 128.366 261.286 128.889L263.377 159.802C263.4 160.324 263.02 160.776 262.498 160.823C262.474 160.823 262.45 160.823 262.426 160.823Z" fill="#E34934"/>
<path d="M344.663 220.535L347.11 227.83L369.089 227.877L357.518 223.885L355.189 218.183L344.663 220.535Z" fill="#FFCEC8"/>
<path d="M200.577 237.167H384.795C387.385 237.167 389.476 235.076 389.476 232.487C389.476 229.897 387.385 227.806 384.795 227.806H200.577C197.987 227.806 195.896 229.897 195.896 232.487C195.896 235.076 197.987 237.167 200.577 237.167Z" fill="#F1971F"/>
<path d="M201.504 397.649C201.456 397.649 201.385 397.649 201.337 397.625C200.696 397.53 200.244 396.936 200.339 396.27L223.292 237.667C223.387 237.025 224.005 236.55 224.647 236.669C225.288 236.764 225.74 237.358 225.645 238.023L202.692 396.627C202.597 397.221 202.098 397.649 201.504 397.649Z" fill="#293545"/>
<path d="M389.285 398.527C388.715 398.527 388.216 398.123 388.121 397.529L362.364 238.047C362.269 237.405 362.697 236.787 363.339 236.692C364.004 236.574 364.598 237.025 364.693 237.667L390.45 397.149C390.545 397.791 390.117 398.409 389.475 398.504C389.428 398.527 389.357 398.527 389.285 398.527Z" fill="#293545"/>
<path d="M349.296 174.107C348.369 166.574 333.091 115.37 333.091 115.37L325.915 154.932L332.093 176.649L342.69 222.294L358.729 219.799L349.296 174.107Z" fill="#F1971F"/>
<path d="M328.339 158.971C328.292 158.971 328.268 158.971 328.244 158.971C327.721 158.923 327.341 158.448 327.412 157.925L330.62 128.866C330.668 128.343 331.19 127.963 331.666 128.034C332.188 128.082 332.569 128.557 332.497 129.079L329.242 158.139C329.218 158.614 328.814 158.971 328.339 158.971Z" fill="#E34934"/>
<path d="M313.678 227.877H292.436V223.838H309.639C311.872 223.814 313.678 225.643 313.678 227.877Z" fill="#293545"/>
<path d="M295.002 227.877H233.699L223.957 197.154C223.078 194.421 225.122 191.618 227.997 191.618H280.389C282.243 191.618 283.882 192.806 284.429 194.588L295.002 227.877Z" fill="#293545"/>
<path d="M253.35 211.885C254.015 213.81 255.987 214.879 257.745 214.261C259.504 213.644 260.407 211.6 259.741 209.676C259.076 207.751 257.104 206.682 255.346 207.299C253.587 207.917 252.708 209.961 253.35 211.885Z" fill="#44576E"/>
<path d="M127.607 376.428L136.945 392.467L142.695 392.609L146.616 394.89C147.044 395.128 147.329 395.579 147.376 396.055C147.447 396.791 146.925 397.362 146.212 397.338L136.042 397.076L128.819 386.004C128.819 386.004 127.298 385.006 127.179 386.527C127.084 387.738 127.773 393.512 128.059 395.865C128.13 396.411 127.773 396.863 127.274 396.839C126.799 396.815 126.372 396.411 126.3 395.888L124.898 385.291C124.898 385.291 121.619 378.068 127.607 376.428Z" fill="#F1971F"/>
<path d="M136.946 392.467L142.696 392.61L136.993 367.471L127.608 376.429L136.946 392.467Z" fill="#FFCEC8"/>
<path d="M95.7677 279.651C96.9557 283.857 120.027 349.888 127.607 376.429L137.492 369.681C137.492 369.681 122.879 280.34 122.404 279.509L95.7677 279.651Z" fill="#FFCEC8"/>
<path d="M83.9349 376.358L93.1541 392.468L98.9042 392.658L102.801 394.962C103.229 395.224 103.514 395.651 103.538 396.127C103.609 396.863 103.086 397.434 102.373 397.41L92.2036 397.053L85.0516 385.933C85.0516 385.933 83.5309 384.912 83.4121 386.432C83.3171 387.644 83.9586 393.418 84.22 395.794C84.2913 396.341 83.9349 396.792 83.4359 396.768C82.9607 396.744 82.533 396.317 82.4617 395.794L81.1311 385.197C81.1311 385.197 77.9234 377.95 83.9349 376.358Z" fill="#F1971F"/>
<path d="M93.1303 392.467L98.8804 392.657L94.8173 367.471L83.9348 376.357L93.1303 392.467Z" fill="#FFCEC8"/>
<path d="M96.0292 319.189C96.0529 319.141 96.0529 319.094 96.0529 319.07C95.9816 300.346 102.088 272 96.5757 267.556L72.3396 279.366C72.5535 281.433 74.7395 297.828 77.2819 317.383C77.2819 317.502 77.2819 317.597 77.2819 317.716L96.0054 319.26C96.0292 319.212 96.0292 319.212 96.0292 319.189Z" fill="#FFCEC8"/>
<path d="M94.8172 367.471C96.2904 339.315 94.841 341.881 96.1954 317.384L77.4005 317.859C78.9212 339.315 83.2695 362.006 83.911 376.358L94.8172 367.471Z" fill="#FFCEC8"/>
<path d="M59.8178 301.654C64.665 295.999 63.9047 290.605 65.6392 282.764C69.037 267.462 69.1083 251.685 70.0112 236.026C70.9141 220.392 73.1001 204.329 80.8937 190.738C81.559 189.574 82.3193 188.386 83.5073 187.744C85.028 186.936 86.8814 187.198 88.5684 187.507C94.0096 188.481 109.335 190.524 109.335 190.524C109.335 190.524 113.28 222.34 116.464 233.294C116.464 233.294 127.465 267.533 129.389 291.128C129.389 291.128 114.349 283.144 84.0776 300.347C84.0776 300.347 74.6683 304.386 65.2828 302.913L59.8178 301.654Z" fill="#F1971F"/>
<path d="M90.8496 296.783L94.6038 284.617L96.9086 297.305L90.8496 296.783Z" fill="#FFCEC8"/>
<path d="M113.588 98.8552C112.163 94.7683 110.523 93.3189 109.668 91.6082L91.3007 91.9646L88.9959 107.195L85.7645 129.15L101.209 129.364L101.779 120.097C101.779 120.097 101.898 120.121 102.088 120.169C103.3 120.525 104.583 120.596 105.795 120.905C107.149 121.238 108.48 121.689 109.882 121.784C110.286 121.808 110.713 121.808 111.046 121.571C111.26 121.404 111.379 121.143 111.497 120.881C112.733 118.125 113.517 115.06 113.66 112.019C113.874 107.385 113.588 98.8552 113.588 98.8552Z" fill="#FFCEC8"/>
<path d="M97.0036 109.927C95.1503 110.497 93.487 110.378 92.798 108.168C92.1089 105.959 92.6792 102.49 94.5325 101.919C96.3859 101.349 98.4293 102.68 99.1184 104.889C99.8074 107.099 98.857 109.356 97.0036 109.927Z" fill="#FFCEC8"/>
<path d="M84.6003 100.352C84.6003 100.352 84.1489 112.732 71.2943 121.262C58.4634 129.792 59.8178 152.84 80.2759 156.024L79.8482 135.993C79.8482 135.993 81.3926 129.317 85.9785 127.701C85.9785 127.701 94.7224 125.776 95.364 113.825C95.364 113.825 94.0096 108.716 99.4508 107.005C104.916 105.294 108.052 100.732 107.363 95.1011L95.8392 97.8811L84.6003 100.352Z" fill="#F1971F"/>
<path d="M79.4199 137.895L80.9168 169.853L75.6419 191.499L109.359 190.549C109.097 184.323 112.709 159.232 112.709 159.232L114.396 157.925C116.463 156.333 118.198 151.391 118.198 151.391L106.935 136.73C106.935 136.73 103.965 131.907 98.5236 132.43L79.4199 137.895Z" fill="#384B61"/>
<path d="M101.162 128.913L106.959 136.706C106.959 136.706 102.35 140.199 98.5479 132.405C98.5479 132.405 97.7875 130.267 95.9104 129.198L101.162 128.913Z" fill="#FFCEC8"/>
<path d="M142.624 160.633L139.725 154.931L101.898 173.987L104.464 182.778C105.391 185.986 109.216 187.269 111.901 185.297L142.624 160.633Z" fill="#FFCEC8"/>
<path d="M95.4351 154.336C94.1995 154.289 93.1303 154.027 91.8947 153.885C87.8554 153.41 91.2294 156.237 88.1167 158.946L105.486 184.679L119.933 179.451L105.462 151.675C102.041 153.6 99.1418 154.479 95.4351 154.336Z" fill="#FFCEC8"/>
<path d="M87.0478 127.297C83.151 128.248 79.6582 131.812 79.3968 135.97C79.2542 138.156 79.8245 140.342 80.3948 142.457C81.559 146.781 82.7233 151.082 83.8876 155.406C84.4816 157.568 85.0519 159.754 85.6221 161.917C85.7885 162.511 86.8102 164.768 86.4063 165.267C89.8753 160.776 95.3641 157.592 101.067 158.661C102.302 158.899 103.752 159.541 104.987 159.849C109.692 160.966 108.314 160.42 112.187 157.854C110.001 154.527 111.783 151.343 109.597 147.993C107.72 145.165 105.748 142.361 103.847 139.581C100.235 134.283 96.8135 126.822 89.21 127.036C88.4735 127.012 87.7369 127.131 87.0478 127.297Z" fill="#384B61"/>
<path d="M110.808 159.588C110.737 159.659 110.642 159.707 110.547 159.73C110.167 159.849 109.763 159.635 109.644 159.255L105.7 146.733C104.464 142.789 102.587 139.082 100.164 135.756L97.0034 131.384C96.7658 131.075 96.8371 130.6 97.1697 130.386C97.4786 130.148 97.93 130.219 98.1677 130.552L101.328 134.924C103.846 138.393 105.771 142.219 107.078 146.329L111.022 158.851C111.094 159.113 110.999 159.398 110.808 159.588Z" fill="#212B38"/>
<path d="M84.6002 100.352C84.6002 100.352 83.9824 89.5412 93.2016 86.6662C102.397 83.7911 114.182 86.4048 113.873 96.0517C113.565 105.722 107.03 112.114 95.3638 113.825L87.0475 116.629L84.6002 100.352Z" fill="#F1971F"/>
<path d="M139.726 154.954L142.244 152.079C142.244 152.079 142.719 150.06 144.763 148.99C146.165 148.277 148.303 147.089 149.491 146.424C149.99 146.139 150.608 146.329 150.869 146.828L149.99 147.778L157.475 144.547C157.808 144.404 158.188 144.571 158.283 144.927C158.354 145.189 158.259 145.474 158.021 145.616L152.58 148.776C152.652 148.8 153.079 148.967 153.269 149.466C153.436 149.941 153.246 150.321 153.222 150.392C153.103 150.487 152.96 150.582 152.842 150.677C153.15 150.796 153.364 151.057 153.388 151.366C153.412 151.604 153.293 151.794 153.246 151.842C153.032 152.079 152.842 152.341 152.628 152.578C152.937 152.531 153.246 152.673 153.388 152.958C153.507 153.243 153.459 153.552 153.222 153.766C152.509 154.835 151.796 155.881 151.083 156.95L145.191 159.089L142.624 160.609L139.726 154.954Z" fill="#FFCEC8"/>
<path d="M145.19 150.44C145.119 150.44 145.072 150.416 145.024 150.369C144.929 150.273 144.953 150.131 145.048 150.036C145.095 149.988 146.093 149.109 147.638 148.61C149.087 148.135 149.753 147.636 149.753 147.636C149.848 147.541 150.014 147.565 150.085 147.684C150.156 147.779 150.156 147.945 150.038 148.016C150.014 148.04 149.301 148.563 147.757 149.062C146.307 149.537 145.333 150.369 145.333 150.392C145.309 150.416 145.238 150.44 145.19 150.44Z" fill="#FF9D91"/>
<path d="M150.703 150.226C150.632 150.226 150.537 150.179 150.513 150.107C150.442 149.988 150.466 149.846 150.584 149.775L152.462 148.563C152.58 148.492 152.723 148.515 152.794 148.634C152.865 148.753 152.842 148.895 152.723 148.967L150.846 150.179C150.798 150.226 150.751 150.226 150.703 150.226Z" fill="#FF9D91"/>
<path d="M151.107 152.53C151.035 152.53 150.988 152.507 150.94 152.459C150.845 152.364 150.845 152.221 150.94 152.126L152.675 150.511C152.77 150.416 152.912 150.416 153.007 150.534C153.103 150.63 153.103 150.772 153.007 150.867L151.273 152.483C151.225 152.53 151.154 152.53 151.107 152.53Z" fill="#FF9D91"/>
<path d="M151.083 154.859C151.036 154.859 150.988 154.836 150.941 154.812C150.846 154.741 150.822 154.574 150.893 154.479L152.438 152.483C152.509 152.388 152.651 152.364 152.77 152.436C152.865 152.507 152.889 152.673 152.818 152.768L151.273 154.764C151.226 154.812 151.154 154.859 151.083 154.859Z" fill="#FF9D91"/>
<path d="M405.633 132.169L401.712 125.088L402.116 120.692C402.188 119.885 402.021 119.1 401.617 118.388L399.027 113.921L399.621 127.013L395.867 127.25L393.919 113.635L393.467 113.849C391.448 114.776 390.26 116.891 390.497 119.077L390.854 122.403C390.949 123.33 391.305 124.209 391.852 124.946L395.558 131.908L399.075 139.844L405.633 132.169Z" fill="#FFCEC8"/>
<path d="M400.5 127.226L398.908 109.833C398.908 108.93 398.195 108.17 397.292 108.099L395.225 107.909C394.085 107.813 393.134 108.788 393.301 109.928L395.843 127.274L400.5 127.226Z" fill="#384B61"/>
<path d="M443.317 163.865L434.287 172.918C432.339 174.867 429.868 176.173 427.207 176.672C422.858 177.48 418.391 176.102 415.231 172.918L414.756 172.443C413.616 171.302 412.689 169.996 412 168.522L393.3 133.356L404.087 128.699L425.045 156.143L437.685 140.841C437.709 140.865 443.245 158.21 443.317 163.865Z" fill="#384B61"/>
<path d="M432.458 106.27C433.717 104.963 434.05 103.157 434.074 101.779C433.979 101.351 433.884 100.948 433.789 100.496C431.484 96.9557 432.197 93.7718 432.197 93.7718L434.002 88.7345L455.601 84.6714C456.979 85.9782 459.355 100.924 459.355 100.924L464.392 120.289L447.855 123.402L447 114.182C447 114.182 441.273 115.917 440.655 116.107C437.068 117.176 435.784 108.836 435.713 108.551V108.599C432.125 109.002 432.458 106.27 432.458 106.27Z" fill="#FFCEC8"/>
<path d="M451.277 105.818C453.7 106.483 455.862 106.269 456.646 103.394C457.454 100.519 456.575 96.0284 454.175 95.3631C451.752 94.6978 449.162 96.4798 448.354 99.3786C447.546 102.277 448.853 105.153 451.277 105.818Z" fill="#FFCEC8"/>
<path d="M442.723 96.3138C441.25 94.698 440.513 92.417 440.775 90.2548C439.301 91.9893 437.329 93.2724 435.143 93.8902C431.793 94.8406 429.013 93.2011 428.158 89.8033C427.564 87.3797 428.609 84.7422 430.391 83.0077C432.197 81.2732 434.62 80.3465 437.092 79.895C438.779 79.5861 440.537 79.4673 442.153 78.8258C444.03 78.0654 444.909 76.4259 446.335 75.0953C449.637 71.9827 455.411 72.4816 458.666 75.6418C461.922 78.802 462.753 83.9819 461.375 88.3064C461.138 89.0667 460.829 89.8033 460.781 90.6112C460.734 91.419 460.995 92.2744 461.637 92.7021C462.682 93.3912 464.369 92.8684 465.106 93.8664C465.7 94.6743 465.153 95.8385 464.393 96.4801C463.632 97.1216 462.658 97.5731 462.112 98.4047C461.446 99.4027 461.589 100.852 462.444 101.707C463.3 102.563 464.749 102.682 465.747 101.993C466.603 104.606 464.963 107.766 462.349 108.598C459.712 109.43 456.575 107.743 455.791 105.105C455.387 103.751 455.554 102.278 455.387 100.852C455.221 99.4502 454.532 97.9057 453.178 97.478C451.301 96.8603 449.946 98.6898 448.164 98.8086C446.192 98.9275 443.982 97.6919 442.723 96.3138Z" fill="#384B61"/>
<path d="M436.688 107.34C436.688 107.34 436.712 107.364 436.735 107.435C436.854 107.696 437.02 108.362 437.044 109.288L437.686 109.692L438.47 108.956L436.688 107.34Z" fill="#FFCEC8"/>
<path d="M535.912 373.817L526.503 358.871L514.623 367.14L525.98 383.131L535.912 373.817Z" fill="#FFCEC8"/>
<path d="M529.972 364.361L535.913 373.817L525.981 383.132L519.399 373.865L529.972 364.361Z" fill="#FFCEC8"/>
<path d="M514.671 397.174C515.241 397.435 515.906 397.388 516.405 397.007L536.911 381.801L537.077 381.658C537.814 381.04 538.289 380.161 538.408 379.211C538.503 378.331 538.265 377.429 537.79 376.692L536.198 374.34L534.083 371.037C534.083 371.037 533.061 377.856 529.664 375.789C526.123 373.651 523.177 379.211 523.177 379.211L513.791 395.154C513.53 395.938 513.91 396.817 514.671 397.174Z" fill="#293545"/>
<path d="M436.141 209.035C436.141 209.035 464.987 213.359 476.487 208.56L481.311 208.132L492.526 296.285L468.218 309.709L436.141 209.035Z" fill="#293545"/>
<path d="M491.361 294.694L532.088 366.665L516.263 378.498L468.195 309.734L491.361 294.694Z" fill="#293545"/>
<path d="M431.175 372.937L446.121 373.198L447.285 387.479L447.119 389.926L446.572 389.997C445.194 392.682 442.034 394.227 438.921 393.276L433.599 391.684L431.175 372.937Z" fill="#FFCEC8"/>
<path d="M416.253 396.46C416.562 397.03 417.132 397.363 417.774 397.339L444.576 396.935H444.79C445.74 396.864 447.641 396.436 448.307 395.724C448.901 395.058 447.309 386.623 447.309 386.623C447.309 386.623 442.485 391.565 440.941 387.882C439.325 384.081 433.67 386.861 433.67 386.861L416.728 394.298C416.039 394.797 415.826 395.723 416.253 396.46Z" fill="#293545"/>
<path d="M481.287 208.156L457.953 276.73L449.685 304.506L422.193 296.618L437.638 192.997C446.596 198.438 468.242 204.687 481.287 208.156Z" fill="#314154"/>
<path d="M448.829 382.275L428.87 383.345L422.217 296.618L449.685 304.506L448.829 382.275Z" fill="#314154"/>
<path d="M440.204 123.496C442.913 120.811 444.457 120.336 447.641 117.746C447.665 117.722 447.665 117.722 447.689 117.699C448.021 117.413 448.354 117.128 448.71 116.867L465.343 116.938C473.469 118.055 480.36 123.615 482.974 131.409C485.16 137.967 484.399 146.663 484.732 157.45C485.563 183.492 492.715 231.109 492.715 231.109C492.715 231.109 466.246 239.687 448.615 228.923C441.202 224.385 440.204 123.496 440.204 123.496Z" fill="#384B61"/>
<path d="M434.003 207.99C437.567 213.289 439.919 216.472 445.242 218.92C441.131 182.495 439.896 151.724 448.26 117.699C436.023 129.033 435.262 146.449 433.979 159.827L434.003 207.99Z" fill="#293545"/>
<path d="M465.961 116.13C465.961 116.13 461.066 124.612 450.065 126.228C446.168 126.798 443.198 123.448 445.218 120.692C446.145 119.432 446.834 117.84 448.901 115.987L457.336 112.851L465.961 116.13Z" fill="#FFCEC8"/>
<path d="M491.789 157.117L484.067 131.717C481.619 125.919 475.133 119.575 468.836 119.408L461.565 123.186L466.603 167.096C467.791 165.742 475.061 160.491 481.738 159.184C488.177 157.925 491.789 157.117 491.789 157.117Z" fill="#384B61"/>
<path d="M464.702 112.875L466.888 117.699C466.888 117.699 447.689 147.162 447.689 171.945V129.983L448.212 122.499L464.702 112.875Z" fill="#384B61"/>
<path d="M452.275 128.724L446.24 122.736L464.702 112.875L466.65 117.176L452.275 128.724Z" fill="white"/>
<path d="M446.24 122.735L446.121 127.107L449.471 125.896L446.24 122.735Z" fill="#384B61"/>
<path d="M442.248 124.922C442.248 124.922 429.987 137.634 424.95 158.068C424.118 161.442 421.861 164.365 418.677 165.766C416.491 166.741 413.83 167.026 411.074 165.315L405.324 168.309L409.933 173.037C409.933 173.037 428.348 176.15 430.985 161.846C433.623 147.542 440.181 131.48 446.145 127.108L442.248 124.922Z" fill="#F1971F"/>
<path d="M446.24 122.736L444.577 121.714L442.248 124.922L440.846 126.656L444.505 128.557L446.121 127.108L446.24 122.736Z" fill="#FF462E"/>
<path d="M457.645 160.303L452.75 171.732L431.817 153.65C431.532 153.317 431.484 152.77 431.674 152.343C431.888 151.82 432.411 151.582 432.839 151.772C431.841 150.917 430.866 150.085 429.868 149.23C429.845 149.23 429.512 148.612 429.726 147.947C429.94 147.377 430.486 146.973 431.057 147.092C430.676 146.806 430.296 146.498 429.916 146.212C429.607 145.642 429.607 144.834 429.987 144.24C430.32 143.646 430.843 143.456 431.437 143.599C431.983 144.05 432.553 144.478 433.076 144.906L436.64 147.709L433.979 143.86C433.575 143.242 433.504 142.625 433.979 142.007C434.454 141.437 435.072 141.437 435.595 141.912C438.066 144.407 440.775 146.45 443.27 148.945L442.319 146.83C442.082 146.379 441.963 145.832 441.986 145.286C442.034 144.478 442.343 143.741 442.818 143.242L445.408 147.424L447.927 151.582C448.449 152.462 448.782 152.414 448.687 153.531L457.645 160.303Z" fill="#FFCEC8"/>
<path d="M442.248 164.366L450.469 152.984L469.454 165.316L466.888 156.833L491.718 156.905C494.308 165.15 495.33 173.252 494.641 181.236C494.569 182.115 494.237 182.97 493.738 183.707C487.584 192.593 475.014 194.043 467.007 186.772L442.248 164.366Z" fill="#384B61"/>
<path d="M442.415 164.056L439.753 161.728L448.545 151.606L450.469 152.984L442.415 164.056Z" fill="white"/>
<path d="M478.982 192.213C482.902 192.213 485.587 190.882 485.778 190.787C486.11 190.621 486.253 190.217 486.086 189.884C485.92 189.552 485.516 189.409 485.184 189.575C485.112 189.623 478.459 192.878 471.022 188.72C463.347 184.443 450.136 170.567 449.994 170.424C449.732 170.163 449.305 170.139 449.043 170.4C448.782 170.662 448.758 171.089 449.02 171.351C449.566 171.921 462.516 185.512 470.381 189.908C473.493 191.69 476.487 192.213 478.982 192.213Z" fill="#212B38"/>
<path d="M470.666 166.432C470.808 166.432 470.951 166.385 471.07 166.29C471.284 166.123 471.402 165.838 471.307 165.553L464.345 141.626C464.25 141.269 463.87 141.056 463.514 141.174C463.157 141.269 462.944 141.65 463.062 142.006L469.525 164.222L452.726 153.625C452.417 153.435 451.99 153.53 451.8 153.839C451.61 154.148 451.705 154.575 452.014 154.766L470.333 166.313C470.428 166.408 470.547 166.432 470.666 166.432Z" fill="#212B38"/>
<path d="M404.112 128.723L402.9 127.274L393.324 130.981L394.465 132.881L404.112 128.723Z" fill="white"/>
<path d="M514.6 32.1584L462.065 2.83751C455.768 -0.679096 447.808 1.57818 444.292 7.8748L432.839 28.3804C429.322 34.677 431.58 42.6369 437.876 46.1535L470.048 64.1167L472.021 74.0725C472.52 76.5436 475.086 77.9692 477.438 77.0901L486.942 73.5497L490.412 75.4743C496.708 78.991 504.668 76.7337 508.185 70.4371L519.637 49.9315C523.154 43.6111 520.897 35.675 514.6 32.1584Z" fill="white"/>
<path d="M476.036 78.5167C475.157 78.5167 474.278 78.3028 473.47 77.8514C472.116 77.091 471.165 75.808 470.88 74.2873L469.003 64.878L437.306 47.1999C430.439 43.3744 427.968 34.678 431.817 27.8111L443.27 7.30548C447.096 0.438601 455.792 -2.03252 462.659 1.81673L515.218 31.1376C518.544 32.9909 520.944 36.0323 521.99 39.6915C523.035 43.3507 522.584 47.1999 520.73 50.5264L509.278 71.032C505.452 77.8989 496.756 80.37 489.889 76.5208L486.895 74.8575L477.89 78.2078C477.272 78.4216 476.654 78.5167 476.036 78.5167ZM455.721 2.36323C451.563 2.36323 447.5 4.54923 445.337 8.446L433.885 28.9516C430.701 34.678 432.744 41.925 438.47 45.109L470.643 63.0721C470.951 63.2385 471.165 63.5474 471.237 63.88L473.209 73.8358C473.375 74.6674 473.898 75.3803 474.634 75.7842C475.371 76.1881 476.25 76.2594 477.034 75.9743L486.539 72.4339C486.871 72.3151 487.228 72.3389 487.537 72.5052L491.006 74.4298C496.732 77.6138 503.979 75.5703 507.163 69.844L518.616 49.3384C520.16 46.5584 520.54 43.3744 519.661 40.3093C518.806 37.2679 516.786 34.7255 514.03 33.181L461.471 3.86016C459.665 2.83845 457.669 2.36323 455.721 2.36323Z" fill="#F1971F"/>
<path d="M456.695 17.5454L504.05 43.9675L456.695 17.5454Z" fill="white"/>
<path d="M504.05 45.1553C503.86 45.1553 503.646 45.1078 503.48 45.0127L456.125 18.5669C455.554 18.258 455.341 17.5215 455.673 16.9512C455.982 16.3809 456.719 16.1671 457.289 16.4997L504.644 42.9218C505.215 43.2307 505.428 43.9673 505.096 44.5375C504.858 44.9177 504.454 45.1553 504.05 45.1553Z" fill="#F1971F"/>
<path d="M452.75 24.6018L500.106 51.0239L452.75 24.6018Z" fill="white"/>
<path d="M500.106 52.2128C499.916 52.2128 499.702 52.1653 499.535 52.0703L452.18 25.6482C451.61 25.3393 451.396 24.6028 451.729 24.0325C452.038 23.4622 452.774 23.2484 453.344 23.581L500.7 50.0031C501.27 50.312 501.484 51.0486 501.151 51.6188C500.914 51.999 500.51 52.2128 500.106 52.2128Z" fill="#F1971F"/>
<path d="M448.806 31.6594L476.963 47.3653L448.806 31.6594Z" fill="white"/>
<path d="M476.963 48.5533C476.773 48.5533 476.559 48.5058 476.393 48.4108L448.236 32.7049C447.666 32.396 447.452 31.6594 447.785 31.0891C448.093 30.5189 448.83 30.305 449.4 30.6377L477.557 46.3436C478.127 46.6525 478.341 47.3891 478.008 47.9593C477.771 48.3395 477.367 48.5533 476.963 48.5533Z" fill="#F1971F"/>
<path d="M582.247 399.644H1.53246C0.86716 399.644 0.344421 399.122 0.344421 398.456C0.344421 397.791 0.86716 397.268 1.53246 397.268H582.247C582.912 397.268 583.435 397.791 583.435 398.456C583.435 399.122 582.912 399.644 582.247 399.644Z" fill="#F1971F"/>
</svg>
