<svg width="30" height="39" viewBox="0 0 30 39" fill="none" xmlns="http://www.w3.org/2000/svg">
<circle cx="15" cy="19.9004" r="15" fill="#000AFF"/>
<path d="M15 31.1704C12.6 31.1704 10.76 30.2404 9.48 28.3804C8.2 26.5204 7.56 23.8304 7.56 20.3104C7.56 16.7704 8.2 14.0804 9.48 12.2404C10.76 10.4004 12.6 9.48039 15 9.48039C17.42 9.48039 19.26 10.4004 20.52 12.2404C21.8 14.0804 22.44 16.7604 22.44 20.2804C22.44 23.8204 21.8 26.5204 20.52 28.3804C19.24 30.2404 17.4 31.1704 15 31.1704ZM15 29.0104C16.68 29.0104 17.93 28.3004 18.75 26.8804C19.57 25.4604 19.98 23.2604 19.98 20.2804C19.98 17.2804 19.57 15.0904 18.75 13.7104C17.93 12.3104 16.68 11.6104 15 11.6104C13.34 11.6104 12.09 12.3104 11.25 13.7104C10.43 15.1104 10.02 17.3004 10.02 20.2804C10.02 23.2604 10.43 25.4604 11.25 26.8804C12.09 28.3004 13.34 29.0104 15 29.0104Z" fill="white"/>
</svg>
