<svg width="157" height="41" viewBox="0 0 157 41" fill="none" xmlns="http://www.w3.org/2000/svg">
<rect x="0.5" y="1.40039" width="156" height="39" rx="9.5" fill="#FFF9F4" stroke="#A8A5A5"/>
<path d="M9.76 28.9004V14.8004H11.42V27.4604H18.54V28.9004H9.76ZM19.4158 21.8404C19.4158 20.3471 19.6691 19.0671 20.1758 18.0004C20.6958 16.9204 21.4358 16.0871 22.3958 15.5004C23.3691 14.9137 24.5358 14.6204 25.8958 14.6204C27.2158 14.6204 28.3624 14.9137 29.3358 15.5004C30.3091 16.0871 31.0558 16.9204 31.5758 18.0004C32.1091 19.0671 32.3758 20.3404 32.3758 21.8204C32.3758 23.3137 32.1091 24.6004 31.5758 25.6804C31.0424 26.7604 30.2891 27.6004 29.3158 28.2004C28.3558 28.7871 27.2158 29.0804 25.8958 29.0804C24.5358 29.0804 23.3758 28.7871 22.4158 28.2004C21.4558 27.6004 20.7158 26.7604 20.1958 25.6804C19.6758 24.6004 19.4158 23.3204 19.4158 21.8404ZM21.1558 21.8404C21.1558 23.6537 21.5558 25.0737 22.3558 26.1004C23.1558 27.1137 24.3358 27.6204 25.8958 27.6204C27.3891 27.6204 28.5491 27.1137 29.3758 26.1004C30.2158 25.0737 30.6358 23.6537 30.6358 21.8404C30.6358 20.0137 30.2224 18.6004 29.3958 17.6004C28.5691 16.5871 27.4024 16.0804 25.8958 16.0804C24.3358 16.0804 23.1558 16.5871 22.3558 17.6004C21.5558 18.6004 21.1558 20.0137 21.1558 21.8404ZM38.9125 28.9004L33.9925 14.8004H35.7325L40.0325 27.5004H39.3325L43.8525 14.8004H45.1725L49.4525 27.5004H48.8125L53.2325 14.8004H54.8725L49.9125 28.9004H48.4325L44.2725 16.6804H44.6925L40.3525 28.9004H38.9125ZM61.1334 28.9004L67.3534 14.8004H68.7934L75.1134 28.9004H73.3934L71.6334 24.8804L72.3734 25.3004H63.7534L64.5534 24.8804L62.8334 28.9004H61.1334ZM68.0534 16.7004L64.8134 24.3004L64.3334 23.9404H71.7734L71.4134 24.3004L68.0934 16.7004H68.0534ZM77.2605 28.9004V14.8004H78.7005L84.3605 27.5804H83.7805L89.4405 14.8004H90.8805V28.9004H89.3605V16.9404H89.9605L84.6205 28.9004H83.5205L78.1605 16.9404H78.7605V28.9004H77.2605ZM93.8884 21.8404C93.8884 20.3471 94.1418 19.0671 94.6484 18.0004C95.1684 16.9204 95.9084 16.0871 96.8684 15.5004C97.8418 14.9137 99.0084 14.6204 100.368 14.6204C101.688 14.6204 102.835 14.9137 103.808 15.5004C104.782 16.0871 105.528 16.9204 106.048 18.0004C106.582 19.0671 106.848 20.3404 106.848 21.8204C106.848 23.3137 106.582 24.6004 106.048 25.6804C105.515 26.7604 104.762 27.6004 103.788 28.2004C102.828 28.7871 101.688 29.0804 100.368 29.0804C99.0084 29.0804 97.8484 28.7871 96.8884 28.2004C95.9284 27.6004 95.1884 26.7604 94.6684 25.6804C94.1484 24.6004 93.8884 23.3204 93.8884 21.8404ZM95.6284 21.8404C95.6284 23.6537 96.0284 25.0737 96.8284 26.1004C97.6284 27.1137 98.8084 27.6204 100.368 27.6204C101.862 27.6204 103.022 27.1137 103.848 26.1004C104.688 25.0737 105.108 23.6537 105.108 21.8404C105.108 20.0137 104.695 18.6004 103.868 17.6004C103.042 16.5871 101.875 16.0804 100.368 16.0804C98.8084 16.0804 97.6284 16.5871 96.8284 17.6004C96.0284 18.6004 95.6284 20.0137 95.6284 21.8404ZM115.418 29.0804C113.511 29.0804 112.091 28.5937 111.158 27.6204C110.238 26.6471 109.778 25.2137 109.778 23.3204V14.8004H111.418V23.2404C111.418 24.6937 111.738 25.7871 112.378 26.5204C113.018 27.2537 114.031 27.6204 115.418 27.6204C116.724 27.6204 117.718 27.2537 118.398 26.5204C119.078 25.7871 119.418 24.6937 119.418 23.2404V14.8004H121.058V23.3204C121.058 25.2137 120.578 26.6471 119.618 27.6204C118.671 28.5937 117.271 29.0804 115.418 29.0804ZM124.467 28.9004V14.8004H125.767L134.807 26.8004H134.347V14.8004H135.887V28.9004H134.607L125.567 16.9004H126.007V28.9004H124.467ZM142.828 28.9004V16.2004H137.848V14.8004H149.448V16.2004H144.488V28.9004H142.828Z" fill="black"/>
</svg>
