<svg width="112" height="112" viewBox="0 0 112 112" fill="none" xmlns="http://www.w3.org/2000/svg">
<path d="M56.0001 1.40674C34.7205 1.40674 21.6119 13.4098 21.576 13.43C21.576 13.43 21.0309 14.1101 20.9292 14.5625C20.1011 18.2376 19.3276 23.1635 19.3276 26.7578C19.3276 57.2974 45.0815 82.0483 75.6209 82.0483C87.3809 82.0483 100.465 76.4119 109.222 69.6351C109.417 69.4835 110.039 68.4649 110.039 68.4649C110.077 68.2293 111.297 63.3741 111.297 56.7034C111.297 26.1638 86.5397 1.40674 56.0001 1.40674Z" fill="#F1971F"/>
<path d="M75.616 80.4872C45.0764 80.4872 20.3194 55.73 20.3194 25.1906C20.3194 21.154 20.7547 17.2208 21.5759 13.4299C8.85877 23.5612 0.703369 39.1801 0.703369 56.7034C0.703369 70.0066 5.40123 82.2126 13.2283 91.7532L98.7718 91.7541C104.209 85.1299 108.146 77.2018 110.039 68.4649C100.593 75.9886 88.6306 80.4872 75.616 80.4872Z" fill="#FFDFB4"/>
<path d="M78.6683 45.4627H78.4491L76.951 38.097L78.4491 32.0203H78.6683C81.5968 32.0203 83.9709 34.3944 83.9709 37.3228V40.1603C83.9709 43.0885 81.597 45.4627 78.6683 45.4627Z" fill="#FF965A"/>
<path d="M56.4706 97.8635C71.6586 97.8635 83.9709 87.9049 83.9709 75.6202C83.9709 63.3356 71.6586 53.377 56.4706 53.377C41.2826 53.377 28.9703 63.3356 28.9703 75.6202C28.9703 87.9049 41.2826 97.8635 56.4706 97.8635Z" fill="#F1971F"/>
<path d="M86.0208 73.5249L85.5077 73.4114L67.9044 72.5774C50.9911 71.7761 36.8401 85.2726 36.8401 102.205V108.585C42.8103 110.791 49.2633 112 56 112C73.1323 112 88.5843 104.166 98.7717 91.7539V89.4063C98.7717 81.7774 93.4696 75.1733 86.0208 73.5249Z" fill="#F1971F"/>
<path d="M56.5133 94.3493C73.0777 94.3493 86.5059 92.0941 86.5059 78.6962C86.5059 76.9044 86.2634 75.1587 85.8078 73.4774L55.9356 66.8672L25.9697 73.5181C18.4662 75.1837 13.2283 81.8368 13.2283 89.3976V91.7529C19.4652 99.3551 27.6894 105.265 37.1068 108.688C39.5176 100.387 47.1956 94.3372 56.2801 94.349C56.3577 94.3493 56.4355 94.3493 56.5133 94.3493Z" fill="#ED8721"/>
<path d="M83.9709 75.6202C83.9709 87.9047 71.6586 89.9725 56.4706 89.9725C41.2827 89.9725 28.9703 87.9047 28.9703 75.6202C28.9703 63.3357 41.2827 53.377 56.4706 53.377C71.6586 53.377 83.9709 63.3355 83.9709 75.6202Z" fill="#F1971F"/>
<path d="M75.3771 72.6116C75.3771 81.0571 66.9125 87.9038 56.4706 87.9038C46.0287 87.9038 37.5641 81.0574 37.5641 72.6116C37.5641 64.1657 46.0287 66.2102 56.4706 66.2102C66.9125 66.2102 75.3771 64.166 75.3771 72.6116Z" fill="#ED8721"/>
<path d="M56.0528 83.5575C60.4524 83.5575 64.0186 79.991 64.0186 75.5916V57.749H48.0868V75.5914C48.0868 79.991 51.6533 83.5575 56.0528 83.5575Z" fill="#FF965A"/>
<path d="M53.4337 74.1534C53.4341 74.1534 53.4343 74.1532 53.4348 74.153C51.5836 74.0541 49.7933 73.7291 48.087 73.2112V57.749H62.697L64.0189 69.6774C62.057 72.8353 56.5736 74.3215 53.4337 74.1534Z" fill="#EF6A30"/>
<path d="M77.6625 29.8002C77.6625 22.5305 72.9988 15.8831 65.7293 15.8831H46.3763C44.302 15.8831 42.4022 16.426 40.7448 17.3684V55.7923C40.7448 64.1789 47.4902 71.0421 55.8764 71.1056C55.9351 71.1061 55.9941 71.1063 56.0528 71.1063C68.5431 71.1063 78.6683 60.9809 78.6683 48.4908V41.3511L77.6625 29.8002Z" fill="#FFBE82"/>
<path d="M78.6682 41.2898V36.1926C79.7786 36.1926 80.6789 37.0928 80.6789 38.2034V39.2793C80.6789 40.3897 79.7788 41.2898 78.6682 41.2898Z" fill="#EF6A30"/>
<path d="M27.9107 40.1601C27.9107 43.0885 30.2849 45.4627 33.2133 45.4627H33.5537L36.2682 39.7439L33.5991 32.0203H33.2131C30.2847 32.0203 27.9105 34.3944 27.9105 37.3228V40.1601H27.9107Z" fill="#FF965A"/>
<path d="M31.0564 39.3184C31.0564 40.5097 32.0221 41.4754 33.2133 41.4754V36.0071C32.0221 36.0071 31.0564 36.9728 31.0564 38.164V39.3184Z" fill="#EF6A30"/>
<path d="M29.6085 41.7512C29.6085 43.742 31.2225 45.356 33.2133 45.356V38.1902C31.2225 38.1902 29.6085 39.8042 29.6085 41.795V41.7512Z" fill="white"/>
<path d="M46.2814 40.0396V41.6343C46.2814 42.6745 47.1248 43.5179 48.165 43.5179C49.2052 43.5179 50.0486 42.6745 50.0486 41.6343V40.0396H46.2814Z" fill="#FF965A"/>
<path d="M61.6289 40.0396V41.6343C61.6289 42.6745 62.4723 43.5179 63.5125 43.5179C64.5527 43.5179 65.3961 42.6745 65.3961 41.6343V40.0396H61.6289Z" fill="#FF965A"/>
<path d="M48.165 42.0091C47.1248 42.0091 46.2814 41.1657 46.2814 40.1255V37.7025L46.9757 36.6511L46.2814 35.5997V34.9739C46.2814 33.9337 47.1248 33.0903 48.165 33.0903C49.2052 33.0903 50.0486 33.9337 50.0486 34.9739V40.1255C50.0486 41.1657 49.2052 42.0091 48.165 42.0091Z" fill="#373C41"/>
<path d="M63.5125 42.0091C62.4723 42.0091 61.6289 41.1657 61.6289 40.1255V37.7025L62.3233 36.6511L61.6289 35.5997V34.9739C61.6289 33.9337 62.4723 33.0903 63.5125 33.0903C64.5527 33.0903 65.3961 33.9337 65.3961 34.9739V40.1255C65.3961 41.1657 64.5527 42.0091 63.5125 42.0091Z" fill="#373C41"/>
<path d="M50.6466 32.1486H45.1535C44.1133 32.1486 43.2699 31.3052 43.2699 30.265C43.2699 29.2247 44.1133 28.3813 45.1535 28.3813H50.6466C51.6868 28.3813 52.5302 29.2247 52.5302 30.265C52.5302 31.3052 51.6868 32.1486 50.6466 32.1486Z" fill="#373C41"/>
<path d="M66.3432 32.1486H60.8502C59.8099 32.1486 58.9666 31.3052 58.9666 30.265C58.9666 29.2247 59.8099 28.3813 60.8502 28.3813H66.3432C67.3834 28.3813 68.2268 29.2247 68.2268 30.265C68.2268 31.3052 67.3834 32.1486 66.3432 32.1486Z" fill="#373C41"/>
<path d="M62.9885 52.4297H61.049L55.941 53.4901L50.8331 52.4297H49.1173C48.5418 52.4297 48.0819 52.932 48.1587 53.5026C48.3055 54.5939 48.6735 55.615 49.2158 56.5198L59.5585 59.5848C61.8943 58.4382 63.5866 56.1814 63.9471 53.5026C64.0239 52.932 63.564 52.4297 62.9885 52.4297Z" fill="#BE1423"/>
<path d="M74.994 21.9323C75.2101 21.9326 75.4236 21.922 75.6358 21.9063C73.6053 18.344 70.1506 15.8828 65.7294 15.8828H46.3764C44.3021 15.8828 42.4022 16.4257 40.7448 17.3682V17.8495C36.4899 19.8348 33.712 24.0853 33.712 29.3016L33.2136 41.3506V48.2666C33.2136 61.32 44.1506 71.7684 57.2787 71.0729C47.7706 68.3117 40.8204 59.5372 40.8204 49.1383C40.877 47.8532 40.8204 35.4015 40.8204 30.6716C40.8204 30.6379 40.8206 30.6043 40.8209 30.5706C40.857 25.7601 44.8206 21.9023 49.6312 21.9071L74.994 21.9323Z" fill="#FF965A"/>
<path d="M53.0008 44.6829C52.5326 46.5527 53.3834 48.5896 55.0108 49.2035C55.3383 49.3271 55.6885 49.3939 56.0528 49.3939C56.4169 49.3939 56.7673 49.3271 57.0948 49.2035C58.7222 48.5896 59.5733 46.5527 59.1049 44.6829L57.5527 38.4841C57.1619 36.9236 54.944 36.9236 54.5532 38.4841L53.0008 44.6829Z" fill="#FF965A"/>
<path d="M78.6683 17.2527V29.9194V29.9201V41.3509C76.9953 41.3509 75.639 39.9946 75.639 38.3216V24.9461C75.639 21.9918 73.9764 19.2687 71.3197 17.9764C71.2546 17.9446 71.1895 17.9137 71.1246 17.8837V17.2529H78.6683V17.2527Z" fill="#262A2D"/>
<path d="M46.9757 38.397C46.5922 38.397 46.2814 38.0862 46.2814 37.7027V35.5999C46.2814 35.2163 46.5922 34.9055 46.9757 34.9055C47.3593 34.9055 47.6701 35.2163 47.6701 35.5999V37.7027C47.6701 38.0862 47.3591 38.397 46.9757 38.397Z" fill="white"/>
<path d="M62.3233 38.397C61.9397 38.397 61.6289 38.0862 61.6289 37.7027V35.5999C61.6289 35.2163 61.9397 34.9055 62.3233 34.9055C62.7068 34.9055 63.0176 35.2163 63.0176 35.5999V37.7027C63.0176 38.0862 62.7068 38.397 62.3233 38.397Z" fill="white"/>
<path d="M49.2164 56.5192C50.6084 58.841 53.1487 60.3956 56.0526 60.3956C57.3107 60.3956 58.4999 60.103 59.5577 59.5838C59.1029 56.7312 56.6323 54.5508 53.6517 54.5508C51.8926 54.5506 50.311 55.3102 49.2164 56.5192Z" fill="#F1971F"/>
<path d="M59.9253 54.5507H51.9566C51.3361 54.5507 50.8329 54.0477 50.8329 53.4269V52.4297H61.049V53.4269C61.0488 54.0477 60.5458 54.5507 59.9253 54.5507Z" fill="white"/>
<path d="M59.354 0.0223562C52.8815 0.028274 47.6782 5.34181 47.7933 11.8135C47.8424 14.571 47.9169 17.328 48.0304 20.0839C48.0313 20.1067 48.0324 20.1295 48.0333 20.1523L74.9939 20.1788C79.6852 20.1835 83.4906 16.3818 83.4906 11.6905V0L59.354 0.0223562Z" fill="#373C41"/>
<path d="M48.1184 12.9348C48.1184 5.81479 53.8867 0.0412055 61.0067 0.0346301L83.4904 0.0138082V0L46.1017 0.0346301C38.9817 0.0412055 33.2134 5.81501 33.2134 12.9348V29.9196V29.9202V41.351C34.8864 41.351 36.2426 39.9947 36.2426 38.3218V24.9462C36.2426 24.9284 36.2426 24.9107 36.2429 24.8932C36.2608 22.2527 38.4572 20.1431 41.0979 20.1458L48.1186 20.1525V12.9348H48.1184Z" fill="#262A2D"/>
<path d="M45.6217 107.705C44.8956 107.705 44.3066 107.116 44.3066 106.39V91.1918C44.3066 90.4656 44.8956 89.8767 45.6217 89.8767C46.3478 89.8767 46.9368 90.4656 46.9368 91.1918V106.39C46.9368 107.116 46.3481 107.705 45.6217 107.705Z" fill="#ED8721"/>
<path d="M45.6217 104.417C44.8956 104.417 44.3066 103.828 44.3066 103.102V87.9037C44.3066 87.1776 44.8956 86.5886 45.6217 86.5886C46.3478 86.5886 46.9368 87.1776 46.9368 87.9037V103.102C46.9368 103.828 46.3481 104.417 45.6217 104.417Z" fill="white"/>
<path d="M67.1024 107.705C66.3763 107.705 65.7874 107.116 65.7874 106.39V91.1918C65.7874 90.4656 66.3763 89.8767 67.1024 89.8767C67.8286 89.8767 68.4175 90.4656 68.4175 91.1918V106.39C68.4175 107.116 67.8288 107.705 67.1024 107.705Z" fill="#ED8721"/>
<path d="M67.1024 104.417C66.3763 104.417 65.7874 103.828 65.7874 103.102V87.9037C65.7874 87.1776 66.3763 86.5886 67.1024 86.5886C67.8286 86.5886 68.4175 87.1776 68.4175 87.9037V103.102C68.4175 103.828 67.8288 104.417 67.1024 104.417Z" fill="white"/>
<path d="M32.2146 50.3803C31.6699 50.3803 31.2283 49.9387 31.2283 49.394V42.009C31.2283 41.4643 31.6699 41.0227 32.2146 41.0227C32.7592 41.0227 33.2009 41.4643 33.2009 42.009V49.394C33.2009 49.9389 32.7592 50.3803 32.2146 50.3803Z" fill="white"/>
<path d="M82.273 42.2995C82.273 44.2903 80.659 45.9043 78.6682 45.9043V38.7385C80.659 38.7385 82.273 40.3526 82.273 42.3433V42.2995Z" fill="white"/>
<path d="M79.6671 50.9286C79.1224 50.9286 78.6808 50.487 78.6808 49.9423V42.5573C78.6808 42.0127 79.1224 41.571 79.6671 41.571C80.2117 41.571 80.6534 42.0127 80.6534 42.5573V49.9423C80.6534 50.487 80.212 50.9286 79.6671 50.9286Z" fill="white"/>
</svg>
