<svg width="30" height="31" viewBox="0 0 30 31" fill="none" xmlns="http://www.w3.org/2000/svg">
<circle cx="15" cy="15.9004" r="15" fill="#000AFF"/>
<path d="M9.26 24.0804C8.64667 24.0804 8.04667 24.0137 7.46 23.8804C6.87333 23.7471 6.32 23.5537 5.8 23.3004C5.29333 23.0471 4.84667 22.7404 4.46 22.3804L5.08 21.1004C5.73333 21.6204 6.4 22.0071 7.08 22.2604C7.76 22.5004 8.48667 22.6204 9.26 22.6204C10.2733 22.6204 11.0667 22.3471 11.64 21.8004C12.2133 21.2537 12.5 20.5337 12.5 19.6404C12.5 18.7204 12.2267 17.9671 11.68 17.3804C11.1333 16.7937 10.3733 16.5004 9.4 16.5004C8.70667 16.5004 8.08667 16.6404 7.54 16.9204C6.99333 17.1871 6.52 17.6071 6.12 18.1804H4.92V9.80039H13.28V11.2004H6.52V16.8204H6.08C6.44 16.2604 6.93333 15.8337 7.56 15.5404C8.2 15.2337 8.92 15.0804 9.72 15.0804C10.6267 15.0804 11.4067 15.2671 12.06 15.6404C12.7267 16.0137 13.24 16.5337 13.6 17.2004C13.96 17.8671 14.14 18.6471 14.14 19.5404C14.14 20.4337 13.94 21.2271 13.54 21.9204C13.1533 22.6004 12.5933 23.1337 11.86 23.5204C11.14 23.8937 10.2733 24.0804 9.26 24.0804ZM21.4522 24.0804C19.7455 24.0804 18.4255 23.4804 17.4922 22.2804C16.5722 21.0671 16.1122 19.3737 16.1122 17.2004C16.1122 15.5737 16.3455 14.2004 16.8122 13.0804C17.2789 11.9471 17.9455 11.0871 18.8122 10.5004C19.6789 9.91372 20.7255 9.62039 21.9522 9.62039C22.6855 9.62039 23.4255 9.77372 24.1722 10.0804C24.9189 10.3737 25.5322 10.7871 26.0122 11.3204L25.4122 12.6004C24.9055 12.0804 24.3522 11.7004 23.7522 11.4604C23.1522 11.2071 22.5455 11.0804 21.9322 11.0804C20.5722 11.0804 19.5255 11.5671 18.7922 12.5404C18.0722 13.5004 17.7122 14.9471 17.7122 16.8804V18.7404H17.5322C17.6255 17.9804 17.8522 17.3271 18.2122 16.7804C18.5855 16.2204 19.0722 15.7937 19.6722 15.5004C20.2722 15.2071 20.9389 15.0604 21.6722 15.0604C22.5255 15.0604 23.2789 15.2471 23.9322 15.6204C24.5855 15.9937 25.0989 16.5204 25.4722 17.2004C25.8455 17.8671 26.0322 18.6337 26.0322 19.5004C26.0322 20.3804 25.8389 21.1671 25.4522 21.8604C25.0655 22.5537 24.5255 23.1004 23.8322 23.5004C23.1389 23.8871 22.3455 24.0804 21.4522 24.0804ZM21.3322 22.6804C21.9455 22.6804 22.4855 22.5537 22.9522 22.3004C23.4322 22.0337 23.7989 21.6671 24.0522 21.2004C24.3189 20.7204 24.4522 20.1737 24.4522 19.5604C24.4522 18.9471 24.3189 18.4071 24.0522 17.9404C23.7989 17.4737 23.4322 17.1071 22.9522 16.8404C22.4855 16.5737 21.9455 16.4404 21.3322 16.4404C20.7189 16.4404 20.1789 16.5737 19.7122 16.8404C19.2455 17.1071 18.8789 17.4737 18.6122 17.9404C18.3589 18.4071 18.2322 18.9471 18.2322 19.5604C18.2322 20.1737 18.3589 20.7204 18.6122 21.2004C18.8789 21.6671 19.2455 22.0337 19.7122 22.3004C20.1789 22.5537 20.7189 22.6804 21.3322 22.6804Z" fill="white"/>
</svg>
