<svg width="913" height="773" viewBox="0 0 913 773" fill="none" xmlns="http://www.w3.org/2000/svg">
<path d="M148.936 508.647C146.958 485.9 123.748 477.399 96.2306 479.801C68.7364 482.203 47.3625 494.636 49.3398 517.36L148.936 508.647Z" fill="#F9ECDB"/>
<path d="M95.3351 469.392C108.094 468.285 112.166 457.5 111.06 444.714C109.953 431.951 104.068 422.037 91.2863 423.144C78.5279 424.25 74.4555 435.035 75.5619 447.822C76.6918 460.609 82.5767 470.523 95.3351 469.392Z" fill="#F9ECDB"/>
<path d="M668.615 24.0717C669.227 31.1126 664.024 37.3293 656.986 37.9416C649.948 38.5538 643.733 33.3497 643.121 26.3087C642.509 19.2678 647.711 13.0511 654.75 12.4388C661.788 11.8266 668.003 17.0307 668.615 24.0717Z" fill="#F9ECDB"/>
<path d="M739.396 17.8782C740.008 24.9191 734.806 31.1358 727.767 31.7481C720.729 32.3603 714.514 27.1562 713.902 20.1153C713.29 13.0743 718.493 6.8576 725.531 6.24534C732.593 5.63309 738.784 10.8372 739.396 17.8782Z" fill="#F9ECDB"/>
<path d="M810.203 11.6852C810.815 18.7261 805.613 24.9429 798.575 25.5551C791.536 26.1674 785.322 20.9632 784.71 13.9223C784.098 6.88136 789.3 0.664626 796.339 0.0523712C803.377 -0.583432 809.568 4.64428 810.203 11.6852Z" fill="#F9ECDB"/>
<path d="M674.924 96.2471C675.536 103.288 670.333 109.505 663.295 110.117C656.257 110.729 650.042 105.525 649.43 98.4842C648.818 91.4432 654.02 85.2265 661.059 84.6142C668.097 84.002 674.312 89.2061 674.924 96.2471Z" fill="#F9ECDB"/>
<path d="M745.705 90.0541C746.317 97.095 741.115 103.312 734.076 103.924C727.038 104.536 720.824 99.3321 720.212 92.2912C719.599 85.2502 724.802 79.0335 731.84 78.4212C738.902 77.809 745.093 83.0132 745.705 90.0541Z" fill="#F9ECDB"/>
<path d="M816.512 83.8604C817.124 90.9013 811.922 97.118 804.884 97.7303C797.846 98.3425 791.631 93.1384 791.019 86.0974C790.407 79.0565 795.609 72.8398 802.648 72.2275C809.686 71.6153 815.9 76.8194 816.512 83.8604Z" fill="#F9ECDB"/>
<path d="M681.233 168.422C681.845 175.463 676.642 181.68 669.604 182.292C662.566 182.904 656.351 177.7 655.739 170.659C655.127 163.618 660.33 157.402 667.368 156.789C674.43 156.177 680.621 161.381 681.233 168.422Z" fill="#F9ECDB"/>
<path d="M752.04 162.229C752.652 169.27 747.45 175.487 740.411 176.099C733.373 176.711 727.159 171.507 726.546 164.466C725.934 157.425 731.137 151.208 738.175 150.596C745.213 149.984 751.404 155.188 752.04 162.229Z" fill="#F9ECDB"/>
<path d="M822.822 156.036C823.434 163.077 818.231 169.294 811.193 169.906C804.155 170.518 797.94 165.314 797.328 158.273C796.716 151.232 801.918 145.015 808.957 144.403C815.995 143.791 822.209 148.995 822.822 156.036Z" fill="#F9ECDB"/>
<path d="M807.52 160.204L662.069 172.943L791.019 16.1825L658.891 27.7447C657.337 27.886 655.996 26.7322 655.854 25.2015C655.713 23.6473 656.867 22.3051 658.397 22.1638L803.848 9.42419L674.898 166.185L807.026 154.623C808.579 154.481 809.921 155.635 810.062 157.166C810.203 158.697 809.073 160.062 807.52 160.204Z" fill="#F9ECDB"/>
<path d="M809.76 440.004C809.289 438.615 808.042 437.579 806.582 437.485C799.92 437.037 794.271 434.541 789.822 430.067C784.008 424.227 780.594 415.326 780.029 404.776C779.935 402.798 778.288 401.267 776.31 401.267C774.121 401.244 772.403 403.104 772.52 405.271C773.203 417.657 777.369 428.23 784.502 435.389C790.057 440.97 797.237 444.243 805.405 444.949C805.546 444.973 805.735 444.973 805.947 444.996C808.607 445.232 810.654 442.571 809.76 440.004Z" fill="#F9ECDB"/>
<path d="M802.229 485.216C771.039 482.485 748.535 461.221 741.402 428.018C740.955 425.898 742.297 423.826 744.439 423.449C746.416 423.096 748.323 424.368 748.747 426.322C755.126 456.181 775.158 475.303 802.888 477.728C833.301 480.389 865.95 460.373 871.788 409.933C872.023 407.884 873.812 406.377 875.86 406.565C877.955 406.754 879.532 408.614 879.274 410.71C873.695 458.23 842.434 488.725 802.229 485.216Z" fill="#F9ECDB"/>
<path d="M743.376 394.932C741.281 394.744 739.704 392.884 739.962 390.788C745.565 343.22 776.825 312.726 817.031 316.258C852.246 319.343 875.974 345.717 879.693 385.442C879.882 387.538 878.257 389.375 876.162 389.493C874.114 389.611 872.372 388.056 872.184 386.031C868.794 350.238 847.656 326.525 816.395 323.77C785.982 321.109 753.333 341.125 747.495 391.565C747.213 393.59 745.424 395.121 743.376 394.932Z" fill="#F9ECDB"/>
<path d="M803.756 465.036C797.965 464.518 792.528 463.175 787.514 460.985C785.489 460.09 784.642 457.641 785.701 455.71C786.619 454.015 788.691 453.285 790.456 454.062C795.14 456.134 800.343 457.335 805.922 457.641C828.99 458.96 853.33 442.618 855.708 403.151C857.167 378.825 848.858 359.186 833.298 349.79C831.627 348.778 831.015 346.682 831.862 344.916C832.827 342.938 835.322 342.208 837.206 343.338C855.19 354.194 864.865 376.376 863.217 403.575C860.91 441.652 837.182 466.967 805.474 465.153C804.933 465.13 804.344 465.083 803.756 465.036Z" fill="#F9ECDB"/>
<path d="M770.237 441.534C768.424 442.783 765.929 442.194 764.823 440.286C758.138 428.748 755.03 413.842 755.996 397.852C758.185 361.423 780.029 336.674 809.666 336.203C811.855 336.156 813.644 338.016 813.526 340.206C813.409 342.161 811.831 343.715 809.854 343.739C787.868 344.162 765.788 360.788 763.528 398.3C762.657 412.853 765.435 426.299 771.391 436.589C772.356 438.285 771.838 440.451 770.237 441.534Z" fill="#F9ECDB"/>
<path d="M821.697 438.473C820.92 436.731 821.603 434.705 823.227 433.716C833.114 427.759 839.211 415.231 839.305 400.16C839.375 388.08 835.892 377.86 829.442 371.384C824.475 366.392 818.049 363.872 810.328 363.896C798.723 363.919 789.33 370.277 784.128 381.486C783.304 383.253 781.28 384.077 779.444 383.417C777.372 382.664 776.384 380.262 777.325 378.26C783.775 364.508 795.851 356.408 810.328 356.36C819.979 356.337 828.43 359.704 834.785 366.086C842.671 373.998 846.955 386.125 846.861 400.231C846.743 418.033 839.258 432.963 827.041 440.263C825.11 441.393 822.592 440.522 821.697 438.473Z" fill="#F9ECDB"/>
<path d="M794.58 410.781C792.438 411.652 790.037 410.404 789.496 408.167C789.237 407.154 789.048 406.094 788.884 405.011C786.742 390.929 794.321 378.661 806.491 376.471C812.776 375.34 818.379 376.824 822.663 380.639C824.405 382.193 824.264 384.972 822.38 386.314L822.145 386.479C820.709 387.491 818.849 387.279 817.508 386.126C814.965 383.936 811.717 383.182 807.833 383.865C798.558 385.513 795.027 395.168 796.346 403.857C796.463 404.705 796.628 405.529 796.816 406.306C797.264 408.167 796.346 410.074 794.58 410.781Z" fill="#F9ECDB"/>
<path d="M807.031 425.286H807.007C804.418 425.051 802.982 422.154 804.371 419.941L804.7 419.423C805.406 418.316 806.631 417.704 807.949 417.798C809.055 417.868 810.256 417.798 811.48 417.586C819.577 416.126 823.297 408.59 823.226 400.914C823.202 399.006 824.544 397.358 826.427 397.052C828.64 396.722 830.735 398.37 830.759 400.607C830.994 412.9 823.744 423.049 812.798 425.003C810.797 425.357 808.867 425.451 807.031 425.286Z" fill="#F9ECDB"/>
<path d="M808.702 411.369C804.7 411.016 801.711 408.308 800.604 404.446C799.969 402.209 801.852 400.043 804.159 400.255L805.03 400.325C806.371 400.443 807.478 401.361 807.925 402.633C808.137 403.245 808.561 403.787 809.338 403.858C811.15 404.022 811.456 401.408 811.503 400.89C811.527 400.514 811.621 399.077 810.985 398.229C810.373 397.405 809.973 396.44 810.067 395.404C810.35 392.06 814.587 390.694 816.729 393.308C818.424 395.38 819.295 398.277 819.012 401.55C818.494 407.719 814.14 411.84 808.702 411.369Z" fill="#F9ECDB"/>
<path d="M737.897 327.09C735.825 326.902 734.295 325.088 734.483 323.016L737.332 290.355L769.981 293.204C772.053 293.392 773.583 295.206 773.394 297.278C773.206 299.35 771.394 300.881 769.322 300.716L744.182 298.526L741.993 323.675C741.804 325.748 739.968 327.278 737.897 327.09Z" fill="#F9ECDB"/>
<path d="M893.092 340.677C891.021 340.489 889.491 338.676 889.679 336.603L891.868 311.454L866.728 309.264C864.656 309.076 863.126 307.262 863.315 305.19C863.503 303.118 865.315 301.587 867.387 301.776L900.036 304.625L897.188 337.286C897 339.311 895.164 340.866 893.092 340.677Z" fill="#F9ECDB"/>
<path d="M881.535 516.23L848.885 513.381C846.814 513.192 845.284 511.379 845.472 509.307C845.661 507.234 847.473 505.704 849.545 505.892L874.685 508.082L876.874 482.933C877.062 480.86 878.875 479.33 880.946 479.495C883.018 479.683 884.548 481.496 884.383 483.568L881.535 516.23Z" fill="#F9ECDB"/>
<path d="M751.474 504.832L718.824 501.983L721.673 469.322C721.861 467.249 723.673 465.719 725.745 465.883C727.816 466.072 729.346 467.885 729.158 469.957L726.969 495.107L752.109 497.297C754.181 497.485 755.711 499.298 755.546 501.371C755.358 503.49 753.545 505.021 751.474 504.832Z" fill="#F9ECDB"/>
<path d="M48.6055 427.504C47.3344 427.621 46.2045 426.679 46.0868 425.408L44.3213 405.321L64.4005 403.555C65.6717 403.437 66.8016 404.379 66.9193 405.651C67.037 406.922 66.0954 408.053 64.8242 408.17L49.3823 409.513L50.724 424.96C50.8182 426.279 49.8766 427.409 48.6055 427.504Z" fill="#F9ECDB"/>
<path d="M139.378 425.828C138.107 425.946 136.977 425.004 136.859 423.732L135.517 408.285L120.076 409.627C118.804 409.745 117.675 408.803 117.557 407.531C117.439 406.26 118.381 405.129 119.652 405.011L139.731 403.245L141.497 423.332C141.591 424.58 140.649 425.71 139.378 425.828Z" fill="#F9ECDB"/>
<path d="M149.266 512.274L129.187 514.04C127.916 514.158 126.786 513.216 126.668 511.944C126.55 510.673 127.492 509.542 128.763 509.425L144.205 508.082L142.863 492.635C142.746 491.363 143.687 490.233 144.958 490.115C146.23 489.997 147.359 490.939 147.477 492.211L149.266 512.274Z" fill="#F9ECDB"/>
<path d="M65.1183 513.064L45.0391 514.83L43.2736 494.744C43.1559 493.472 44.0975 492.342 45.3686 492.224C46.6398 492.106 47.7697 493.048 47.8874 494.32L49.2291 509.767L64.6711 508.425C65.9422 508.307 67.0721 509.249 67.1898 510.521C67.3546 511.816 66.413 512.946 65.1183 513.064Z" fill="#F9ECDB"/>
<path d="M137.775 99.186L60.7534 105.905L59.1719 87.8926C57.5432 69.2195 71.4227 52.692 90.1174 51.0652C108.812 49.4384 125.359 63.3017 126.988 81.9747L127.908 92.4429L139.026 91.4763L138.105 81.0081C135.934 56.205 113.982 37.7914 89.1496 39.9604C64.3177 42.1295 45.9062 64.0797 48.0778 88.8828L49.6593 106.99C40.6896 108.735 34.3164 116.987 35.1189 126.276L40.6188 189.085C41.4921 199.011 50.2494 206.367 60.2105 205.495L146.438 197.95C156.375 197.078 163.74 188.331 162.867 178.381L157.367 115.572C156.493 105.646 147.736 98.3136 137.775 99.186ZM105.059 147.59L106.947 169.21C107.254 172.77 104.634 175.882 101.07 176.212C97.5056 176.519 94.3898 173.902 94.0594 170.341L92.171 148.721C89.3385 146.977 87.3321 144.006 87.0016 140.446C86.4823 134.457 90.8964 129.2 96.8919 128.681C102.864 128.162 108.151 132.571 108.671 138.56C109.025 142.096 107.538 145.373 105.059 147.59Z" fill="#F9ECDB"/>
<path d="M269.247 135.737L261.479 123.068C257.266 123.657 253.829 123.657 249.616 123.068L241.847 135.737L240.364 135.337C235.351 133.994 230.525 131.993 226.005 129.379L224.664 128.602L227.959 114.85C228.218 113.743 229.348 113.06 230.454 113.319C231.561 113.578 232.243 114.708 231.984 115.815L229.419 126.53C232.785 128.366 236.292 129.826 239.941 130.91L247.52 118.547L248.886 118.782C253.288 119.512 257.76 119.512 262.162 118.782L263.527 118.547L271.107 130.91C274.732 129.826 278.263 128.366 281.629 126.53L278.263 112.448L279.393 111.647C282.477 109.434 285.207 106.82 287.561 103.853C288.267 102.981 289.515 102.77 290.41 103.429C291.351 104.112 291.587 105.454 290.857 106.372C288.55 109.292 285.89 111.906 282.924 114.19L286.384 128.625L285.043 129.403C280.523 132.016 275.697 134.018 270.683 135.36L269.247 135.737ZM221.65 108.091C220.991 107.338 220.356 106.584 219.767 105.784L205.338 109.245L204.561 107.903C201.948 103.382 199.947 98.5544 198.605 93.5386L198.205 92.0551L210.869 84.2841C210.587 82.1648 210.446 80.2338 210.446 78.35C210.446 76.4897 210.587 74.5352 210.869 72.4158L198.205 64.6449L198.605 63.1614C199.947 58.1456 201.948 53.3182 204.561 48.7969L205.338 47.4547L219.767 50.9163C222.192 47.7608 224.993 44.9586 228.147 42.5331L225.535 31.6067C225.276 30.5 225.958 29.3696 227.065 29.1106C228.171 28.8516 229.301 29.5345 229.56 30.6412L232.808 44.2521L231.678 45.0763C228.053 47.6902 224.899 50.8456 222.286 54.4721L221.486 55.6024L207.386 52.235C205.573 55.6024 204.09 59.1111 203.031 62.761L215.389 70.3436L215.177 71.7094C214.777 74.1348 214.589 76.3013 214.589 78.35C214.589 80.3987 214.777 82.5651 215.177 84.9906L215.413 86.3564L203.054 93.9389C204.137 97.5654 205.597 101.098 207.409 104.465L221.509 101.098L222.31 102.228C223.086 103.288 223.887 104.324 224.758 105.313C225.487 106.137 225.464 107.361 224.664 108.139L224.593 108.209C223.769 109.033 222.427 108.963 221.65 108.091ZM305.781 109.245L300.461 107.974C299.355 107.715 298.672 106.584 298.931 105.478C299.19 104.371 300.32 103.688 301.426 103.947L303.733 104.489C305.545 101.121 307.028 97.6124 308.088 93.9625L295.729 86.3799L295.965 85.0141C296.365 82.5887 296.553 80.4222 296.553 78.3735C296.553 76.3248 296.365 74.1584 295.965 71.7329L295.729 70.3671L308.088 62.7846C307.005 59.1582 305.545 55.6259 303.733 52.2585L289.633 55.6259L288.809 54.4956C286.196 50.8692 283.042 47.7137 279.417 45.0999L278.287 44.2757L281.653 30.1703C278.287 28.3571 274.779 26.8735 271.131 25.7903L263.551 38.1531L262.186 37.9412C257.784 37.2347 253.311 37.2347 248.909 37.9412L247.544 38.1531L239.964 25.8138C239.493 25.9551 239.023 26.0964 238.552 26.2613C237.493 26.6145 236.363 26.0493 235.986 25.0132C235.586 23.93 236.151 22.7055 237.257 22.3287C238.293 21.999 239.329 21.6929 240.364 21.4103L241.847 21.01L249.616 33.679C253.829 33.0903 257.242 33.0903 261.479 33.679L269.247 21.01L270.73 21.4103C275.744 22.7526 280.57 24.7542 285.09 27.368L286.431 28.1451L282.971 42.5802C286.125 45.0057 288.927 47.8079 291.351 50.9634L305.781 47.5018L306.558 48.844C309.171 53.3653 311.171 58.1927 312.513 63.2085L312.913 64.692L300.249 72.4629C300.532 74.5823 300.673 76.5368 300.673 78.3971C300.673 80.2574 300.532 82.2119 300.249 84.3312L312.913 92.1022L312.513 93.5857C311.171 98.6015 309.171 103.429 306.558 107.95L305.781 109.245ZM254.983 98.5544C244.46 98.2483 235.704 89.4883 235.398 78.9622C235.092 68.3655 243.024 59.5114 253.241 58.3104C254.465 58.1691 255.571 59.1346 255.571 60.3827C255.571 61.4188 254.794 62.3136 253.758 62.4314C244.743 63.4439 237.963 71.992 239.847 81.5996C241.071 87.8399 246.108 92.8793 252.346 94.1038C262.586 96.1054 271.601 88.2873 271.601 78.3735C271.601 75.0532 270.589 71.8507 268.706 69.1662C268.118 68.3184 268.282 67.1646 269.059 66.4817C270.001 65.6575 271.437 65.8223 272.143 66.8584C274.497 70.2258 275.744 74.2526 275.744 78.3971C275.744 89.7002 266.376 98.8605 254.983 98.5544Z" fill="#F9ECDB"/>
<path d="M122.998 308.111L117.984 299.939C115.277 300.316 113.041 300.316 110.333 299.939L105.32 308.111L104.354 307.852C101.129 306.98 97.9987 305.685 95.0798 304.013L94.2089 303.519L96.3274 294.641C96.4922 293.911 97.2219 293.487 97.9516 293.652C98.6814 293.817 99.1051 294.547 98.9403 295.277L97.269 302.2C99.4346 303.377 101.718 304.319 104.072 305.026L108.968 297.043L109.863 297.184C112.711 297.655 115.606 297.655 118.431 297.184L119.326 297.043L124.222 305.026C126.576 304.319 128.836 303.377 131.025 302.2L128.836 293.087L129.565 292.569C131.566 291.132 133.332 289.46 134.838 287.529C135.285 286.964 136.086 286.823 136.674 287.247C137.286 287.694 137.427 288.566 136.957 289.154C135.45 291.038 133.732 292.734 131.825 294.194L134.061 303.519L133.19 304.013C130.271 305.709 127.164 307.004 123.916 307.852L122.998 308.111ZM92.2551 290.238C91.8314 289.767 91.4312 289.249 91.031 288.754L81.7093 290.991L81.215 290.12C79.5202 287.2 78.2255 284.091 77.3781 280.842L77.1191 279.876L85.2874 274.861C85.0991 273.495 85.0049 272.247 85.0049 271.022C85.0049 269.821 85.0991 268.55 85.2874 267.184L77.1191 262.168L77.3781 261.203C78.249 257.976 79.5437 254.845 81.215 251.925L81.7093 251.053L91.031 253.29C92.5846 251.242 94.4207 249.428 96.4451 247.874L94.7503 240.81C94.5855 240.103 95.0092 239.373 95.7389 239.209C96.4451 239.044 97.1749 239.468 97.3396 240.198L99.4347 248.981L98.7285 249.546C96.398 251.218 94.3501 253.267 92.6552 255.622L92.1374 256.352L83.0276 254.162C81.8506 256.328 80.909 258.612 80.2028 260.967L88.1827 265.865L88.0415 266.76C87.7826 268.338 87.6649 269.727 87.6649 271.046C87.6649 272.364 87.7826 273.777 88.0415 275.332L88.1827 276.226L80.2028 281.124C80.909 283.479 81.8506 285.763 83.0276 287.93L92.1374 285.74L92.6552 286.47C93.1496 287.153 93.691 287.836 94.2324 288.471C94.7032 289.013 94.6797 289.79 94.1853 290.285L94.1383 290.332C93.6204 290.85 92.7494 290.803 92.2551 290.238ZM146.608 290.991L143.171 290.167C142.441 290.002 142.018 289.272 142.182 288.542C142.347 287.812 143.077 287.388 143.807 287.553L145.29 287.906C146.467 285.74 147.408 283.456 148.114 281.101L140.135 276.203L140.276 275.308C140.535 273.73 140.652 272.341 140.652 271.022C140.652 269.703 140.535 268.291 140.276 266.736L140.135 265.842L148.114 260.944C147.408 258.589 146.467 256.305 145.29 254.138L136.18 256.328L135.662 255.598C133.991 253.267 131.943 251.218 129.589 249.523L128.859 248.981L131.048 239.868C128.883 238.69 126.599 237.749 124.245 237.042L119.349 245.025L118.455 244.884C115.606 244.413 112.711 244.413 109.863 244.884L108.968 245.025L104.072 237.042C103.766 237.136 103.46 237.23 103.154 237.325C102.471 237.537 101.742 237.183 101.506 236.5C101.247 235.794 101.624 234.993 102.33 234.758C102.989 234.546 103.672 234.334 104.331 234.169L105.296 233.91L110.31 242.081C113.041 241.705 115.23 241.705 117.96 242.081L122.974 233.91L123.939 234.169C127.164 235.04 130.295 236.336 133.214 238.008L134.085 238.502L131.849 247.827C133.897 249.381 135.709 251.218 137.263 253.243L146.584 251.006L147.079 251.877C148.774 254.797 150.068 257.906 150.916 261.155L151.175 262.121L143.006 267.137C143.195 268.503 143.289 269.751 143.289 270.975C143.289 272.176 143.195 273.448 143.006 274.813L151.175 279.829L150.916 280.795C150.045 284.021 148.75 287.153 147.079 290.073L146.608 290.991ZM113.794 284.091C106.991 283.903 101.341 278.228 101.129 271.446C100.941 264.594 106.049 258.871 112.664 258.118C113.464 258.024 114.17 258.659 114.17 259.46C114.17 260.143 113.676 260.708 112.993 260.779C107.179 261.438 102.801 266.948 104.001 273.165C104.802 277.192 108.05 280.441 112.075 281.242C118.69 282.537 124.504 277.474 124.504 271.093C124.504 268.95 123.845 266.878 122.621 265.135C122.244 264.594 122.339 263.84 122.833 263.393C123.445 262.851 124.363 262.969 124.834 263.628C126.34 265.794 127.164 268.408 127.164 271.069C127.188 278.369 121.138 284.28 113.794 284.091Z" fill="#F9ECDB"/>
<path d="M456.6 773C708.774 773 913.201 761.125 913.201 746.476C913.201 731.826 708.774 719.951 456.6 719.951C204.427 719.951 0 731.826 0 746.476C0 761.125 204.427 773 456.6 773Z" fill="#F9ECDB"/>
<path d="M723.586 110.846H646.941L592.729 730.754H669.374C691.172 730.754 710.451 713.022 712.358 691.216L759.649 150.407C761.555 128.602 745.384 110.846 723.586 110.846Z" fill="#F1971F"/>
<path d="M707.953 110.846H448.547C426.749 110.846 407.471 128.578 405.564 150.384L358.273 691.193C356.366 712.999 372.538 730.73 394.335 730.73H653.741C675.539 730.73 694.818 712.999 696.725 691.193L744.016 150.384C745.922 128.602 729.751 110.846 707.953 110.846Z" fill="#F1971F"/>
<path opacity="0.3" d="M707.953 110.846H448.547C426.749 110.846 407.471 128.578 405.564 150.384L358.273 691.193C356.366 712.999 372.538 730.73 394.335 730.73H653.741C675.539 730.73 694.818 712.999 696.725 691.193L744.016 150.384C745.922 128.602 729.751 110.846 707.953 110.846Z" fill="white"/>
<path opacity="0.4" d="M706.85 123.516H638.467C634.442 123.516 630.652 126.153 629.145 130.038C623.614 144.332 609.608 154.128 594.707 154.128H554.266C539.342 154.128 527.054 144.332 524.041 130.038C523.217 126.177 519.898 123.516 515.873 123.516H447.491C432.661 123.516 419.573 135.549 418.278 150.384L370.987 691.193C369.692 706.029 380.662 718.062 395.492 718.062H654.898C669.728 718.062 682.816 706.029 684.11 691.193L731.401 150.384C732.649 135.549 721.679 123.516 706.85 123.516Z" fill="white"/>
<path d="M642.206 417.303H460.669C455.278 417.303 451.3 412.947 451.771 407.554L452.689 397.17C453.16 391.777 457.915 387.421 463.282 387.421H644.819C650.209 387.421 654.187 391.777 653.717 397.17L652.799 407.554C652.351 412.923 647.596 417.303 642.206 417.303Z" fill="white"/>
<path d="M638.301 462.139H456.764C451.374 462.139 447.396 457.783 447.866 452.39L448.784 442.005C449.255 436.613 454.01 432.256 459.377 432.256H640.914C646.305 432.256 650.283 436.613 649.812 442.005L648.894 452.39C648.423 457.759 643.668 462.139 638.301 462.139Z" fill="white"/>
<path opacity="0.1" d="M587.053 133.664C586.535 139.645 581.262 144.473 575.306 144.473C569.327 144.473 564.925 139.622 565.443 133.664C565.961 127.683 571.234 122.856 577.19 122.856C583.169 122.856 587.57 127.683 587.053 133.664Z" fill="black"/>
<path opacity="0.1" d="M582.156 133.665C581.873 136.938 579.002 139.575 575.73 139.575C572.458 139.575 570.057 136.938 570.339 133.665C570.621 130.391 573.493 127.754 576.765 127.754C580.014 127.754 582.438 130.391 582.156 133.665Z" fill="black"/>
<g opacity="0.8">
<path d="M674.898 151.68C673.156 151.68 671.861 150.267 672.003 148.501L672.521 142.708C672.685 140.965 674.215 139.529 675.957 139.529C677.699 139.529 678.994 140.942 678.853 142.708L678.335 148.501C678.194 150.267 676.64 151.68 674.898 151.68Z" fill="white"/>
<path d="M700.228 151.679C698.486 151.679 697.191 150.266 697.332 148.5L698.509 134.913C698.674 133.17 700.204 131.734 701.946 131.734C703.688 131.734 704.983 133.147 704.841 134.913L703.664 148.5C703.523 150.266 701.97 151.679 700.228 151.679Z" fill="white"/>
<path d="M687.561 151.679C685.819 151.679 684.524 150.266 684.665 148.5L685.513 138.822C685.677 137.079 687.208 135.643 688.949 135.643C690.691 135.643 691.986 137.056 691.845 138.822L690.997 148.5C690.856 150.266 689.303 151.679 687.561 151.679Z" fill="white"/>
</g>
<g opacity="0.8">
<path d="M458.031 151.68H442.118C441.13 151.68 440.4 150.879 440.494 149.89L441.247 141.342C441.341 140.353 442.212 139.552 443.201 139.552H459.114C460.102 139.552 460.832 140.353 460.738 141.342L459.985 149.89C459.891 150.879 459.02 151.68 458.031 151.68Z" fill="white"/>
<path d="M465.398 149.372C464.409 149.372 463.679 148.572 463.773 147.583L464.126 143.674C464.221 142.685 465.092 141.884 466.08 141.884C467.069 141.884 467.799 142.685 467.704 143.674L467.351 147.583C467.257 148.572 466.386 149.372 465.398 149.372Z" fill="white"/>
</g>
<path d="M612.318 348.982C643.996 318.648 647.156 270.523 619.378 241.492C591.599 212.462 543.4 213.518 511.722 243.852C480.044 274.186 476.883 322.311 504.662 351.342C532.441 380.372 580.64 379.316 612.318 348.982Z" fill="white"/>
<path d="M562.268 293.486C542.283 293.486 525.429 301.092 523.993 317.6L522.392 335.92H594.729L596.33 317.6C597.766 301.069 582.253 293.486 562.268 293.486Z" fill="#F1971F"/>
<path d="M562.927 285.927C572.201 285.927 576.462 278.415 577.286 269.137C578.086 259.859 575.144 252.347 565.869 252.347C556.595 252.347 552.334 259.859 551.51 269.137C550.71 278.415 553.652 285.927 562.927 285.927Z" fill="#F1971F"/>
<path d="M633.922 401.808C628.979 401.808 624.836 403.692 624.459 407.766L624.059 412.287H641.926L642.326 407.766C642.702 403.692 638.865 401.808 633.922 401.808Z" fill="#F1971F"/>
<path d="M634.087 399.948C636.371 399.948 637.43 398.088 637.642 395.804C637.854 393.519 637.1 391.659 634.817 391.659C632.534 391.659 631.475 393.519 631.263 395.804C631.074 398.088 631.804 399.948 634.087 399.948Z" fill="#F1971F"/>
<path d="M578.911 506.975H508.269C500.006 506.975 493.91 500.287 494.639 492.022C495.369 483.756 502.643 477.069 510.882 477.069H581.524C589.786 477.069 595.883 483.756 595.153 492.022C594.447 500.264 587.173 506.975 578.911 506.975Z" fill="#F1971F"/>
<path d="M570.386 673.626H494.777C486.067 673.626 479.618 666.561 480.371 657.825L485.196 602.651C485.95 593.939 493.647 586.851 502.357 586.851H577.966C586.675 586.851 593.125 593.915 592.372 602.651L587.546 657.825C586.793 666.561 579.119 673.626 570.386 673.626Z" fill="#F1971F"/>
<g opacity="0.6">
<path d="M547.082 616.615C547.553 611.364 543.669 607.102 538.42 607.102C533.17 607.102 528.557 611.364 528.086 616.615C527.803 619.747 529.098 622.479 531.287 624.222L529.616 643.225C529.333 646.333 531.64 648.877 534.771 648.877C537.878 648.877 540.632 646.357 540.915 643.225L542.586 624.222C545.034 622.503 546.8 619.747 547.082 616.615Z" fill="white"/>
</g>
<path d="M578.65 598.365H568.904L571.282 571.073C572.718 554.683 560.548 541.331 544.141 541.331C527.734 541.331 513.233 554.683 511.797 571.073L509.42 598.365H499.674L502.052 571.073C503.959 549.291 523.214 531.583 544.988 531.583C566.762 531.583 582.91 549.291 581.004 571.073L578.65 598.365Z" fill="#F1971F"/>
<path d="M635.123 443.607L635.358 440.993C635.594 438.308 633.616 436.142 630.933 436.142C628.249 436.142 625.895 438.308 625.66 440.993L625.425 443.607C624.365 443.607 623.424 444.478 623.329 445.537L622.717 452.508C622.623 453.567 623.424 454.439 624.483 454.439H634.181C635.241 454.439 636.182 453.567 636.276 452.508L636.888 445.537C636.982 444.478 636.206 443.607 635.123 443.607ZM630.815 437.343C632.84 437.343 634.322 438.991 634.158 440.993L633.922 443.607H626.625L626.86 440.993C627.025 438.968 628.814 437.343 630.815 437.343Z" fill="#F1971F"/>
<path d="M489.133 446.409L485.743 445.702C485.343 445.608 485.131 445.208 485.296 444.807L486.708 441.464C487.014 440.757 486.143 440.215 485.602 440.781L483.036 443.418C482.73 443.724 482.236 443.724 482 443.418L479.905 440.781C479.458 440.215 478.493 440.734 478.681 441.464L479.505 444.807C479.599 445.208 479.317 445.632 478.917 445.702L475.409 446.409C474.656 446.55 474.562 447.61 475.292 447.774L478.681 448.481C479.081 448.575 479.293 448.975 479.129 449.376L477.716 452.72C477.41 453.426 478.281 453.968 478.823 453.402L481.388 450.765C481.694 450.459 482.189 450.459 482.424 450.765L484.519 453.402C484.966 453.968 485.932 453.45 485.743 452.72L484.919 449.376C484.825 448.975 485.108 448.552 485.508 448.481L489.015 447.774C489.768 447.61 489.863 446.55 489.133 446.409Z" fill="#263238"/>
<path d="M511.402 446.409L508.012 445.702C507.612 445.608 507.4 445.208 507.565 444.807L508.977 441.464C509.283 440.757 508.412 440.215 507.871 440.781L505.305 443.418C504.999 443.724 504.505 443.724 504.269 443.418L502.174 440.781C501.727 440.215 500.762 440.734 500.95 441.464L501.774 444.807C501.868 445.208 501.586 445.632 501.186 445.702L497.678 446.409C496.925 446.55 496.831 447.61 497.561 447.774L500.95 448.481C501.351 448.575 501.562 448.975 501.398 449.376L499.985 452.72C499.679 453.426 500.55 453.968 501.092 453.402L503.657 450.765C503.963 450.459 504.458 450.459 504.693 450.765L506.788 453.402C507.235 453.968 508.201 453.45 508.012 452.72L507.188 449.376C507.094 448.975 507.377 448.552 507.777 448.481L511.284 447.774C512.037 447.61 512.132 446.55 511.402 446.409Z" fill="#263238"/>
<path d="M533.671 446.409L530.281 445.702C529.881 445.608 529.669 445.208 529.834 444.807L531.246 441.464C531.552 440.757 530.681 440.215 530.14 440.781L527.574 443.418C527.268 443.724 526.774 443.724 526.538 443.418L524.443 440.781C523.996 440.215 523.031 440.734 523.219 441.464L524.043 444.807C524.137 445.208 523.855 445.632 523.455 445.702L519.947 446.409C519.194 446.55 519.1 447.61 519.83 447.774L523.219 448.481C523.62 448.575 523.831 448.975 523.667 449.376L522.254 452.72C521.948 453.426 522.819 453.968 523.361 453.402L525.926 450.765C526.232 450.459 526.727 450.459 526.962 450.765L529.057 453.402C529.504 453.968 530.47 453.45 530.281 452.72L529.457 449.376C529.363 448.975 529.646 448.552 530.046 448.481L533.553 447.774C534.307 447.61 534.401 446.55 533.671 446.409Z" fill="#263238"/>
<path d="M555.962 446.409L552.573 445.702C552.173 445.608 551.961 445.208 552.125 444.807L553.538 441.464C553.844 440.757 552.973 440.215 552.432 440.781L549.866 443.418C549.56 443.724 549.065 443.724 548.83 443.418L546.735 440.781C546.288 440.215 545.323 440.734 545.511 441.464L546.335 444.807C546.429 445.208 546.146 445.632 545.746 445.702L542.239 446.409C541.486 446.55 541.391 447.61 542.121 447.774L545.511 448.481C545.911 448.575 546.123 448.975 545.958 449.376L544.546 452.72C544.24 453.426 545.111 453.968 545.652 453.402L548.218 450.765C548.524 450.459 549.018 450.459 549.254 450.765L551.349 453.402C551.796 453.968 552.761 453.45 552.573 452.72L551.749 449.376C551.655 448.975 551.937 448.552 552.337 448.481L555.845 447.774C556.598 447.61 556.692 446.55 555.962 446.409Z" fill="#263238"/>
<path d="M578.232 446.409L574.842 445.702C574.442 445.608 574.23 445.208 574.395 444.807L575.807 441.464C576.113 440.757 575.242 440.215 574.701 440.781L572.135 443.418C571.829 443.724 571.334 443.724 571.099 443.418L569.004 440.781C568.557 440.215 567.592 440.734 567.78 441.464L568.604 444.807C568.698 445.208 568.415 445.632 568.015 445.702L564.508 446.409C563.755 446.55 563.661 447.61 564.39 447.774L567.78 448.481C568.18 448.575 568.392 448.975 568.227 449.376L566.815 452.72C566.509 453.426 567.38 453.968 567.921 453.402L570.487 450.765C570.793 450.459 571.287 450.459 571.523 450.765L573.618 453.402C574.065 453.968 575.03 453.45 574.842 452.72L574.018 449.376C573.924 448.975 574.206 448.552 574.606 448.481L578.114 447.774C578.867 447.61 578.961 446.55 578.232 446.409Z" fill="#263238"/>
<path d="M600.497 446.409L597.107 445.702C596.707 445.608 596.495 445.208 596.66 444.807L598.073 441.464C598.379 440.757 597.508 440.215 596.966 440.781L594.4 443.418C594.094 443.724 593.6 443.724 593.365 443.418L591.27 440.781C590.822 440.215 589.857 440.734 590.046 441.464L590.869 444.807C590.964 445.208 590.681 445.632 590.281 445.702L586.774 446.409C586.02 446.55 585.926 447.61 586.656 447.774L590.046 448.481C590.446 448.575 590.658 448.975 590.493 449.376L589.08 452.72C588.774 453.426 589.645 453.968 590.187 453.402L592.753 450.765C593.059 450.459 593.553 450.459 593.788 450.765L595.883 453.402C596.331 453.968 597.296 453.45 597.107 452.72L596.284 449.376C596.189 448.975 596.472 448.552 596.872 448.481L600.379 447.774C601.133 447.61 601.227 446.55 600.497 446.409Z" fill="#263238"/>
<path d="M546.801 397.64H504.971C502.382 397.64 500.075 399.76 499.863 402.35C499.628 404.94 501.558 407.06 504.147 407.06H545.977C548.567 407.06 550.873 404.94 551.085 402.35C551.321 399.736 549.414 397.64 546.801 397.64Z" fill="#263238"/>
<path d="M589.265 397.64H564.995C562.406 397.64 560.099 399.76 559.887 402.35C559.652 404.94 561.582 407.06 564.171 407.06H588.441C591.03 407.06 593.337 404.94 593.549 402.35C593.784 399.736 591.854 397.64 589.265 397.64Z" fill="#263238"/>
<path d="M621.305 611.105C605.533 617.416 591.716 626.6 582.253 637.032C576.697 632.299 568.812 629.025 559.372 627.518L558.266 627.353L557.771 632.911L558.383 633.146C567.705 636.679 575.308 642.942 580.346 651.255L581.146 652.55L582.017 651.161C591.715 635.619 605.863 622.62 621.846 614.52L622.388 614.237L622.717 610.54L621.305 611.105Z" fill="#263238"/>
<path opacity="0.2" d="M410.77 147.779C407.834 152.958 405.908 158.725 405.368 164.846L370.396 565.54H478.624L500.372 481.998L493.209 398.455L514.958 314.912L507.794 231.369L529.543 147.827H410.77V147.779Z" fill="black"/>
<path d="M498.782 207.489L520.579 123.917H246.273L224.499 207.489L231.655 291.086L209.881 374.658L217.037 458.231L195.263 541.827H469.546L491.343 458.231L484.164 374.658L505.961 291.086L498.782 207.489Z" fill="#F1971F"/>
<path opacity="0.7" d="M498.782 207.489L520.579 123.917H246.273L224.499 207.489L231.655 291.086L209.881 374.658L217.037 458.231L195.263 541.827H469.546L491.343 458.231L484.164 374.658L505.961 291.086L498.782 207.489Z" fill="white"/>
<path opacity="0.5" d="M498.779 207.489H224.496L246.27 123.917H520.577L498.779 207.489Z" fill="white"/>
<path opacity="0.5" d="M484.162 374.658H209.879L231.653 291.086H505.96L484.162 374.658Z" fill="white"/>
<path opacity="0.5" d="M469.546 541.828H195.263L217.037 458.231H491.343L469.546 541.828Z" fill="white"/>
<path opacity="0.2" d="M462.084 242.434C459.73 243.164 456.717 243.612 453.421 243.612C448.572 243.612 444.335 242.646 441.91 241.21C441.251 240.809 440.522 240.621 439.792 240.621C439.109 240.621 438.45 240.81 437.815 241.163C437.768 241.186 437.72 241.186 437.673 241.233C437.65 241.257 437.626 241.257 437.579 241.28C436.685 241.799 435.555 242.269 434.237 242.623C431.977 243.259 429.176 243.635 426.163 243.635C425.339 243.635 424.538 243.612 423.761 243.565C421.408 243.4 419.265 243.023 417.5 242.458C417.194 242.364 416.888 242.293 416.582 242.293C414.44 242.152 412.533 243.8 412.533 246.061V248.604H305.875C297.613 248.604 290.928 255.292 290.928 263.557V278.628C290.928 286.893 297.613 293.581 305.875 293.581H427.175C427.434 293.581 427.693 293.558 427.975 293.534C429.293 294.617 430.635 295.7 432.094 296.784C433.813 298.102 435.649 299.421 437.556 300.81C438.874 301.776 440.71 301.776 442.028 300.81C457.282 289.743 467.074 282.113 467.074 261.132V246.061C467.051 243.423 464.556 241.657 462.084 242.434Z" fill="black"/>
<path d="M424.866 285.222H303.567C295.304 285.222 288.619 278.534 288.619 270.269V255.198C288.619 246.932 295.304 240.245 303.567 240.245H424.866C433.129 240.245 439.814 246.932 439.814 255.198V270.269C439.79 278.534 433.105 285.222 424.866 285.222Z" fill="#F1971F"/>
<path d="M451.087 235.3C446.238 235.3 442.001 234.334 439.577 232.898C438.235 232.097 436.658 232.097 435.339 232.898C432.915 234.334 428.654 235.3 423.829 235.3C420.533 235.3 417.52 234.852 415.166 234.122C412.694 233.345 410.199 235.135 410.199 237.702V252.773C410.199 273.754 419.992 281.384 435.245 292.451C436.564 293.417 438.4 293.417 439.718 292.451C454.971 281.384 464.764 273.754 464.764 252.773V237.702C464.764 235.112 462.245 233.345 459.797 234.122C457.396 234.876 454.383 235.3 451.087 235.3Z" fill="#F1971F"/>
<path opacity="0.3" d="M451.087 235.3C446.238 235.3 442.001 234.334 439.577 232.898C438.235 232.097 436.658 232.097 435.339 232.898C432.915 234.334 428.654 235.3 423.829 235.3C420.533 235.3 417.52 234.852 415.166 234.122C412.694 233.345 410.199 235.135 410.199 237.702V252.773C410.199 273.754 419.992 281.384 435.245 292.451C436.564 293.417 438.4 293.417 439.718 292.451C454.971 281.384 464.764 273.754 464.764 252.773V237.702C464.764 235.112 462.245 233.345 459.797 234.122C457.396 234.876 454.383 235.3 451.087 235.3Z" fill="white"/>
<path opacity="0.2" d="M435.339 232.898C432.915 234.334 428.654 235.3 423.829 235.3C420.533 235.3 417.52 234.852 415.166 234.122C412.694 233.345 410.199 235.135 410.199 237.702V252.773C410.199 273.754 419.992 281.384 435.245 292.451C435.904 292.922 436.705 293.181 437.482 293.181V232.309C436.728 232.309 435.999 232.521 435.339 232.898Z" fill="white"/>
<path d="M459.325 248.675C449.462 252.749 441.035 258.707 435.503 265.465C431.643 262.404 426.347 260.285 420.132 259.319L419.402 259.201V262.804L419.826 262.945C426.064 265.23 431.337 269.28 435.08 274.673L435.668 275.52L436.163 274.602C441.553 264.547 449.98 256.116 459.867 250.865L460.196 250.677V248.275L459.325 248.675Z" fill="#263238"/>
<path d="M515.731 147.418H505.327C499.56 147.418 495.276 142.731 495.793 136.962L496.711 126.554C497.206 120.784 502.314 116.098 508.081 116.098H518.486C524.253 116.098 528.537 120.784 528.019 126.554L527.101 136.962C526.583 142.755 521.499 147.418 515.731 147.418Z" fill="#F1971F"/>
<path d="M520.064 126.53L517.805 124.057L512.108 129.285L507.353 124.057L504.646 126.53L509.425 131.758L503.751 136.985L506.011 139.482L511.684 134.254L516.463 139.482L519.146 136.985L514.368 131.758L520.064 126.53Z" fill="white"/>
<path d="M283.204 237.23C289.23 243.8 294.997 250.582 300.694 257.458C306.39 264.311 311.946 271.281 317.43 278.322C317.666 278.628 317.572 278.51 317.642 278.605C317.666 278.652 317.666 278.722 317.713 278.746C317.784 278.817 317.807 278.934 317.878 278.981C317.995 279.146 318.137 279.288 318.301 279.452C318.631 279.758 319.102 279.97 319.596 280.065C319.855 280.112 320.114 280.135 320.396 280.112C320.538 280.135 320.679 280.088 320.82 280.088C320.891 280.088 320.961 280.041 321.032 280.041C321.15 279.994 321.079 280.088 321.409 279.9L327.294 276.697C335.203 272.506 343.183 268.408 351.422 264.735L358.319 273.283C351.681 279.405 344.76 287.035 337.769 292.639L332.496 296.784C332.355 296.902 331.79 297.278 331.437 297.514C331.036 297.773 330.636 298.055 330.212 298.291C329.365 298.762 328.494 299.233 327.576 299.586C325.763 300.363 323.833 300.858 321.879 301.164C317.948 301.753 313.876 301.352 310.063 299.986C308.156 299.304 306.32 298.385 304.648 297.231C303.801 296.666 303.001 296.03 302.224 295.371C301.824 295.041 301.471 294.688 301.118 294.335L300.176 293.393C293.938 287.011 287.794 280.559 281.768 273.966C275.742 267.396 269.786 260.755 264.09 253.903L283.204 237.23Z" fill="#B55B52"/>
<path d="M348.219 269.939L353.703 252.301L368.157 259.507C368.157 259.507 366.062 272.364 355.54 274.601L348.219 269.939Z" fill="#B55B52"/>
<path d="M359.493 247.427L372.534 251.006L368.155 259.507L353.702 252.301L359.493 247.427Z" fill="#B55B52"/>
<path d="M207.22 242.034C205.643 249.523 203.736 256.94 201.712 264.311C199.711 271.705 197.522 279.052 195.238 286.352L194.391 289.107L193.967 290.473C193.873 290.779 193.826 290.85 193.732 291.038C193.473 291.721 193.308 292.498 193.285 293.275C193.237 294.853 193.614 296.596 194.65 298.103C194.744 298.338 195.544 299.21 196.18 299.892L198.134 302.012L201.994 306.321C204.536 309.241 207.055 312.161 209.456 315.222L201.264 324.712C197.875 322.781 194.626 320.709 191.378 318.613L186.552 315.434L184.175 313.81C183.374 313.244 182.715 312.868 181.421 311.784C176.948 307.993 173.605 302.601 172.381 296.596C171.746 293.605 171.605 290.497 171.958 287.412C172.052 286.682 172.193 285.811 172.311 285.175L172.57 283.762L173.064 280.936C174.382 273.377 175.795 265.842 177.372 258.377C178.949 250.889 180.62 243.424 182.645 236.03L207.22 242.034Z" fill="#B55B52"/>
<path d="M201.428 314.586L211.15 309.618L215.434 326.125C215.434 326.125 207.642 329.116 201.616 325.277L201.428 314.586Z" fill="#B55B52"/>
<path d="M224.546 304.343L224.993 319.485L214.141 326.596L210.375 309.948L224.546 304.343Z" fill="#B55B52"/>
<path d="M256.297 164.184C256.533 165.361 257.333 166.162 258.11 166.021C258.863 165.856 259.287 164.796 259.052 163.619C258.816 162.441 257.992 161.641 257.239 161.782C256.486 161.947 256.062 163.007 256.297 164.184Z" fill="#263238"/>
<path d="M257.239 166.186C257.239 166.186 261.265 172.379 264.843 175.04C263.171 177.394 259.476 177.23 259.476 177.23L257.239 166.186Z" fill="#A02724"/>
<path d="M250.718 158.556C250.553 158.556 250.388 158.485 250.247 158.368C249.964 158.109 249.941 157.661 250.2 157.379C252.836 154.529 256.014 155.047 256.155 155.071C256.532 155.142 256.791 155.495 256.72 155.872C256.65 156.248 256.297 156.507 255.92 156.437C255.826 156.413 253.331 156.06 251.236 158.321C251.094 158.485 250.906 158.556 250.718 158.556Z" fill="#263238"/>
<path d="M222.353 180.597C224.942 191.405 227.531 211.186 218.28 218.392C218.28 218.392 221.905 229.342 246.528 229.342C273.598 229.342 259.475 222.277 259.475 222.277C244.692 219.404 245.092 206.57 247.658 198.164L222.353 180.597Z" fill="#B55B52"/>
<path d="M215.386 220.393C213.762 217.403 211.996 213.965 215.668 212.881C219.717 211.704 245.681 209.514 253.308 211.728C250.954 215.896 254.932 221.029 254.932 221.029L215.386 220.393Z" fill="#263238"/>
<path d="M236.905 725.692H253.877L255.572 691.5H238.577L236.905 725.692Z" fill="#B55B52"/>
<path d="M129.116 720.982L146.324 721.877L156.775 688.203L139.568 687.285L129.116 720.982Z" fill="#B55B52"/>
<path d="M145.804 720.511L129.608 717.003C129.02 716.885 128.408 717.167 128.172 717.733L122.546 729.931C121.958 731.202 122.735 732.686 124.1 732.945C129.773 734.075 132.598 734.334 139.73 735.888C144.109 736.83 154.019 739.256 160.069 740.551C166.001 741.822 168.213 736.053 165.859 734.97C155.266 730.119 150.841 725.88 147.993 721.901C147.428 721.194 146.651 720.7 145.804 720.511Z" fill="#263238"/>
<path d="M252.98 723.973H236.855C236.243 723.973 235.725 724.397 235.608 724.985L232.689 738.102C232.383 739.467 233.418 740.763 234.807 740.739C240.621 740.645 249.025 740.292 256.322 740.292C264.867 740.292 272.259 740.763 282.263 740.763C288.313 740.763 290.007 734.64 287.465 734.075C275.907 731.555 266.491 731.273 256.511 725.127C255.451 724.444 254.251 723.973 252.98 723.973Z" fill="#263238"/>
<path d="M187.515 223.384C174.686 229.483 171.226 266.43 171.226 266.43L202.933 281.077C202.933 281.077 210.796 269.468 211.408 251.242C212.043 232.168 200.626 217.144 187.515 223.384Z" fill="#263238"/>
<path opacity="0.4" d="M204.725 246.179C199.005 255.056 199.547 268.832 201.524 280.441L202.936 281.101C202.936 281.101 210.822 269.491 211.41 251.265C211.434 250.135 211.434 249.005 211.41 247.898L204.725 246.179Z" fill="black"/>
<path d="M276.006 222.49C276.006 222.49 291.707 240.245 276.877 350.098C253.102 350.098 209.507 350.098 197.925 350.098C197.384 337.97 204.987 278.841 193.312 221.712C193.312 221.712 206.847 219.004 219.746 218.369C229.845 217.874 244.439 217.568 253.314 218.369C264.989 219.452 276.006 222.49 276.006 222.49Z" fill="#F1971F"/>
<path opacity="0.6" d="M276.006 222.49C276.006 222.49 291.707 240.245 276.877 350.098C253.102 350.098 209.507 350.098 197.925 350.098C197.384 337.97 204.987 278.841 193.312 221.712C193.312 221.712 206.847 219.004 219.746 218.369C229.845 217.874 244.439 217.568 253.314 218.369C264.989 219.452 276.006 222.49 276.006 222.49Z" fill="#FAFAFA"/>
<path opacity="0.2" d="M282.901 256.069L282.595 255.81L266.894 247.427C265.293 271.611 276.098 286.776 282.524 293.393C283.442 277.898 283.419 265.677 282.901 256.069Z" fill="black"/>
<path opacity="0.2" d="M255.571 691.5L254.7 709.114H237.704L238.575 691.5H255.571Z" fill="black"/>
<path opacity="0.2" d="M139.564 687.285L156.772 688.203L151.381 705.558L134.174 704.663L139.564 687.285Z" fill="black"/>
<path d="M216.892 169.623C220.682 183.776 222.188 192.253 230.922 198.14C244.057 206.995 260.417 196.822 260.911 181.821C261.382 168.328 255.097 147.441 239.914 144.592C224.943 141.766 213.102 155.447 216.892 169.623Z" fill="#B55B52"/>
<path d="M248.884 350.121C248.884 350.121 232.124 462.964 222.943 505.233C212.868 551.529 158.868 704.687 158.868 704.687L132.457 698.964C132.457 698.964 166.307 574.159 174.758 509.425C178.053 484.181 182.031 443.466 187.069 409.509C191.941 376.636 197.944 350.121 197.944 350.121H248.884Z" fill="#263238"/>
<path d="M165.198 695.833C165.316 695.856 160.278 705.393 160.278 705.393L130.548 698.964L133.043 690.016L165.198 695.833Z" fill="#407BFF"/>
<path opacity="0.6" d="M165.198 695.833C165.316 695.856 160.278 705.393 160.278 705.393L130.548 698.964L133.043 690.016L165.198 695.833Z" fill="#F6D2A2"/>
<path opacity="0.6" d="M238.289 390.318C218.916 394.109 220.964 466.378 223.295 503.538C228.874 477.258 237.065 426.723 242.644 390.836C241.373 390.2 239.914 389.988 238.289 390.318Z" fill="black"/>
<path d="M276.871 350.121C276.871 350.121 284.757 460.515 283.133 505.539C281.462 552.377 259.264 705.723 259.264 705.723H234.265C234.265 705.723 233.347 555.108 232.241 509.118C231.016 458.984 224.967 350.121 224.967 350.121H276.871Z" fill="#263238"/>
<path d="M264.089 695.739C264.207 695.739 262.676 706.123 262.676 706.123H232.263L231.439 696.845L264.089 695.739Z" fill="#407BFF"/>
<path opacity="0.6" d="M264.089 695.739C264.207 695.739 262.676 706.123 262.676 706.123H232.263L231.439 696.845L264.089 695.739Z" fill="#F6D2A2"/>
<path d="M266.797 243.165C266.797 272.788 282.568 284.986 282.568 284.986L308.179 259.931C308.179 259.931 299.47 244.931 287.488 231.131C272.682 214.13 266.797 224.114 266.797 243.165Z" fill="#263238"/>
<path opacity="0.2" d="M260.018 187.191C259.359 189.004 257.664 192.089 253.38 193.313C247.118 195.103 247.048 200.401 247.048 200.401L247.118 200.495C253.074 198.517 258.041 193.596 260.018 187.191Z" fill="black"/>
<path d="M253.379 141.483C258.652 134.819 250.53 134.513 250.53 134.513C252.649 126.577 243.139 130.839 243.139 130.839C237.442 122.974 234.217 132.535 234.217 132.535C228.309 125.871 227.226 136.75 227.226 136.75C221.294 128.296 218.281 140.494 218.281 140.494C212.82 131.711 209.477 143.155 209.477 143.155C198.202 139.128 203.569 150.832 203.569 150.832C193.941 151.091 201.662 158.556 201.662 158.556C190.128 158.579 200.297 165.196 200.297 165.196C191.14 171.201 202.627 172.826 202.627 172.826C195.165 184.506 207.994 180.173 207.994 180.173C202.792 191.735 214.327 186.649 214.327 186.649C213.573 197.811 220.023 194.773 223.13 192.701C223.719 194.938 224.849 197.34 226.92 197.599C230.945 198.117 231.722 190.534 231.722 190.534C231.722 190.534 235.465 193.431 238.572 191.853C241.703 190.275 240.526 186.296 240.526 186.296C240.526 186.296 242.927 188.085 245.116 186.366C246.458 185.33 246.458 177.818 244.763 175.181L250.883 172.779C250.883 172.779 255.427 172.143 253.402 166.138C251.378 160.133 253.096 155.4 253.096 155.4C260.017 152.151 254.344 148.265 254.344 148.265C262.3 143.132 253.379 141.483 253.379 141.483Z" fill="#263238"/>
<path d="M240.972 170.212C241.937 173.933 244.385 177.112 246.928 179.02C250.765 181.869 253.636 179.067 253.354 174.71C253.118 170.801 250.812 164.584 246.574 163.431C242.408 162.3 239.866 165.95 240.972 170.212Z" fill="#B55B52"/>
</svg>
