<svg width="1049" height="464" viewBox="0 0 1049 464" fill="none" xmlns="http://www.w3.org/2000/svg">
<path d="M609.766 69.3233C627.425 69.3233 641.741 53.8048 641.741 34.6617C641.741 15.5186 627.425 0 609.766 0C592.107 0 577.791 15.5186 577.791 34.6617C577.791 53.8048 592.107 69.3233 609.766 69.3233Z" fill="#F2F2F2"/>
<path d="M624.884 293.262C621.068 283.749 615.19 275.394 603.435 268.363C597.359 264.641 590.834 261.857 584.047 260.092C588.613 257.793 592.813 254.721 596.489 250.993C601.893 245.758 605.989 239.128 608.397 231.719C610.613 224.19 611.519 216.281 611.068 208.393C610.229 194.496 607.71 181.013 600.992 171.335C594.275 161.657 584.81 154.213 572.292 149.001C562.674 145.031 552.827 142.549 537.561 141.639V88.7827L507.028 109.462V141.722H482.602V107.808L451.305 88.7827V141.722H384.82L406.193 181.427C412.796 181.435 417.269 182.097 419.551 183.329C421.682 184.317 423.434 186.07 424.513 188.292C425.505 190.36 425.963 195.241 425.963 202.768V346.036C425.963 353.48 425.505 358.278 424.513 360.429C423.521 362.579 422.986 364.482 420.62 365.64C418.254 366.798 418.177 366.715 411.613 366.715H411.537L384.82 406.42H451.229V459.359H482.525V406.42H506.951V459.359H537.484V406.089C557.331 405.014 571.452 402.201 582.825 397.569C597.557 391.613 608.855 382.928 616.946 371.513C625.037 360.098 628.319 342.644 629.006 329.161C629.541 317.167 628.319 301.699 624.884 293.262ZM482.525 186.39H482.533V185.29H503.875C515.882 185.29 555.896 180.955 556.56 216.367C557.231 251.778 503.875 250.331 503.875 250.331H482.533V247.601H482.525V186.39ZM482.525 287.306H506.951C511.913 287.306 528.981 288.125 535.194 288.431C537.728 288.531 540.235 289.015 542.644 289.87C543.522 290.193 544.354 290.557 545.255 290.962C549.02 292.28 552.571 294.228 555.781 296.736C557.874 298.233 559.714 300.108 561.223 302.278C561.877 303.257 562.479 304.276 563.025 305.33C564.47 307.98 565.543 310.849 566.208 313.842C566.935 316.732 567.313 319.713 567.33 322.709C567.33 329.153 566.231 334.488 563.521 339.005C559.85 345.672 553.827 350.395 547.049 353.728C529.523 362.364 506.951 361.752 506.951 361.752H482.525V287.306Z" fill="#1D2937"/>
<path opacity="0.3" d="M618.983 36.1102C618.68 35.3039 618.122 34.6384 617.408 34.2308C616.964 33.9506 616.484 33.7403 615.984 33.6064C616.321 33.4317 616.63 33.1998 616.898 32.9196C617.297 32.5203 617.598 32.0203 617.772 31.4648C617.935 30.8952 618.002 30.2988 617.969 29.704C617.966 28.7161 617.71 27.7482 617.229 26.9067C616.692 26.1378 615.96 25.5523 615.121 25.2208C614.306 24.8809 613.443 24.6929 612.57 24.6651V20.6753L610.327 22.2363V24.6714H608.533V22.1114L606.235 20.6753V24.6714H601.352L602.921 27.6684C603.254 27.6439 603.588 27.6928 603.902 27.812C604.06 27.8881 604.189 28.0205 604.267 28.1867C604.363 28.5412 604.399 28.9112 604.373 29.2794V40.0938C604.398 40.4598 604.362 40.8277 604.267 41.1802C604.194 41.3425 604.155 41.4861 603.981 41.5736C603.807 41.661 603.801 41.6547 603.319 41.6547H603.314L601.352 44.6518H606.229V48.6479H608.528V44.6518H610.322V48.6479H612.564V44.6268C613.699 44.6051 614.823 44.388 615.894 43.9837C616.888 43.6016 617.759 42.9186 618.4 42.0169C618.96 41.0574 619.266 39.9524 619.286 38.82C619.345 37.9043 619.243 36.9848 618.983 36.1102ZM608.528 28.0432H608.528V27.9601H610.096C610.978 27.9601 613.916 27.6329 613.965 30.3059C614.015 32.9789 610.096 32.8697 610.096 32.8697H608.528V32.6636H608.528V28.0432ZM608.528 35.6607H610.322C610.686 35.6607 611.94 35.7225 612.396 35.7456C612.582 35.7532 612.767 35.7898 612.943 35.8543C613.008 35.8786 613.069 35.9061 613.135 35.9367C613.413 36.0368 613.674 36.1839 613.908 36.3725C614.063 36.4864 614.198 36.6279 614.308 36.7908C614.478 37.0557 614.602 37.3514 614.674 37.6637C614.727 37.8822 614.755 38.1071 614.756 38.3331C614.775 38.7635 614.678 39.1905 614.477 39.5631C614.189 40.0582 613.766 40.4462 613.267 40.6745C612.333 41.0861 611.331 41.292 610.322 41.2802H608.528V35.6607Z" fill="#F1971F"/>
<path d="M848.199 336.405C853.144 336.405 857.153 332.061 857.153 326.702C857.153 321.344 853.144 317 848.199 317C843.255 317 839.246 321.344 839.246 326.702C839.246 332.061 843.255 336.405 848.199 336.405Z" fill="#FF6584"/>
<path d="M918.779 432.317V321.848" stroke="#1D2937" stroke-width="2" stroke-miterlimit="10"/>
<path d="M918.779 337.469C926.741 337.469 933.195 330.475 933.195 321.848C933.195 313.22 926.741 306.226 918.779 306.226C910.818 306.226 904.363 313.22 904.363 321.848C904.363 330.475 910.818 337.469 918.779 337.469Z" fill="#1D2937"/>
<path d="M890.389 383.7C869.566 418.305 875.272 462.318 875.272 462.318C875.272 462.318 914.738 450.225 935.561 415.62C956.384 381.016 950.679 337.003 950.679 337.003C950.679 337.003 911.212 349.096 890.389 383.7Z" fill="#1D2937"/>
<path d="M875.16 461.915C875.16 461.915 874.653 461.828 873.72 461.623C872.975 461.46 871.951 461.226 870.7 460.904C859.515 458.047 829.78 448.387 810.339 422.989C786.007 391.187 787.032 346.756 787.032 346.756C787.032 346.756 824.236 353.307 848.751 381.866C849.814 383.093 850.847 384.365 851.852 385.682C873.024 413.353 874.998 450.584 875.154 459.788C875.176 461.167 875.16 461.915 875.16 461.915Z" fill="#F1971F"/>
<path d="M860.153 383.7C880.976 418.305 875.27 462.318 875.27 462.318C875.27 462.318 835.804 450.225 814.981 415.62C794.158 381.016 799.863 337.003 799.863 337.003C799.863 337.003 839.33 349.096 860.153 383.7Z" stroke="#1D2937" stroke-width="2" stroke-miterlimit="10"/>
<path opacity="0.1" d="M875.154 459.788C874.604 460.507 874.119 461.121 873.72 461.623C872.835 462.716 872.334 463.289 872.334 463.289C872.334 463.289 871.724 462.459 870.7 460.904C865.075 452.407 846.983 422.194 848.379 387.295C848.455 385.466 848.579 383.656 848.751 381.866C849.814 383.093 850.847 384.365 851.852 385.682C873.024 413.353 874.998 450.584 875.154 459.788Z" fill="black"/>
<path d="M906.029 389.818C904.383 431.092 876.111 463.289 876.111 463.289C876.111 463.289 850.506 428.569 852.152 387.295C853.798 346.022 882.071 313.825 882.071 313.825C882.071 313.825 907.675 348.545 906.029 389.818Z" fill="#F1971F"/>
<path d="M876.111 462.12L882.327 315.508" stroke="#1D2937" stroke-width="2" stroke-miterlimit="10"/>
<path d="M16.8281 462.156H1049" stroke="#1D2937" stroke-width="2" stroke-miterlimit="10"/>
<path d="M161.952 283.483C179.966 283.483 194.569 267.658 194.569 248.138C194.569 228.617 179.966 212.792 161.952 212.792C143.939 212.792 129.336 228.617 129.336 248.138C129.336 267.658 143.939 283.483 161.952 283.483Z" fill="#F1971F"/>
<path d="M106.513 366.667C124.527 366.667 139.129 350.843 139.129 331.322C139.129 311.802 124.527 295.977 106.513 295.977C88.4994 295.977 73.8965 311.802 73.8965 331.322C73.8965 350.843 88.4994 366.667 106.513 366.667Z" fill="#F1971F"/>
<path d="M38.2805 433.1C56.2941 433.1 70.897 417.275 70.897 397.754C70.897 378.234 56.2941 362.409 38.2805 362.409C20.267 362.409 5.66406 378.234 5.66406 397.754C5.66406 417.275 20.267 433.1 38.2805 433.1Z" fill="#F1971F"/>
<path d="M38.25 461.675V397.56" stroke="#1D2937" stroke-width="2" stroke-miterlimit="10"/>
<path d="M38.2515 406.627C42.8724 406.627 46.6183 402.568 46.6183 397.56C46.6183 392.553 42.8724 388.493 38.2515 388.493C33.6307 388.493 29.8848 392.553 29.8848 397.56C29.8848 402.568 33.6307 406.627 38.2515 406.627Z" fill="#1D2937"/>
<path d="M38.2507 437.075C38.2507 437.075 37.0554 409.217 12.5527 412.455L38.2507 437.075Z" fill="#1D2937"/>
<path d="M161.973 462.125V248.268" stroke="#1D2937" stroke-width="2" stroke-miterlimit="10"/>
<path d="M161.974 257.233C166.595 257.233 170.341 253.174 170.341 248.166C170.341 243.159 166.595 239.1 161.974 239.1C157.353 239.1 153.607 243.159 153.607 248.166C153.607 253.174 157.353 257.233 161.974 257.233Z" fill="#1D2937"/>
<path d="M136.275 411.96C140.896 411.96 144.642 407.9 144.642 402.893C144.642 397.886 140.896 393.826 136.275 393.826C131.654 393.826 127.908 397.886 127.908 402.893C127.908 407.9 131.654 411.96 136.275 411.96Z" fill="#1D2937"/>
<path d="M161.973 294.48C161.973 294.48 160.778 266.621 136.275 269.86L161.973 294.48Z" fill="#1D2937"/>
<path d="M161.973 373.454C161.973 373.454 160.778 345.596 136.275 348.834L161.973 373.454Z" fill="#1D2937"/>
<path d="M161.973 459.632C161.973 459.632 167.352 405.483 136.275 402.893" stroke="#1D2937" stroke-width="2" stroke-miterlimit="10"/>
<path d="M187.675 411.96C192.296 411.96 196.042 407.9 196.042 402.893C196.042 397.886 192.296 393.826 187.675 393.826C183.055 393.826 179.309 397.886 179.309 402.893C179.309 407.9 183.055 411.96 187.675 411.96Z" fill="#1D2937"/>
<path d="M161.977 459.632C161.977 459.632 156.598 405.483 187.675 402.893" stroke="#1D2937" stroke-width="2" stroke-miterlimit="10"/>
<path d="M188.185 326.91C192.806 326.91 196.552 322.851 196.552 317.844C196.552 312.836 192.806 308.777 188.185 308.777C183.564 308.777 179.818 312.836 179.818 317.844C179.818 322.851 183.564 326.91 188.185 326.91Z" fill="#1D2937"/>
<path d="M162.487 371.695C162.487 371.695 157.108 320.434 188.184 317.844" stroke="#1D2937" stroke-width="2" stroke-miterlimit="10"/>
<path d="M106.543 461.823V331.283" stroke="#1D2937" stroke-width="2" stroke-miterlimit="10"/>
<path d="M106.545 340.35C111.165 340.35 114.911 336.29 114.911 331.283C114.911 326.275 111.165 322.216 106.545 322.216C101.924 322.216 98.1777 326.275 98.1777 331.283C98.1777 336.29 101.924 340.35 106.545 340.35Z" fill="#1D2937"/>
<path d="M106.542 368.207C106.542 368.207 105.346 340.349 80.8438 343.588L106.542 368.207Z" fill="#1D2937"/>
<path d="M106.542 459.331C106.542 459.331 111.92 405.759 80.8438 403.169" stroke="#1D2937" stroke-width="2" stroke-miterlimit="10"/>
<path d="M80.8453 412.236C85.4661 412.236 89.2121 408.176 89.2121 403.169C89.2121 398.162 85.4661 394.102 80.8453 394.102C76.2245 394.102 72.4785 398.162 72.4785 403.169C72.4785 408.176 76.2245 412.236 80.8453 412.236Z" fill="#1D2937"/>
<path d="M824.055 274.861C837.377 274.861 848.176 263.154 848.176 248.713C848.176 234.271 837.377 222.564 824.055 222.564C810.733 222.564 799.934 234.271 799.934 248.713C799.934 263.154 810.733 274.861 824.055 274.861Z" fill="#F2F2F2"/>
<path opacity="0.1" d="M588.896 357.222C571.371 365.858 548.799 365.245 548.799 365.245H524.373V360.191C534.327 357.18 548.089 355.319 563.302 355.319C571.865 355.287 580.418 355.923 588.896 357.222Z" fill="black"/>
<path opacity="0.1" d="M618.262 371.863C618.262 381.003 593.652 388.406 563.303 388.406C532.953 388.406 508.344 381.003 508.344 371.863C508.344 367.305 514.466 363.177 524.373 360.191V365.245H548.8C548.8 365.245 571.371 365.857 588.897 357.222C606.354 359.984 618.262 365.502 618.262 371.863Z" fill="black"/>
<path d="M570.324 268.854H546.939V294.24H570.324V268.854Z" fill="#2F2E41"/>
<path d="M555.633 286.806C555.633 286.806 557.569 294.147 554.182 294.672C552.08 295.027 550.088 295.926 548.375 297.294L554.666 306.208H566.279L573.537 298.342C573.537 298.342 563.86 290.477 565.795 285.757C567.731 281.038 555.633 286.806 555.633 286.806Z" fill="#FFB9B9"/>
<path opacity="0.1" d="M555.633 286.806C555.633 286.806 557.569 294.147 554.182 294.672C552.08 295.027 550.088 295.926 548.375 297.294L554.666 306.208H566.279L573.537 298.342C573.537 298.342 563.86 290.477 565.795 285.757C567.731 281.038 555.633 286.806 555.633 286.806Z" fill="black"/>
<path d="M558.537 378.048L569.667 382.242L577.409 382.767L576.925 375.425L560.957 370.308L558.537 378.048Z" fill="#FFB9B9"/>
<path d="M572.813 376.474C572.813 376.474 572.813 383.815 573.78 383.815C574.748 383.815 587.813 382.242 591.684 383.815C595.556 385.389 601.362 379.62 598.459 376.474C595.555 373.328 590.82 368.609 587.865 369.657C584.91 370.706 572.812 373.328 572.812 373.328L572.813 376.474Z" fill="#2F2E41"/>
<path d="M537.245 369.657C537.245 369.657 531.438 382.242 535.309 383.291C539.18 384.34 543.535 382.767 544.019 382.242C544.503 381.718 551.278 379.621 552.245 380.669C553.213 381.718 553.213 376.474 553.213 376.474L537.245 369.657Z" fill="#2F2E41"/>
<path d="M542.086 352.353C542.086 352.353 532.892 365.987 539.666 369.657C546.441 373.328 578.861 373.328 581.281 369.657C583.7 365.987 584.668 354.451 581.281 353.402C577.894 352.353 542.086 352.353 542.086 352.353Z" fill="#2F2E41"/>
<path opacity="0.2" d="M542.086 352.353C542.086 352.353 532.892 365.987 539.666 369.657C546.441 373.328 578.861 373.328 581.281 369.657C583.7 365.987 584.668 354.451 581.281 353.402C577.894 352.353 542.086 352.353 542.086 352.353Z" fill="black"/>
<path d="M559.505 290.477C565.651 290.477 570.634 285.077 570.634 278.416C570.634 271.755 565.651 266.355 559.505 266.355C553.358 266.355 548.375 271.755 548.375 278.416C548.375 285.077 553.358 290.477 559.505 290.477Z" fill="#FFB9B9"/>
<path d="M542.084 297.294L551.762 295.196C551.762 295.196 554.181 303.586 561.924 302.013C569.666 300.44 571.601 295.196 571.601 295.196C571.601 295.196 577.408 297.818 577.892 297.818C578.376 297.818 584.667 300.44 584.667 302.013C584.667 303.586 577.408 319.318 577.408 319.318L578.376 347.634L542.568 346.585L544.987 318.793L542.084 297.294Z" fill="#F1971F"/>
<path d="M536.762 310.927C536.762 310.927 533.859 338.719 535.794 340.817C537.73 342.914 545.472 348.683 545.472 348.683V342.39L541.601 334.524L545.472 316.171L536.762 310.927Z" fill="#FFB9B9"/>
<path d="M586.846 310.141C586.846 310.141 585.152 338.719 585.152 339.768C585.152 340.817 580.797 344.488 579.345 344.488C577.894 344.488 576.926 341.866 576.926 341.866L580.313 337.671L577.894 316.171L586.846 310.141Z" fill="#FFB9B9"/>
<path d="M582.248 350.256C582.248 350.256 604.023 337.146 604.507 350.256C604.991 363.365 593.378 368.609 593.378 368.609C593.378 368.609 563.376 378.358 562.167 374.794C560.957 371.231 558.537 365.463 560.473 364.938C562.409 364.414 564.828 363.365 565.796 364.414C566.764 365.462 578.861 356.548 578.861 356.548L582.248 350.256Z" fill="#2F2E41"/>
<path opacity="0.2" d="M592.41 348.683C592.41 348.683 588.055 350.78 586.604 352.353C585.152 353.926 578.861 356.548 578.861 356.548" stroke="black" stroke-width="2" stroke-miterlimit="10"/>
<path d="M544.987 298.342L542.084 297.293C542.084 297.293 531.438 309.354 534.826 312.5C538.213 315.647 540.148 316.695 541.116 317.744C542.084 318.793 546.923 319.317 546.923 319.317L544.987 298.342Z" fill="#F1971F"/>
<path d="M580.314 300.964L584.669 302.013C584.669 302.013 588.056 309.879 589.024 310.928C589.991 311.976 587.572 311.452 586.12 313.549C584.669 315.647 583.217 319.318 580.314 319.318C577.41 319.318 573.539 314.074 573.539 314.074L580.314 300.964Z" fill="#F1971F"/>
<path d="M543.052 354.975C543.052 354.975 524.664 340.817 518.374 351.304C512.083 361.792 545.472 375.95 550.311 378.048C555.15 380.145 559.505 382.243 559.505 382.243C559.505 382.243 563.86 370.706 563.86 368.609C563.86 366.511 560.473 366.511 559.505 366.511C558.537 366.511 554.182 365.463 553.214 363.889C552.246 362.316 543.052 354.975 543.052 354.975Z" fill="#2F2E41"/>
<path opacity="0.2" d="M532.893 351.304C532.893 351.304 537.732 355.499 542.087 356.548C546.442 357.597 547.893 360.219 547.893 360.219" stroke="black" stroke-width="2" stroke-miterlimit="10"/>
<path d="M539.715 331.588L540.102 353.79C540.115 354.524 540.394 355.222 540.88 355.733C541.366 356.244 542.018 356.526 542.695 356.517L580.822 356.053C581.472 356.045 582.095 355.77 582.565 355.284C583.035 354.798 583.317 354.137 583.354 353.434L584.512 331.696C584.532 331.318 584.48 330.94 584.361 330.584C584.241 330.228 584.056 329.903 583.816 329.628C583.576 329.353 583.287 329.133 582.967 328.984C582.646 328.834 582.3 328.756 581.951 328.756H542.28C541.939 328.756 541.601 328.83 541.287 328.973C540.973 329.116 540.688 329.325 540.449 329.589C540.21 329.853 540.022 330.165 539.896 330.509C539.77 330.852 539.709 331.219 539.715 331.588Z" fill="#575A89"/>
<path d="M535.304 297.426C536.342 294.942 537.737 292.612 538.402 289.983C539.2 286.831 538.889 283.497 538.794 280.231C538.643 277.342 538.87 274.445 539.469 271.626C540.077 268.793 541.442 266.217 543.394 264.221C548.465 259.315 557.746 258.963 563.938 261.005C566.379 261.81 568.979 263.343 569.585 266.029C569.676 266.435 569.717 266.853 569.819 267.255C570.326 269.255 572.214 270.521 572.895 272.459C573.776 274.966 572.418 277.692 572.24 280.368C572.033 283.492 573.45 286.443 574.847 289.185C575.677 290.815 576.54 292.551 576.458 294.411C576.389 295.428 576.104 296.414 575.624 297.292C574.734 298.883 573.486 300.203 571.997 301.128C570.507 302.053 568.825 302.553 567.109 302.582C565.993 302.678 564.877 302.393 563.919 301.766C562.408 300.638 561.965 298.367 562.28 296.409C562.595 294.45 563.512 292.678 564.231 290.849C564.452 290.288 564.651 289.717 564.834 289.14C567.064 287.792 568.782 285.633 569.685 283.045C570.588 280.457 570.618 277.607 569.77 274.997C568.922 272.387 567.25 270.186 565.05 268.783C562.85 267.379 560.263 266.863 557.746 267.326C555.229 267.788 552.943 269.2 551.293 271.311C549.643 273.423 548.735 276.098 548.729 278.865C548.722 281.631 549.618 284.312 551.258 286.432C552.898 288.552 555.177 289.977 557.692 290.453C558.234 293.412 557.988 296.478 556.982 299.291C556.067 301.58 554.918 303.751 553.557 305.762C553 306.794 552.258 307.693 551.375 308.408C550.793 308.782 550.168 309.071 549.516 309.269C546.783 310.221 543.905 310.988 541.061 310.559C538.217 310.131 535.401 308.272 534.432 305.343C533.583 302.777 534.265 299.909 535.304 297.426Z" fill="#2F2E41"/>
<path d="M558.966 278.897C565.489 278.897 570.777 275.65 570.777 271.644C570.777 267.638 565.489 264.391 558.966 264.391C552.442 264.391 547.154 267.638 547.154 271.644C547.154 275.65 552.442 278.897 558.966 278.897Z" fill="#2F2E41"/>
<path opacity="0.3" d="M833.251 249.616C832.929 248.775 832.336 248.08 831.578 247.655C831.105 247.363 830.596 247.143 830.065 247.004C830.423 246.821 830.75 246.579 831.036 246.287C831.46 245.87 831.779 245.349 831.965 244.769C832.138 244.174 832.209 243.552 832.173 242.931C832.17 241.901 831.898 240.891 831.387 240.013C830.817 239.21 830.039 238.599 829.147 238.253C828.282 237.899 827.365 237.703 826.437 237.674V233.51L824.054 235.139V237.68H822.148V235.009L819.706 233.51V237.68H814.518L816.185 240.807C816.539 240.782 816.894 240.833 817.228 240.957C817.396 241.037 817.532 241.175 817.615 241.348C817.717 241.718 817.755 242.104 817.728 242.488V253.773C817.754 254.155 817.716 254.539 817.615 254.907C817.538 255.076 817.496 255.226 817.311 255.317C817.127 255.408 817.121 255.402 816.608 255.402H816.602L814.518 258.529H819.7V262.699H822.142V258.529H824.048V262.699H826.431V258.503C827.637 258.48 828.831 258.254 829.969 257.832C831.025 257.433 831.95 256.721 832.632 255.78C833.226 254.779 833.552 253.625 833.573 252.444C833.636 251.488 833.527 250.529 833.251 249.616ZM822.142 241.198H822.143V241.112H823.808C824.745 241.112 827.868 240.77 827.92 243.56C827.972 246.349 823.808 246.235 823.808 246.235H822.143V246.02H822.142V241.198ZM822.142 249.147H824.048C824.435 249.147 825.767 249.212 826.252 249.236C826.45 249.244 826.646 249.282 826.834 249.349C826.902 249.375 826.967 249.403 827.037 249.435C827.332 249.54 827.61 249.693 827.859 249.89C828.023 250.009 828.167 250.156 828.284 250.326C828.464 250.603 828.596 250.911 828.673 251.237C828.729 251.465 828.759 251.7 828.76 251.936C828.78 252.385 828.676 252.83 828.463 253.219C828.157 253.736 827.708 254.141 827.177 254.379C826.185 254.808 825.121 255.023 824.048 255.011H822.142V249.147Z" fill="#F1971F"/>
<path d="M30.292 317.428C47.0218 317.428 60.584 302.726 60.584 284.591C60.584 266.455 47.0218 251.753 30.292 251.753C13.5622 251.753 0 266.455 0 284.591C0 302.726 13.5622 317.428 30.292 317.428Z" fill="#F2F2F2"/>
<path opacity="0.3" d="M41.093 286.48C40.6949 285.428 39.9628 284.56 39.0253 284.029C38.4419 283.663 37.8125 283.389 37.1563 283.214C37.5985 282.986 38.0034 282.684 38.3556 282.318C38.8797 281.798 39.2743 281.145 39.5035 280.421C39.7174 279.678 39.8046 278.9 39.761 278.124C39.7573 276.836 39.4212 275.573 38.7898 274.475C38.0852 273.473 37.1244 272.709 36.0231 272.277C34.9538 271.833 33.8215 271.588 32.6751 271.552V266.348L29.7318 268.384V271.56H27.3771V268.221L24.3602 266.348V271.56H17.9512L20.0115 275.469C20.4482 275.437 20.8864 275.501 21.2992 275.656C21.5064 275.756 21.6753 275.928 21.7775 276.145C21.903 276.607 21.9504 277.09 21.9173 277.57V291.676C21.9493 292.154 21.902 292.633 21.7775 293.093C21.6818 293.305 21.6303 293.492 21.4022 293.606C21.1741 293.72 21.1667 293.712 20.534 293.712H20.5266L17.9512 297.621H24.3529V302.834H27.3698V297.621H29.7245V302.834H32.6677V297.589C34.1572 297.56 35.6329 297.277 37.0386 296.75C38.3433 296.252 39.4855 295.361 40.3277 294.184C41.0619 292.933 41.4638 291.492 41.4903 290.015C41.5679 288.82 41.4331 287.621 41.093 286.48ZM27.3698 275.958H27.3706V275.849H29.428C30.5854 275.849 34.4426 275.423 34.5066 278.909C34.5714 282.396 29.428 282.253 29.428 282.253H27.3706V281.984H27.3698L27.3698 275.958ZM27.3698 285.894H29.7245C30.2028 285.894 31.8481 285.974 32.4471 286.004C32.6916 286.014 32.9335 286.062 33.1652 286.146C33.2498 286.178 33.3301 286.214 33.4169 286.254C33.7813 286.384 34.1238 286.576 34.4316 286.822C34.6344 286.971 34.8118 287.155 34.9563 287.368C35.1793 287.713 35.3421 288.099 35.4368 288.506C35.5069 288.791 35.5433 289.085 35.5449 289.379C35.5692 289.941 35.4417 290.498 35.1777 290.984C34.7998 291.63 34.2455 292.136 33.5898 292.434C32.3637 292.97 31.0493 293.239 29.7245 293.224H27.3698L27.3698 285.894Z" fill="#F1971F"/>
</svg>
