<svg width="30" height="31" viewBox="0 0 30 31" fill="none" xmlns="http://www.w3.org/2000/svg">
<circle cx="15" cy="15.9004" r="15" fill="#D9D9D9"/>
<path d="M9.72 23.9004V20.8404H3V19.6404L9.98 9.80039H11.34V19.5004H13.5V20.8404H11.34V23.9004H9.72ZM9.72 19.5004V11.7604H10.16L4.36 19.9204V19.5004H9.72ZM19.9922 24.0804C18.3789 24.0804 17.1322 23.7404 16.2522 23.0604C15.3722 22.3671 14.9322 21.4004 14.9322 20.1604C14.9322 19.1871 15.2322 18.3804 15.8322 17.7404C16.4322 17.0871 17.2255 16.6937 18.2122 16.5604V16.8604C17.3189 16.6737 16.6055 16.2671 16.0722 15.6404C15.5389 15.0004 15.2722 14.2471 15.2722 13.3804C15.2722 12.1937 15.6922 11.2737 16.5322 10.6204C17.3722 9.95372 18.5255 9.62039 19.9922 9.62039C21.4722 9.62039 22.6322 9.95372 23.4722 10.6204C24.3122 11.2737 24.7322 12.1937 24.7322 13.3804C24.7322 14.2471 24.4789 15.0004 23.9722 15.6404C23.4789 16.2804 22.7855 16.6804 21.8922 16.8404V16.5604C22.8655 16.6937 23.6389 17.0871 24.2122 17.7404C24.7855 18.3804 25.0722 19.1871 25.0722 20.1604C25.0722 21.4004 24.6322 22.3671 23.7522 23.0604C22.8722 23.7404 21.6189 24.0804 19.9922 24.0804ZM19.9922 22.7204C21.1655 22.7204 22.0389 22.5004 22.6122 22.0604C23.1989 21.6204 23.4922 20.9537 23.4922 20.0604C23.4922 19.1804 23.1989 18.5271 22.6122 18.1004C22.0389 17.6604 21.1655 17.4404 19.9922 17.4404C18.8189 17.4404 17.9389 17.6604 17.3522 18.1004C16.7789 18.5271 16.4922 19.1804 16.4922 20.0604C16.4922 20.9537 16.7855 21.6204 17.3722 22.0604C17.9589 22.5004 18.8322 22.7204 19.9922 22.7204ZM19.9922 16.0804C21.0055 16.0804 21.7789 15.8537 22.3122 15.4004C22.8589 14.9471 23.1322 14.3204 23.1322 13.5204C23.1322 12.7204 22.8589 12.1004 22.3122 11.6604C21.7789 11.2071 21.0055 10.9804 19.9922 10.9804C18.9789 10.9804 18.1989 11.2071 17.6522 11.6604C17.1189 12.1004 16.8522 12.7204 16.8522 13.5204C16.8522 14.3204 17.1189 14.9471 17.6522 15.4004C18.1989 15.8537 18.9789 16.0804 19.9922 16.0804Z" fill="black"/>
</svg>
