<svg width="194" height="39" viewBox="0 0 194 39" fill="none" xmlns="http://www.w3.org/2000/svg">
<path d="M2.64 30.9004V9.75039H11.1C13.34 9.75039 15.07 10.2304 16.29 11.1904C17.51 12.1504 18.12 13.5104 18.12 15.2704C18.12 16.5904 17.72 17.6904 16.92 18.5704C16.14 19.4504 15.05 20.0304 13.65 20.3104V19.8904C15.21 20.0704 16.43 20.6104 17.31 21.5104C18.21 22.3904 18.66 23.5804 18.66 25.0804C18.66 26.9604 18.03 28.4004 16.77 29.4004C15.53 30.4004 13.77 30.9004 11.49 30.9004H2.64ZM5.07 28.8904H11.25C12.77 28.8904 13.97 28.6004 14.85 28.0204C15.75 27.4204 16.2 26.4304 16.2 25.0504C16.2 23.6504 15.75 22.6604 14.85 22.0804C13.97 21.4804 12.77 21.1804 11.25 21.1804H5.07V28.8904ZM5.07 19.2004H10.74C12.38 19.2004 13.61 18.8804 14.43 18.2404C15.25 17.6004 15.66 16.6804 15.66 15.4804C15.66 14.2404 15.25 13.3104 14.43 12.6904C13.61 12.0504 12.38 11.7304 10.74 11.7304H5.07V19.2004ZM28.0706 31.1704C26.2906 31.1704 24.9406 30.6804 24.0206 29.7004C23.1206 28.7204 22.6706 27.2204 22.6706 25.2004V15.8404H25.1006V25.1404C25.1006 26.5204 25.3806 27.5404 25.9406 28.2004C26.5006 28.8404 27.3706 29.1604 28.5506 29.1604C29.8706 29.1604 30.9306 28.7304 31.7306 27.8704C32.5306 27.0104 32.9306 25.8604 32.9306 24.4204V15.8404H35.3606V30.9004H32.9906V27.5104H33.3806C32.9606 28.6704 32.2806 29.5704 31.3406 30.2104C30.4206 30.8504 29.3306 31.1704 28.0706 31.1704ZM39.4751 37.7104L38.9051 35.7004C39.8451 35.4804 40.6251 35.2204 41.2451 34.9204C41.8851 34.6404 42.4151 34.2604 42.8351 33.7804C43.2551 33.3004 43.6151 32.7004 43.9151 31.9804L44.6951 30.2104L44.6351 31.2304L38.0651 15.8404H40.7051L46.1351 29.0704H45.3551L50.7251 15.8404H53.2751L46.3151 32.1604C45.9151 33.1204 45.4751 33.9204 44.9951 34.5604C44.5151 35.2204 43.9951 35.7504 43.4351 36.1504C42.8951 36.5704 42.2951 36.9004 41.6351 37.1404C40.9751 37.3804 40.2551 37.5704 39.4751 37.7104ZM73.3148 31.1704C71.1948 31.1704 69.3948 30.7304 67.9148 29.8504C66.4348 28.9704 65.2948 27.7204 64.4948 26.1004C63.7148 24.4804 63.3248 22.5504 63.3248 20.3104C63.3248 18.0704 63.7148 16.1504 64.4948 14.5504C65.2948 12.9304 66.4348 11.6804 67.9148 10.8004C69.3948 9.92039 71.1948 9.48039 73.3148 9.48039C74.8148 9.48039 76.1548 9.71039 77.3348 10.1704C78.5148 10.6304 79.5448 11.3004 80.4248 12.1804L79.4948 14.1604C78.5348 13.3204 77.5848 12.7104 76.6448 12.3304C75.7048 11.9304 74.6048 11.7304 73.3448 11.7304C70.9248 11.7304 69.0848 12.4804 67.8248 13.9804C66.5648 15.4804 65.9348 17.5904 65.9348 20.3104C65.9348 23.0304 66.5648 25.1504 67.8248 26.6704C69.0848 28.1704 70.9248 28.9204 73.3448 28.9204C74.6048 28.9204 75.7048 28.7304 76.6448 28.3504C77.5848 27.9504 78.5348 27.3204 79.4948 26.4604L80.4248 28.4704C79.5448 29.3304 78.5148 30.0004 77.3348 30.4804C76.1548 30.9404 74.8148 31.1704 73.3148 31.1704ZM84.2827 30.9004V19.4704C84.2827 18.8704 84.2627 18.2604 84.2227 17.6404C84.2027 17.0204 84.1627 16.4204 84.1027 15.8404H86.4427L86.7427 19.5004L86.3227 19.5304C86.5227 18.6304 86.8727 17.8904 87.3727 17.3104C87.8727 16.7304 88.4627 16.3004 89.1427 16.0204C89.8227 15.7204 90.5327 15.5704 91.2727 15.5704C91.5727 15.5704 91.8327 15.5804 92.0527 15.6004C92.2927 15.6204 92.5127 15.6704 92.7127 15.7504L92.6827 17.9104C92.3827 17.8104 92.1027 17.7504 91.8427 17.7304C91.6027 17.6904 91.3227 17.6704 91.0027 17.6704C90.1227 17.6704 89.3527 17.8804 88.6927 18.3004C88.0527 18.7204 87.5627 19.2604 87.2227 19.9204C86.9027 20.5804 86.7427 21.2804 86.7427 22.0204V30.9004H84.2827ZM95.5493 37.7104L94.9793 35.7004C95.9193 35.4804 96.6993 35.2204 97.3193 34.9204C97.9593 34.6404 98.4893 34.2604 98.9093 33.7804C99.3293 33.3004 99.6893 32.7004 99.9893 31.9804L100.769 30.2104L100.709 31.2304L94.1393 15.8404H96.7793L102.209 29.0704H101.429L106.799 15.8404H109.349L102.389 32.1604C101.989 33.1204 101.549 33.9204 101.069 34.5604C100.589 35.2204 100.069 35.7504 99.5093 36.1504C98.9693 36.5704 98.3693 36.9004 97.7093 37.1404C97.0493 37.3804 96.3293 37.5704 95.5493 37.7104ZM112.087 37.3804V19.3204C112.087 18.7604 112.057 18.1904 111.997 17.6104C111.957 17.0104 111.907 16.4204 111.847 15.8404H114.187L114.517 19.4104H114.157C114.477 18.2304 115.127 17.3004 116.107 16.6204C117.087 15.9204 118.257 15.5704 119.617 15.5704C120.977 15.5704 122.147 15.8804 123.127 16.5004C124.127 17.1204 124.907 18.0104 125.467 19.1704C126.027 20.3304 126.307 21.7304 126.307 23.3704C126.307 24.9904 126.027 26.3804 125.467 27.5404C124.927 28.7004 124.157 29.6004 123.157 30.2404C122.157 30.8604 120.977 31.1704 119.617 31.1704C118.277 31.1704 117.117 30.8304 116.137 30.1504C115.157 29.4704 114.507 28.5404 114.187 27.3604H114.517V37.3804H112.087ZM119.137 29.1904C120.577 29.1904 121.717 28.7004 122.557 27.7204C123.417 26.7204 123.847 25.2704 123.847 23.3704C123.847 21.4504 123.417 20.0004 122.557 19.0204C121.717 18.0204 120.577 17.5204 119.137 17.5204C117.717 17.5204 116.577 18.0204 115.717 19.0204C114.877 20.0004 114.457 21.4504 114.457 23.3704C114.457 25.2704 114.877 26.7204 115.717 27.7204C116.577 28.7004 117.717 29.1904 119.137 29.1904ZM135.269 31.1704C133.789 31.1704 132.659 30.7504 131.879 29.9104C131.099 29.0504 130.709 27.7604 130.709 26.0404V17.7304H127.769V15.8404H130.709V11.7304L133.139 11.0404V15.8404H137.459V17.7304H133.139V25.7704C133.139 26.9704 133.339 27.8304 133.739 28.3504C134.159 28.8504 134.779 29.1004 135.599 29.1004C135.979 29.1004 136.319 29.0704 136.619 29.0104C136.919 28.9304 137.189 28.8404 137.429 28.7404V30.7804C137.149 30.9004 136.809 30.9904 136.409 31.0504C136.029 31.1304 135.649 31.1704 135.269 31.1704ZM146.45 31.1704C145.01 31.1704 143.75 30.8604 142.67 30.2404C141.61 29.6004 140.79 28.7004 140.21 27.5404C139.63 26.3604 139.34 24.9704 139.34 23.3704C139.34 21.7504 139.63 20.3604 140.21 19.2004C140.79 18.0404 141.61 17.1504 142.67 16.5304C143.75 15.8904 145.01 15.5704 146.45 15.5704C147.91 15.5704 149.17 15.8904 150.23 16.5304C151.31 17.1504 152.14 18.0404 152.72 19.2004C153.32 20.3604 153.62 21.7504 153.62 23.3704C153.62 24.9704 153.32 26.3604 152.72 27.5404C152.14 28.7004 151.31 29.6004 150.23 30.2404C149.17 30.8604 147.91 31.1704 146.45 31.1704ZM146.45 29.1904C147.89 29.1904 149.03 28.7004 149.87 27.7204C150.71 26.7204 151.13 25.2704 151.13 23.3704C151.13 21.4504 150.7 20.0004 149.84 19.0204C149 18.0204 147.87 17.5204 146.45 17.5204C145.03 17.5204 143.9 18.0204 143.06 19.0204C142.22 20.0004 141.8 21.4504 141.8 23.3704C141.8 25.2704 142.22 26.7204 143.06 27.7204C143.9 28.7004 145.03 29.1904 146.45 29.1904Z" fill="#000AFF"/>
<circle cx="179" cy="19.9004" r="15" fill="#000AFF"/>
<path d="M179 31.1704C176.6 31.1704 174.76 30.2404 173.48 28.3804C172.2 26.5204 171.56 23.8304 171.56 20.3104C171.56 16.7704 172.2 14.0804 173.48 12.2404C174.76 10.4004 176.6 9.48039 179 9.48039C181.42 9.48039 183.26 10.4004 184.52 12.2404C185.8 14.0804 186.44 16.7604 186.44 20.2804C186.44 23.8204 185.8 26.5204 184.52 28.3804C183.24 30.2404 181.4 31.1704 179 31.1704ZM179 29.0104C180.68 29.0104 181.93 28.3004 182.75 26.8804C183.57 25.4604 183.98 23.2604 183.98 20.2804C183.98 17.2804 183.57 15.0904 182.75 13.7104C181.93 12.3104 180.68 11.6104 179 11.6104C177.34 11.6104 176.09 12.3104 175.25 13.7104C174.43 15.1104 174.02 17.3004 174.02 20.2804C174.02 23.2604 174.43 25.4604 175.25 26.8804C176.09 28.3004 177.34 29.0104 179 29.0104Z" fill="white"/>
</svg>
