<svg width="526" height="197" viewBox="0 0 526 197" fill="none" xmlns="http://www.w3.org/2000/svg">
<g clip-path="url(#clip0_369_3213)">
<path d="M142.646 47.3047L163.147 38.7056L171.94 56.672L150.397 65.4362L142.646 47.3047Z" fill="#FFB6B6"/>
<path opacity="0.1" d="M142.646 47.3047L163.147 38.7056L171.94 56.672L150.397 65.4362L142.646 47.3047Z" fill="black"/>
<path d="M145.561 31.4584L165.786 54.6833C165.786 54.6833 151.716 98.9422 137.647 102.886C123.578 106.83 97.6383 126.111 97.6383 126.111L65.1035 105.077L80.9313 81.8522C80.9313 81.8522 119.182 29.7056 129.294 29.7056C139.406 29.7056 145.561 31.4584 145.561 31.4584V31.4584Z" fill="#F1971F"/>
<path d="M118.237 182.859H71.1579L68.1814 178.893L56.0292 162.702L53.233 158.977C53.233 158.977 42.6811 139.696 44.8794 122.167C47.0777 104.639 69.94 100.695 69.94 100.695H70.8809L98.8696 125.209L97.1989 148.022L106.062 162.702L118.237 182.859Z" fill="#2F2E41"/>
<path d="M80.7979 191.859H68.1797V173.235L80.7979 191.859Z" fill="#2F2E41"/>
<path d="M427.657 59.5947L432.363 88.8539L402.629 89.2361V63.7977L427.657 59.5947Z" fill="#F2AEAF"/>
<path d="M498.484 163.586L496.914 171.702L493.019 191.859H414.764C415.375 187.341 416.21 180.838 417.103 173.818C417.191 173.117 417.283 172.412 417.371 171.702C419.609 154.055 422.058 134.086 422.058 134.086L432.346 135.33L452.306 137.741L460.44 138.722L482.221 141.356C493.08 142.666 500.55 152.876 498.484 163.586Z" fill="#F2F2F2"/>
<path d="M463.702 191.859H421.258C421.904 191.101 422.269 190.663 422.269 190.663L434.993 188.568L461.21 184.256C461.21 184.256 462.405 187.337 463.702 191.859Z" fill="#2F2E41"/>
<path d="M405.311 191.859H341.213C341.85 190.597 342.51 189.331 343.187 188.069C344.093 186.382 345.06 184.879 346.084 183.542C346.766 182.652 347.469 181.837 348.195 181.092C350.327 178.906 352.648 177.315 355.093 176.224C363.82 172.311 374.104 174.708 382.862 178.608C386.15 180.071 389.224 181.745 391.919 183.375C396.667 186.25 400.25 188.993 401.776 190.211C402.304 190.628 402.585 190.869 402.585 190.869L405.311 191.859Z" fill="#2F2E41"/>
<path d="M354.461 191.859H345.369L347.765 189.085L349.119 187.516L349.7 187.985L354.461 191.859Z" fill="#FFB6B6"/>
<path d="M466.807 191.859H388.512L391.92 183.376L396.602 171.702L398.954 165.839L397.011 157.596C397.011 157.596 396.053 156.921 394.593 155.707C389.392 151.413 377.816 140.352 380.476 128.994C383.5 116.067 387.299 90.8745 388.104 85.4451C388.205 84.7659 388.257 84.3978 388.257 84.3978L399.557 81.6371L399.93 81.5451L401.144 81.2471H431.41L453.67 96.2732L453.666 96.4309L452.307 137.741L451.727 155.414C451.727 155.414 451.028 157.964 451.195 161.925C451.305 164.642 451.819 168.021 453.244 171.702C454.752 175.615 457.288 179.866 461.452 184.015C464.596 187.148 466.121 189.786 466.807 191.859Z" fill="#F1971F"/>
<path d="M460.441 138.722C459.698 144.795 458.986 149.112 458.986 149.112L451.195 161.925L445.251 171.701L434.993 188.568L433.49 191.044L432.417 191.859H400.238L401.777 190.211L417.104 173.818L419.086 171.701L422.3 168.261L432.347 135.33L444.187 96.5182C444.187 96.5182 448.983 94.853 453.666 96.4306C456.128 97.2588 458.563 98.9854 460.239 102.333C463.444 108.722 461.883 126.995 460.441 138.722Z" fill="#F1971F"/>
<path d="M404.833 130.662L395.592 148.707L387.401 164.702L383.862 171.608L382.468 174.333L370.522 184.859H343.475L347.933 179.338L349.59 177.278L356.093 169.224L359.742 164.702L369.648 152.423L372.29 96.4998C372.728 87.2244 379.818 79.7264 389.047 78.4542C389.067 78.4515 389.085 78.4484 389.102 78.4449C392.101 77.8446 396.867 77.6693 400.556 81.2232C400.683 81.3415 400.806 81.4686 400.929 81.6C401.549 82.253 402.134 83.0198 402.67 83.9181C402.723 84.0058 402.776 84.0979 402.824 84.1899C402.978 84.4703 403.128 84.777 403.264 85.1057C407.973 96.0346 404.833 130.662 404.833 130.662L404.833 130.662Z" fill="#F1971F"/>
<path d="M412.9 67.6172C424.706 67.6172 434.277 58.0782 434.277 46.3113C434.277 34.5443 424.706 25.0054 412.9 25.0054C401.094 25.0054 391.523 34.5443 391.523 46.3113C391.523 58.0782 401.094 67.6172 412.9 67.6172Z" fill="#F2AEAF"/>
<path d="M421.763 54.6882C421.763 54.6882 419.548 48.603 418.291 45.4454C417.034 42.2877 417.854 38.1901 417.854 38.1901C417.854 38.1901 401.085 34.501 394.519 38.1575C387.952 41.814 387.51 23.4226 394.175 18.4171C394.175 18.4171 395.96 21.5086 395.267 22.3974L394.575 23.2862C394.575 23.2862 399.618 12.6557 408.134 12.1235C408.134 12.1235 412.171 15.3337 410.649 16.3932C409.128 17.4528 421.865 10.4034 424.081 16.4885C424.081 16.4885 432.202 17.9307 430.62 20.6954L430.753 22.6036C430.753 22.6036 438.114 21.8419 437.589 27.0406C437.589 27.0406 435.113 26.5488 433.529 27.6027C431.946 28.6566 437.297 33.6539 437.297 33.6539C437.297 33.6539 440.513 54.4781 429.36 60.4736C429.36 60.4736 431.169 50.9969 426.911 52.5461C422.654 54.0954 421.763 54.6882 421.763 54.6882V54.6882Z" fill="#2F2E41"/>
<path d="M513.157 197H12.8429C5.76129 197 0 191.258 0 184.2C0 177.141 5.76129 171.399 12.8429 171.399H513.157C520.239 171.399 526 177.141 526 184.2C526 191.258 520.239 197 513.157 197Z" fill="#E6E6E6"/>
<path d="M497.094 125.382L496.121 170.624C496.027 175.004 492.438 178.505 488.043 178.505H404.542C400.251 178.505 396.709 175.162 396.474 170.891L393.993 125.649C393.74 121.036 397.425 117.156 402.061 117.156H489.016C493.546 117.156 497.191 120.868 497.094 125.382Z" fill="#3F3D56"/>
<path d="M179.855 49.2259C190.888 49.2259 199.833 40.3111 199.833 29.3141C199.833 18.3172 190.888 9.40234 179.855 9.40234C168.821 9.40234 159.877 18.3172 159.877 29.3141C159.877 40.3111 168.821 49.2259 179.855 49.2259Z" fill="#FFB6B6"/>
<path d="M146.44 81.4143L148.638 105.078L163.587 165.112L150.672 169.623L128.853 104.201L125.84 77.9087L146.44 81.4143Z" fill="#FFB6B6"/>
<path d="M140.495 123.382L139.522 168.624C139.428 173.004 135.839 176.505 131.444 176.505H47.9428C43.6516 176.505 40.1089 173.162 39.8747 168.891L37.3932 123.649C37.1401 119.036 40.8254 115.156 45.4613 115.156H132.416C136.947 115.156 140.592 118.868 140.495 123.382H140.495Z" fill="#3F3D56"/>
<path d="M165.967 176.811C174.681 176.811 181.744 173.697 181.744 169.855C181.744 166.014 174.681 162.9 165.967 162.9C157.253 162.9 150.189 166.014 150.189 169.855C150.189 173.697 157.253 176.811 165.967 176.811Z" fill="#FFB6B6"/>
<path d="M115.443 94.0321L124.456 46.1555C124.456 46.1555 149.517 42.6498 150.396 50.9757C151.276 59.3017 149.768 99.9916 149.768 99.9916L115.443 94.0321V94.0321Z" fill="#F1971F"/>
<path d="M171.789 32.445C171.789 32.445 184.147 28.0489 189.36 25.6836C194.573 23.3183 204.93 39.8161 205.16 31.1031C205.39 22.3901 201.812 18.7362 201.812 18.7362C201.812 18.7362 200.918 -0.324759 181.651 2.05831C181.651 2.05831 185.889 -7.4781 171.978 -8.95273C158.066 -10.4274 136.424 23.055 138.362 28.0587C140.301 33.0625 142.624 37.1993 137.125 42.5494C131.626 47.8995 121.329 78.0942 129.164 86.2194C136.998 94.3446 137.512 97.8704 132.144 102.925C126.776 107.98 114.089 118.971 127.807 120.879C141.526 122.788 126.552 121.362 136.779 112.396C147.007 103.43 161.931 103.796 156.358 89.4101C150.786 75.0243 160.467 54.4096 159.256 51.2823C158.044 48.1549 161.97 28.2961 161.97 28.2961C161.97 28.2961 171.106 26.9583 171.789 32.445V32.445Z" fill="#2F2E41"/>
<path d="M336.122 127.259C326.258 162.627 286.183 184.152 246.611 175.332C207.056 166.514 182.976 130.69 192.845 95.3245C202.705 59.9525 242.78 38.4259 282.34 47.2437C321.909 56.0614 345.987 91.8895 336.122 127.259H336.122H336.122Z" fill="#F7931A"/>
<path d="M297.047 101.883C298.517 93.0984 291.034 88.3759 280.802 85.2255L284.121 73.3255L276.018 71.5203L272.787 83.1067C270.656 82.6322 268.468 82.1845 266.294 81.741L269.548 70.0782L261.449 68.2729L258.128 80.1688C256.365 79.8098 254.634 79.455 252.953 79.0816L252.963 79.0444L241.787 76.5501L239.631 84.2867C239.631 84.2867 245.644 85.5184 245.517 85.5948C248.799 86.3272 249.392 88.2685 249.293 89.8076L245.512 103.364C245.738 103.416 246.032 103.49 246.355 103.606C246.085 103.546 245.796 103.48 245.498 103.416L240.199 122.407C239.797 123.298 238.78 124.635 236.485 124.127C236.566 124.233 230.595 122.813 230.595 122.813L226.572 131.105L237.118 133.455C239.08 133.894 241.002 134.354 242.895 134.788L239.541 146.824L247.636 148.629L250.957 136.721C253.168 137.257 255.314 137.752 257.415 138.219L254.105 150.071L262.209 151.876L265.562 139.863C279.381 142.2 289.771 141.258 294.145 130.086C297.67 121.091 293.97 115.902 286.699 112.518C291.994 111.427 295.982 108.314 297.046 101.883L297.047 101.883V101.883ZM278.531 125.091C276.027 134.086 259.084 129.223 253.59 128.004L258.04 112.058C263.534 113.284 281.149 115.71 278.531 125.091V125.091L278.531 125.091ZM281.038 101.753C278.753 109.935 264.651 105.778 260.076 104.759L264.111 90.2966C268.685 91.3158 283.417 93.218 281.038 101.753V101.753Z" fill="white"/>
</g>
<defs>
<clipPath id="clip0_369_3213">
<rect width="526" height="197" fill="white"/>
</clipPath>
</defs>
</svg>
