<svg width="528" height="664" viewBox="0 0 528 664" fill="none" xmlns="http://www.w3.org/2000/svg">
<path d="M107.611 628.303C106.689 628.346 105.776 628.103 104.997 627.61C104.217 627.116 103.608 626.394 103.252 625.542C102.896 624.69 102.81 623.75 103.006 622.847C103.202 621.945 103.671 621.125 104.349 620.499C104.462 620.047 104.544 619.723 104.657 619.272C104.617 619.174 104.576 619.076 104.535 618.977C103.606 616.783 102.05 614.912 100.061 613.599C98.0732 612.286 95.7416 611.591 93.3595 611.6C90.9774 611.608 88.651 612.321 86.6726 613.649C84.6941 614.976 83.1519 616.859 82.2395 619.06C78.593 627.847 73.9504 636.648 72.8073 645.939C72.3038 650.045 72.5161 654.208 73.4349 658.242C64.8703 639.551 60.4229 619.235 60.3943 598.673C60.3925 593.514 60.6791 588.358 61.2526 583.23C61.7266 579.026 62.3842 574.853 63.2254 570.709C67.8159 548.225 77.6717 527.151 91.9836 509.218C98.9106 505.436 104.512 499.621 108.034 492.557C109.31 490.017 110.212 487.306 110.712 484.508C109.93 484.611 109.136 484.675 108.355 484.726C108.111 484.739 107.855 484.752 107.612 484.764L107.52 484.769C106.661 484.807 105.81 484.597 105.068 484.162C104.326 483.728 103.725 483.088 103.338 482.32C102.951 481.552 102.794 480.689 102.887 479.833C102.979 478.978 103.316 478.168 103.858 477.5C104.195 477.085 104.533 476.67 104.87 476.255C105.383 475.614 105.908 474.986 106.42 474.345C106.48 474.284 106.535 474.22 106.587 474.153C107.176 473.422 107.765 472.705 108.355 471.974C107.279 470.304 105.832 468.905 104.128 467.886C98.2221 464.426 90.075 466.822 85.8092 472.166C81.5307 477.511 80.7237 485.008 82.2096 491.685C83.6709 497.367 86.0881 502.758 89.3577 507.628C89.0373 508.038 88.7043 508.436 88.384 508.846C82.5298 516.377 77.4275 524.464 73.1501 532.991C74.1903 523.439 72.9488 513.775 69.5278 504.796C66.0606 496.428 59.5618 489.38 53.8389 482.146C46.9647 473.456 32.8685 477.249 31.6575 488.264C31.6457 488.37 31.6343 488.477 31.6231 488.584C32.4732 489.063 33.3053 489.573 34.1194 490.111C35.1422 490.795 35.9347 491.772 36.3931 492.914C36.8515 494.056 36.9544 495.31 36.6883 496.511C36.4222 497.713 35.7996 498.806 34.902 499.647C34.0044 500.489 32.8737 501.039 31.658 501.227L31.5335 501.246C31.8364 504.311 32.3716 507.349 33.1347 510.333C35.346 518.663 39.2534 526.446 44.6121 533.194C49.9709 539.943 56.6653 545.511 64.2757 549.55C64.7753 549.806 65.2621 550.062 65.7617 550.306C61.4643 562.49 58.7687 575.182 57.7427 588.062C57.1618 595.66 57.1961 603.294 57.8452 610.887L57.8067 610.618C56.1669 602.174 51.6648 594.556 45.0608 589.048C35.2521 580.987 21.3942 578.019 10.8124 571.539C9.68779 570.817 8.38014 570.431 7.04371 570.428C5.70728 570.424 4.39781 570.804 3.26971 571.52C2.1416 572.237 1.24192 573.262 0.676804 574.474C0.111691 575.685 -0.0952979 577.033 0.0802484 578.359C0.0944404 578.453 0.108889 578.548 0.123546 578.642C1.70098 579.285 3.23686 580.025 4.72227 580.859C5.57231 581.339 6.4044 581.848 7.21854 582.387C8.24131 583.07 9.0338 584.047 9.4922 585.189C9.9506 586.331 10.0535 587.585 9.78746 588.786C9.52139 589.988 8.89878 591.081 8.00117 591.923C7.10357 592.764 5.97282 593.314 4.75712 593.502L4.63255 593.521C4.54287 593.534 4.46603 593.547 4.37649 593.56C7.07176 599.998 10.8547 605.925 15.5595 611.079C21.3716 617.319 28.3962 622.305 36.2028 625.732C44.0093 629.159 52.4332 630.954 60.958 631.008H60.9708C63.2849 641.069 66.6378 650.862 70.9755 660.229H106.715C106.843 659.831 106.959 659.421 107.074 659.024C103.766 659.232 100.445 659.034 97.1845 658.434C99.8362 655.179 102.488 651.898 105.14 648.643C105.199 648.582 105.254 648.518 105.306 648.451C106.651 646.785 108.009 645.131 109.354 643.465L109.355 643.463C109.426 638.356 108.841 633.261 107.612 628.304L107.611 628.303Z" fill="#F2F2F2"/>
<path d="M420.386 628.303C421.308 628.346 422.221 628.103 423 627.61C423.78 627.116 424.389 626.394 424.745 625.542C425.101 624.69 425.187 623.75 424.991 622.847C424.794 621.945 424.326 621.125 423.648 620.499C423.535 620.047 423.453 619.723 423.34 619.272C423.38 619.174 423.421 619.076 423.462 618.977C424.391 616.783 425.947 614.912 427.935 613.599C429.924 612.286 432.255 611.591 434.637 611.6C437.019 611.608 439.346 612.321 441.324 613.649C443.303 614.976 444.845 616.859 445.757 619.06C449.404 627.847 454.047 636.648 455.19 645.939C455.693 650.045 455.481 654.208 454.562 658.242C463.127 639.551 467.574 619.235 467.603 598.673C467.604 593.514 467.318 588.358 466.744 583.23C466.27 579.026 465.613 574.853 464.772 570.709C460.181 548.225 450.325 527.151 436.013 509.218C429.086 505.436 423.484 499.621 419.962 492.557C418.686 490.017 417.785 487.306 417.285 484.508C418.067 484.611 418.861 484.675 419.642 484.726C419.886 484.739 420.142 484.752 420.385 484.764L420.477 484.769C421.336 484.807 422.187 484.597 422.929 484.162C423.671 483.728 424.272 483.088 424.659 482.32C425.046 481.552 425.203 480.689 425.11 479.833C425.018 478.978 424.681 478.168 424.139 477.5C423.802 477.085 423.464 476.67 423.127 476.255C422.614 475.614 422.089 474.986 421.577 474.345C421.517 474.284 421.462 474.22 421.41 474.153C420.821 473.422 420.232 472.705 419.642 471.974C420.718 470.304 422.165 468.905 423.87 467.886C429.775 464.426 437.922 466.822 442.188 472.166C446.466 477.511 447.273 485.008 445.787 491.685C444.326 497.367 441.909 502.758 438.639 507.628C438.96 508.038 439.293 508.436 439.613 508.846C445.467 516.377 450.57 524.464 454.847 532.991C453.807 523.439 455.048 513.775 458.469 504.796C461.936 496.428 468.435 489.38 474.158 482.146C481.032 473.456 495.128 477.249 496.34 488.264C496.351 488.37 496.363 488.477 496.374 488.584C495.524 489.063 494.692 489.573 493.878 490.111C492.855 490.795 492.062 491.772 491.604 492.914C491.145 494.056 491.043 495.31 491.309 496.511C491.575 497.713 492.197 498.806 493.095 499.647C493.993 500.489 495.123 501.039 496.339 501.227L496.463 501.246C496.161 504.311 495.625 507.349 494.862 510.333C492.651 518.663 488.744 526.446 483.385 533.194C478.026 539.943 471.332 545.511 463.721 549.55C463.222 549.806 462.735 550.062 462.235 550.306C466.533 562.49 469.228 575.182 470.254 588.062C470.835 595.66 470.801 603.294 470.152 610.887L470.19 610.618C471.83 602.174 476.332 594.556 482.936 589.048C492.745 580.987 506.603 578.019 517.185 571.539C518.309 570.817 519.617 570.431 520.953 570.428C522.29 570.424 523.599 570.804 524.727 571.52C525.855 572.237 526.755 573.262 527.32 574.474C527.885 575.685 528.092 577.033 527.917 578.359C527.903 578.453 527.888 578.548 527.873 578.642C526.296 579.285 524.76 580.025 523.275 580.859C522.425 581.339 521.593 581.848 520.778 582.387C519.756 583.07 518.963 584.047 518.505 585.189C518.046 586.331 517.943 587.585 518.21 588.786C518.476 589.988 519.098 591.081 519.996 591.923C520.893 592.764 522.024 593.314 523.24 593.502L523.364 593.521C523.454 593.534 523.531 593.547 523.621 593.56C520.925 599.998 517.142 605.925 512.437 611.079C506.625 617.319 499.601 622.305 491.794 625.732C483.988 629.159 475.564 630.954 467.039 631.008H467.026C464.712 641.069 461.359 650.862 457.021 660.229H421.282C421.154 659.831 421.038 659.421 420.923 659.024C424.231 659.232 427.552 659.034 430.812 658.434C428.161 655.179 425.509 651.898 422.857 648.643C422.798 648.582 422.743 648.518 422.691 648.451C421.346 646.785 419.988 645.131 418.643 643.465L418.642 643.463C418.571 638.356 419.156 633.261 420.385 628.304L420.386 628.303Z" fill="#F2F2F2"/>
<path d="M118.992 641.216L129.441 645.67L151.587 607.472L136.166 600.898L118.992 641.216Z" fill="#A0616A"/>
<path d="M205.331 651.109L216.687 651.107L222.091 607.28L205.328 607.281L205.331 651.109Z" fill="#A0616A"/>
<path d="M204.93 662.961L239.855 662.96V662.518C239.855 658.911 238.422 655.452 235.873 652.902C233.324 650.351 229.866 648.918 226.261 648.918H226.26L219.881 644.076L207.978 648.919L204.93 648.919L204.93 662.961Z" fill="#2F2E41"/>
<path d="M112.637 648.804L144.766 662.503L144.939 662.096C146.352 658.778 146.39 655.034 145.044 651.688C143.699 648.342 141.08 645.667 137.763 644.253L137.762 644.253L133.791 637.296L120.944 637.082L118.139 635.886L112.637 648.804Z" fill="#2F2E41"/>
<path d="M216.473 391.723L233.733 496.873L229.036 512.543L235.2 523.64L226.148 621.101L229.822 629.194L219.556 635.529H198.666L197.557 547.297L192.397 534.342V527.203L181.892 473.401L180.772 540.216L177.418 546.688L147.374 625.373H123.949L125.761 611.41C121.564 609.284 132.062 603.071 133.071 598.474L129.622 590.709L133.071 576.043L141.016 535.255L132.898 486.893L135.806 455.765L134.292 445.117L134.407 441.673C134.407 441.673 138.411 440.128 134.587 436.27C129.293 406.246 135.806 399.731 135.806 399.731L161.87 384.469L216.473 391.723Z" fill="#2F2E41"/>
<path d="M174.438 253.246C187.512 253.246 198.11 242.642 198.11 229.562C198.11 216.482 187.512 205.879 174.438 205.879C161.364 205.879 150.766 216.482 150.766 229.562C150.766 242.642 161.364 253.246 174.438 253.246Z" fill="#A0616A"/>
<path d="M144.76 184.13C144.872 185.488 144.685 186.854 144.212 188.132C143.739 189.409 142.991 190.568 142.022 191.525C141.053 192.483 139.886 193.216 138.603 193.673C137.321 194.131 135.953 194.301 134.597 194.172L120.843 224.298L111.715 209.71L126.176 183.339C126.543 181.074 127.727 179.023 129.504 177.574C131.282 176.125 133.529 175.378 135.82 175.476C138.11 175.574 140.286 176.508 141.934 178.103C143.581 179.698 144.587 181.843 144.76 184.13Z" fill="#A0616A"/>
<path d="M218.023 393.987C218.073 394.342 218.035 394.704 217.915 395.041C217.794 395.379 217.594 395.682 217.331 395.926C217.068 396.169 216.75 396.346 216.404 396.44C216.059 396.534 215.695 396.544 215.345 396.467C202.951 393.788 151.805 400.218 134.864 417.491C134.544 417.822 134.129 418.045 133.677 418.131C133.225 418.217 132.757 418.162 132.338 417.973C131.918 417.783 131.568 417.469 131.333 417.073C131.099 416.677 130.992 416.218 131.027 415.759C131.326 412.045 136.72 395.246 136.72 395.246L138.364 384.777C138.402 384.534 138.402 384.286 138.364 384.042L136.857 375.381C136.775 374.928 136.558 374.511 136.234 374.184L135.724 373.673C135.305 373.253 135.07 372.684 135.07 372.091C135.07 371.497 135.305 370.928 135.724 370.508L137.704 368.539C137.944 368.293 138.126 367.996 138.236 367.67C138.346 367.345 138.381 366.998 138.339 366.657L135.711 347.216C135.699 347.178 135.699 347.129 135.686 347.091L124.077 285.751C123.987 285.267 124.059 284.767 124.282 284.327C124.505 283.888 124.866 283.534 125.31 283.321L145.041 273.887C145.246 273.792 145.435 273.666 145.602 273.513L159.378 260.727C159.789 260.355 160.319 260.142 160.873 260.129L185.637 259.942C185.98 259.942 186.32 260.02 186.628 260.172C186.937 260.323 187.207 260.543 187.418 260.814L194.954 270.622C195.222 270.969 195.586 271.229 196 271.37L201.108 273.102L215.856 278.112L216.541 278.349C216.965 278.495 217.334 278.766 217.601 279.127C217.868 279.487 218.019 279.92 218.036 280.368C218.046 280.434 218.05 280.5 218.048 280.567L214.361 356.911C214.35 357.248 214.41 357.584 214.536 357.896L216.304 362.021C216.481 362.439 216.526 362.902 216.435 363.346C216.344 363.791 216.12 364.198 215.794 364.513C215.271 365.012 214.673 365.585 214.299 366.009C213.539 366.844 215.158 373.461 215.408 374.421C215.43 374.503 215.447 374.586 215.457 374.67L216.367 381.512C216.42 381.914 216.362 382.323 216.199 382.694C216.037 383.065 215.776 383.385 215.445 383.618C215.193 383.798 214.982 384.028 214.824 384.294C214.666 384.56 214.565 384.856 214.527 385.163C214.49 385.47 214.516 385.782 214.606 386.078C214.695 386.374 214.845 386.648 215.046 386.883L217.039 389.239C217.311 389.572 217.488 389.972 217.55 390.398L218.023 393.987Z" fill="#F1971F"/>
<path d="M168.381 252.086C168.28 251.863 168.179 251.64 168.078 251.416C168.117 251.417 168.155 251.422 168.194 251.423L168.381 252.086Z" fill="#2F2E41"/>
<path d="M252.667 386.196C252.783 384.838 252.599 383.472 252.129 382.193C251.659 380.914 250.915 379.754 249.948 378.794C248.982 377.834 247.817 377.098 246.535 376.637C245.253 376.177 243.886 376.003 242.53 376.128L228.853 345.967L219.688 360.531L234.081 386.94C234.442 389.205 235.621 391.259 237.395 392.713C239.168 394.167 241.413 394.919 243.704 394.827C245.995 394.736 248.173 393.806 249.825 392.215C251.477 390.625 252.488 388.483 252.667 386.196Z" fill="#A0616A"/>
<path d="M234.128 354.531L233.368 355.952L225.359 370.932L224.238 373.025L216.415 362.245L190.742 326.877L194.392 304.694L201.106 276.903L211.059 276.33L218.034 279.184C221.006 280.497 223.443 282.781 224.946 285.662C226.448 288.543 226.928 291.85 226.305 295.039L220.127 326.69L234.128 354.531Z" fill="#F1971F"/>
<path d="M195.049 208.252C194.695 206.284 193.903 204.422 192.732 202.802C192.142 202.1 191.41 201.531 190.586 201.132C189.761 200.732 188.861 200.511 187.945 200.484C187.029 200.456 186.117 200.622 185.27 200.97C184.422 201.319 183.658 201.842 183.026 202.507C183.397 201.43 183.504 200.281 183.341 199.154C181.612 199.984 179.762 200.534 177.861 200.785L182.062 196.397L161.151 198.319C158.993 198.517 156.66 198.798 155.075 200.438C153.49 202.079 153.402 205.58 155.405 206.494C151.458 205.007 146.926 207.166 144.322 210.782C141.718 214.399 140.759 219.169 140.583 223.797C140.355 229.798 141.473 236.187 145.134 240.605C147.528 243.494 150.793 245.295 153.442 247.894L153.521 247.973C156.423 250.95 160.061 253.107 164.065 254.223C168.069 255.339 172.298 255.375 176.32 254.327C176.772 254.203 177.221 254.065 177.671 253.936C179.925 254.956 182.731 253.562 184.154 251.295C185.67 248.877 185.97 245.784 186.034 242.837C186.118 238.984 185.881 235.13 185.325 231.316C184.698 227.021 184.132 221.52 187.532 219.363C190.179 217.684 193.468 219.341 196.133 220.986C196.389 216.711 196.024 212.422 195.049 208.252Z" fill="#2F2E41"/>
<path d="M144.568 317.891L128.794 316.752L101.419 283.22L81.0977 254.079L85.7777 242.233L107.899 210.526L107.67 207.787L110.118 207.345L110.161 204.048L112.193 204.371L117.635 196.571L130.091 206.541L123.047 227.245L122.618 231.465L120.18 235.669L121.372 241.435L116.714 245.858L114.471 252.45C124.147 258.816 133.323 268.341 142.27 280.262L144.568 317.891Z" fill="#F1971F"/>
<path d="M359.537 354.36L357.826 370.224L358.833 391.029L312.774 385.554L308.445 354.36L313.96 354.413L359.537 354.36Z" fill="#FFB6B6"/>
<path d="M319.434 302.218L330.379 295.648L335.626 287.546L351.82 290.039L371.615 303.315L371.421 333.425L359.148 364.654L307.708 358.084L305.754 347.069C305.754 347.069 291.526 327.95 306.848 317L319.434 302.218Z" fill="#F1971F"/>
<path d="M253.744 212.809C253.225 213.916 252.955 215.122 252.953 216.344C252.951 217.566 253.217 218.774 253.732 219.882C254.246 220.99 254.998 221.972 255.933 222.758C256.868 223.544 257.964 224.115 259.144 224.432L294.778 291.699L309.161 280.593L269.611 217.964C270.011 215.946 269.658 213.851 268.617 212.076C267.577 210.302 265.922 208.971 263.966 208.335C262.01 207.7 259.889 207.804 258.005 208.629C256.121 209.454 254.605 210.941 253.744 212.809Z" fill="#FFB6B6"/>
<path d="M312.198 314.429C312.198 314.429 308.896 317.359 304.2 309.269C300.44 302.792 281.692 273.789 279.037 263.735C277.581 263.777 276.152 263.332 274.977 262.471C273.801 261.611 272.945 260.383 272.543 258.982L292.682 251.162C297.06 253.352 295.845 256.387 294.735 257.957L302.235 269.213L327.183 297.224L314.622 312.354L312.198 314.429Z" fill="#F1971F"/>
<path d="M383.426 642.405H373.356L368.562 603.545H383.426V642.405Z" fill="#FFB6B6"/>
<path d="M388.744 659.86H381.522L380.233 653.039L376.932 659.86H357.778C356.86 659.86 355.966 659.567 355.227 659.023C354.487 658.478 353.941 657.712 353.668 656.835C353.395 655.958 353.409 655.016 353.708 654.148C354.007 653.28 354.576 652.53 355.332 652.008L370.627 641.44V634.543L386.715 635.504L388.744 659.86Z" fill="#2F2E41"/>
<path d="M326.863 642.405H316.793L312 603.545H326.863V642.405Z" fill="#FFB6B6"/>
<path d="M332.177 659.86H324.956L323.667 653.039L320.365 659.86H301.212C300.294 659.86 299.4 659.567 298.66 659.023C297.921 658.478 297.375 657.712 297.101 656.835C296.828 655.958 296.842 655.016 297.142 654.148C297.441 653.28 298.01 652.53 298.765 652.008L314.061 641.44V634.543L330.149 635.504L332.177 659.86Z" fill="#2F2E41"/>
<path d="M387.773 608.894H387.663L385.727 545.709C386.98 543.29 387.616 540.599 387.578 537.875C387.54 535.151 386.83 532.479 385.51 530.096L385.233 529.594L385.952 526.26C386.875 521.976 386.451 517.512 384.739 513.478L382.932 454.539C389.387 412.687 358.626 385.394 358.626 385.394H312.545L309.252 396.713L305.73 399.707L307.063 404.237L303.239 409.677L302.652 419.399C296.112 483.147 297.299 545.268 307.677 605.452L307.394 605.595C306.858 605.895 306.457 606.39 306.275 606.977C306.093 607.564 306.144 608.199 306.418 608.749C306.897 610.139 308.112 610.981 309.131 610.629L333.467 609.782C334.003 609.483 334.404 608.988 334.586 608.401C334.768 607.814 334.716 607.179 334.443 606.628C333.963 605.238 332.749 604.397 331.73 604.749L330.075 605.586L333.604 544.615L333.212 533.478L334.019 520.844L337.75 464.015L351.869 533.899L366.291 609.597C365.893 609.957 365.614 610.43 365.49 610.952C365.367 611.475 365.404 612.022 365.598 612.523C365.792 613.024 366.133 613.454 366.576 613.756C367.019 614.059 367.544 614.22 368.08 614.219H387.773C388.479 614.219 389.156 613.938 389.655 613.439C390.154 612.94 390.434 612.262 390.434 611.556C390.434 610.85 390.154 610.173 389.655 609.674C389.156 609.174 388.479 608.894 387.773 608.894Z" fill="#2F2E41"/>
<path d="M438.238 411.392C438.724 410.271 438.959 409.057 438.925 407.835C438.892 406.614 438.591 405.414 438.044 404.322C437.497 403.229 436.717 402.27 435.759 401.511C434.802 400.753 433.69 400.214 432.501 399.932L394.92 333.733L380.867 345.255L422.227 406.703C421.886 408.731 422.3 410.815 423.392 412.558C424.484 414.302 426.177 415.584 428.151 416.162C430.124 416.74 432.241 416.574 434.1 415.694C435.959 414.815 437.432 413.284 438.238 411.392Z" fill="#FFB6B6"/>
<path d="M368.481 303.268C368.481 303.268 371.696 300.243 376.626 308.192C380.573 314.557 408.525 351.253 411.471 361.226C412.926 361.142 414.367 361.545 415.567 362.371C416.767 363.197 417.659 364.399 418.101 365.787L398.199 374.192C393.759 372.131 391.691 368.276 392.755 366.674L384.929 355.642L355.59 321.753L366.118 305.413L368.481 303.268Z" fill="#F1971F"/>
<path d="M327.754 243.848C321.053 257.061 325.43 272.366 337.864 280.414C351.31 289.117 368.766 287.211 374.413 270.299C380.701 251.465 375.535 243.385 364.303 233.733C351.139 222.421 334.994 229.572 327.754 243.848Z" fill="#2F2E41"/>
<path d="M360.738 273.282C357.326 277.753 352.281 280.686 346.709 281.438C341.137 282.189 335.496 280.697 331.023 277.29C326.55 273.883 323.612 268.838 322.854 263.265C322.096 257.692 323.58 252.045 326.981 247.566L327.165 247.324C330.64 242.973 335.685 240.162 341.213 239.499C346.74 238.835 352.307 240.372 356.712 243.778C361.117 247.184 364.007 252.186 364.759 257.705C365.512 263.224 364.065 268.817 360.732 273.278L360.738 273.282Z" fill="#FFB6B6"/>
<path d="M321.262 241.709C324.709 244.991 328.912 247.373 333.498 248.645C334.417 247.581 335.507 246.678 336.723 245.972C336.141 247.183 335.742 248.474 335.539 249.803C337.585 254.05 345.939 257.102 353.923 260.224L364.498 241.552L350.501 233.617C339.253 225.837 326.012 229.157 321.262 241.709Z" fill="#2F2E41"/>
<path d="M372.474 233.756C373.495 233.38 374.594 233.265 375.67 233.422C376.747 233.58 377.767 234.004 378.638 234.657C380.342 235.953 381.72 237.63 382.661 239.553C384.373 242.665 385.603 246.019 386.309 249.5C386.913 252.512 386.811 256.153 384.11 257.725C381.856 259.037 378.634 258.211 376.562 256.461C374.643 254.624 373.186 252.358 372.313 249.848C371.456 247.357 370.184 245.028 368.551 242.961L370.417 243.833C369.827 242.041 369.552 240.161 369.605 238.275C369.647 237.337 369.934 236.426 370.438 235.634C370.941 234.841 371.643 234.194 372.474 233.756Z" fill="#2F2E41"/>
<path d="M348.263 236.204L363.28 244.717C365.291 245.857 367.058 247.382 368.479 249.205C369.901 251.027 370.95 253.113 371.566 255.341C372.182 257.57 372.354 259.898 372.07 262.192C371.787 264.487 371.055 266.703 369.916 268.715C366.564 274.632 361.128 279.086 354.669 281.206C348.21 283.327 341.193 282.962 334.989 280.183L348.711 268.063L330.096 277.552L326.121 275.299C346.086 271.667 349.937 255.999 348.263 236.204Z" fill="#2F2E41"/>
<path d="M203.241 0L153.836 82.2927L203.409 111.574L203.241 0Z" fill="#8C8C8C"/>
<path d="M252.864 82.2927L203.242 0L203.41 111.574L252.864 82.2927Z" fill="#333333"/>
<path d="M153.836 82.2927L203.349 59.7146L203.409 111.574L153.836 82.2927Z" fill="#383838"/>
<path d="M252.865 82.2927L203.352 59.7146L203.459 109.679L252.865 82.2927Z" fill="#141414"/>
<path d="M252.742 91.7168L203.289 120.998V161.388L252.742 91.7168Z" fill="#333333"/>
<path d="M153.836 91.7168L203.291 120.998V161.388L153.836 91.7168Z" fill="#8C8C8C"/>
</svg>
