<svg width="30" height="30" viewBox="0 0 30 30" fill="none" xmlns="http://www.w3.org/2000/svg">
<path d="M29.716 28.3679L21.9703 20.7461C23.9986 18.5425 25.2449 15.628 25.2449 12.421C25.2439 5.56065 19.5931 0 12.622 0C5.65081 0 0 5.56065 0 12.421C0 19.2814 5.65081 24.8421 12.622 24.8421C15.634 24.8421 18.3965 23.8003 20.5665 22.0683L28.3422 29.7201C28.7211 30.0933 29.3362 30.0933 29.7151 29.7201C30.0948 29.3469 30.0948 28.7411 29.716 28.3679ZM12.622 22.931C6.72361 22.931 1.94207 18.2255 1.94207 12.421C1.94207 6.61651 6.72361 1.91105 12.622 1.91105C18.5204 1.91105 23.3019 6.61651 23.3019 12.421C23.3019 18.2255 18.5204 22.931 12.622 22.931Z" fill="black"/>
</svg>
